<?xml version="1.0" encoding="UTF-8"?><svg id="Lag_1" xmlns="http://www.w3.org/2000/svg" viewBox="0 0 1222.83 575.42"><defs><style>.cls-1{fill:#a9bb9f;}.cls-2{fill:#889c74;}</style></defs><path class="cls-2" d="m272.05,62.57c-25.21.71-44.88,13.67-61.49,24.89-25.17,17-21.61,22.23-37.22,30.22-25.01,12.82-38.96,1.87-76.05,3.56-22.42,1.02-70.14,3.19-89,33.78-16.2,26.28-4.73,63.17,1.62,83.56,15.54,49.96,41.06,60.1,87.38,129.79,34.24,51.52,23.27,50.46,42.07,71.12,64.07,70.39,167.21,56.08,184.47,53.34,31.6-5.02,80.48-12.78,111.65-53.34,16.98-22.09,15.73-37.03,43.69-71.12,20.8-25.36,30.67-28.28,42.07-51.56,5.42-11.06,14.97-34.45,14.56-64.01-.27-19.26-4.47-19.57-9.71-53.34-6.43-41.42-1.34-48.9-8.09-64.01-13.62-30.49-50.39-38.29-61.49-40.89-33.99-7.95-36.26,8.56-72.82,1.78-24.77-4.59-28.13-12.99-76.05-26.67-25.27-7.21-32.46-7.2-35.6-7.11Z"/><path class="cls-1" d="m181.53,517.11c-14.32,0-28.16-5.05-42.43-15.33-26.46-19.05-49.07-39.69-67.22-61.36-35.01-41.8-50.93-84.04-47.31-125.55,3.5-40.19,24.28-67.64,39.46-87.69,31.06-41.03,72.99-73.21,124.63-95.64,41.65-18.09,89.75-29.95,142.97-35.24,93.37-9.28,171.77,4.64,180.4,6.26,22.09,4.14,50.49,11.81,74.12,34.54h0c36.3,34.91,48.39,83.16,41.35,110.84-3.8,14.94-21.18,57.69-50.63,94.46-17.79,22.21-37.52,39.47-58.64,51.29-25.8,14.43-53.75,20.75-83.06,18.77-34.73-2.34-67.08,3.6-98.9,18.17-27.81,12.74-51.53,30.37-72.46,45.92-22.05,16.39-41.09,30.55-60.98,37-7.28,2.36-14.35,3.55-21.3,3.55ZM397.17,98.14c-20.23,0-42.18.87-65.04,3.14-52.71,5.24-100.31,16.96-141.48,34.85-50.84,22.08-92.1,53.73-122.64,94.07-14.81,19.56-35.1,46.36-38.47,85.11-3.49,40.15,12.04,81.16,46.17,121.9,17.88,21.35,40.19,41.71,66.31,60.51,19.8,14.25,38.63,17.77,59.27,11.08,19.1-6.2,37.84-20.13,59.54-36.26,42.24-31.4,94.8-70.48,174.68-65.07,28.33,1.91,55.34-4.19,80.29-18.14,20.56-11.5,39.8-28.34,57.18-50.05,31.79-39.7,47.28-83.11,49.68-92.56,3.47-13.65,1.77-32.15-4.67-50.78-5.03-14.55-15.24-35.94-35.29-55.23-22.68-21.81-50.16-29.21-71.57-33.23-6.45-1.21-52.17-9.34-113.94-9.34Z"/><path class="cls-2" d="m803.96,97.33c61.56-33.83,121.65-16.92,177.12-1.31,47.09,13.25,110.94,31.22,146,91.54,20.49,35.25,27.06,77.9,27.53,81.08,7.94,54.12-6.93,87.05,15.56,117.69,8.96,12.21,13.7,10.22,27.53,28.77,10.1,13.56,25.34,34,25.13,58.85-.21,25.24-16.27,43.65-21.54,49.69-55.62,63.75-217.42,6.46-239.35-1.31-70.49-24.96-149.81-53.05-203.45-138.61-17.75-28.32-64.26-102.51-40.69-183.08,19.5-66.67,75.17-97.26,86.17-103.31Z"/><path class="cls-1" d="m943.86,575.42c-17.68,0-34.84-1.24-51.31-3.73-55.14-8.31-98.38-29.61-128.52-63.31-29.18-32.62-37.36-67.16-43.33-92.38-12.25-51.7-10.57-103.96,4.98-155.31,12.55-41.44,34.15-82.47,64.19-121.93,52.69-69.21,113.99-110.89,120.8-115.41,17.47-11.6,41.75-24.73,74.82-23.25,50.54,2.26,95.99,30.58,113.1,56.08,9.26,13.81,31.59,57.64,41.53,104.99,6.01,28.63,6.88,54.82,2.59,77.83-5.25,28.18-18.29,51.64-38.74,69.72-24.05,21.26-40.1,47.21-49.07,79.32-7.85,28.11-9.24,57.22-10.47,82.9-1.29,27.09-2.41,50.49-10.13,68.66-8.7,20.48-24.75,31.21-50.48,33.79-13.56,1.36-26.9,2.03-39.95,2.03ZM980.44,5c-29.17,0-51.03,11.92-67,22.53-6.74,4.48-67.4,45.72-119.59,114.27-29.68,38.98-51,79.47-63.38,120.35-15.29,50.5-16.94,101.88-4.9,152.71,5.85,24.7,13.86,58.52,42.19,90.19,29.34,32.8,71.58,53.56,125.54,61.7,28.22,4.25,58.51,4.81,90.02,1.66,23.73-2.37,38.46-12.15,46.38-30.77,7.37-17.34,8.47-40.32,9.74-66.94,2.48-51.92,5.57-116.53,61.21-165.72,19.6-17.32,32.09-39.83,37.13-66.89,4.17-22.37,3.31-47.9-2.57-75.89-10.75-51.24-34.91-94.46-40.79-103.23-8.54-12.73-24.23-25.67-43.07-35.53-14.68-7.68-38.06-17.09-66.09-18.34-1.63-.07-3.24-.11-4.83-.11Z"/></svg>