<?xml version="1.0" encoding="UTF-8"?><svg id="Lag_1" xmlns="http://www.w3.org/2000/svg" viewBox="0 0 1192.81 529.2"><defs><style>.cls-1{fill:#efe9dd;}.cls-2{fill:#889c74;}</style></defs><path class="cls-2" d="m743.5,33.63c11.13-10.85,21.94-13.94,42.89-19.94,20.73-5.93,70.88-20.27,116.98,4.43,37.59,20.14,30.49,43.74,74.09,70.88,20.62,12.84,27.88,11.09,79.94,26.58,70.97,21.12,106.45,31.68,118.93,50.95,28.68,44.28.54,118.38-11.7,150.62-28.34,74.64-78.36,115.76-105.29,137.33-22.09,17.69-49.06,39.3-87.74,50.95-84,25.3-199.15-3.59-216.42-66.45-18.5-67.34,85.26-137.57,60.44-194.92-15.35-35.46-59.19-18.3-85.79-64.24-24.7-42.66-19.53-113.84,13.65-146.19Z"/><path class="cls-1" d="m1080.33,449.38c-22.7,0-46.89-4.28-66.81-12.01-16.15-6.26-23.62-12.55-30.21-18.1-6.67-5.62-12.44-10.47-26.01-14.07-30.38-8.06-53.17,2.34-77.3,13.35-21.75,9.93-44.24,20.19-72.92,16.25-45.07-6.19-73.58-42.43-87.27-59.85-33.47-42.56-50.03-105.44-42.19-160.2,4.49-31.38,16.76-55.66,34.54-68.35,13.73-9.8,25.58-9.16,39.3-8.41,13.95.76,29.76,1.62,52.43-7.92,26.79-11.28,37.46-26.22,49.8-43.52,10.51-14.72,22.42-31.41,46.58-47.65,26.86-18.06,60.8-30.37,93.1-33.79,35.28-3.74,65.11,3.56,83.99,20.53,19.62,17.65,25.54,43.57,27.48,52.09,5.29,23.21,1.11,40.14-2.58,55.07-3.42,13.83-6.64,26.88-2.07,43.05,4.79,16.94,14.3,24.01,26.32,32.95,8.78,6.53,18.73,13.93,28.98,26.63,18.69,23.18,32.19,56.44,36.1,88.98,4.43,36.85-3.64,69.14-22.72,90.92-21.63,24.69-53.25,31.89-75.97,33.59-4.12.31-8.33.46-12.6.46Zm-144.18-51c7.02,0,14.38.89,22.18,2.96,14.43,3.83,20.81,9.2,27.56,14.88,6.35,5.35,13.54,11.41,29.08,17.43,23.13,8.97,52.16,13.19,77.66,11.29,21.97-1.64,52.51-8.56,73.26-32.24,18.33-20.92,26.05-52.1,21.76-87.8-3.83-31.83-17-64.33-35.25-86.95-9.93-12.31-19.66-19.55-28.25-25.93-12.14-9.02-22.62-16.82-27.79-35.07-4.87-17.19-1.51-30.75,2.03-45.1,3.76-15.21,7.65-30.95,2.57-53.22-1.87-8.21-7.58-33.21-26.25-50.01-18.02-16.21-46.75-23.15-80.89-19.53-31.68,3.35-64.95,15.43-91.29,33.14-23.55,15.83-34.74,31.5-45.55,46.65-12.17,17.05-23.67,33.16-51.51,44.88-23.52,9.9-40.53,8.98-54.2,8.23-13.5-.73-24.17-1.32-36.76,7.68-16.88,12.05-28.57,35.37-32.91,65.66-7.69,53.73,8.55,115.42,41.38,157.16,13.38,17.01,41.21,52.39,84.68,58.36,27.54,3.78,49.49-6.24,70.71-15.93,17.88-8.16,36.23-16.54,57.8-16.54Z"/><path class="cls-2" d="m116.1,43.02c42.54-19.47,80.42-16.73,101.01-14.98,45.41,3.85,79.28,20.93,120.96,41.95,44.47,22.43,54.31,34.71,97.26,52.44,43.06,17.77,49.81,8.46,72.33,22.47,36.81,22.9,66.05,72.02,72.32,119.86,12.25,93.44-63.51,178.94-122.2,214.25-130.17,78.31-274.46-31.29-304.26-53.94-15.2-11.55-175.83-133.57-150.88-256.21C18.87,89.01,105.94,47.67,116.1,43.02Z"/><path class="cls-1" d="m225.04,523.17c-2.24,1.03-4.62,1.96-7.17,2.76-26.82,8.44-61.17.42-96.73-22.58-34.09-22.05-65.3-55.73-85.64-92.39-18.86-34.01-29.64-72.82-31.17-112.23-1.39-35.73,5.01-70.86,18.02-98.91h0c15.36-33.11,32.63-41.05,78.77-62.35,25.72-11.84,60.95-28.11,110.06-55.33,29.01-16.08,52.33-30.17,71.08-41.49C337.3,7.41,360.08-6.35,401.47,2.73c63.34,13.9,106.33,67.57,118,83.69,45.6,63,60.72,149.05,37.62,214.14-14.49,40.82-40.09,62.56-50.43,70.01-35.99,25.95-70.01,20.81-102.92,15.84-30.1-4.54-58.52-8.84-88.97,8.38-31.67,17.91-41.36,45.46-50.73,72.09-8.25,23.45-16.09,45.71-39,56.28ZM100.37,142.49c-43.54,20.09-60.18,28.22-74.77,59.67-12.76,27.5-19.03,61.96-17.67,97.02,1.51,38.64,12.07,76.68,30.54,109.98,19.95,35.97,50.59,69.02,84.06,90.67,34.64,22.4,67.98,30.25,93.9,22.1,2.47-.78,4.78-1.67,6.94-2.67,21.66-9.99,28.96-30.74,37.29-54.41,9.13-25.94,19.48-55.35,52.13-73.81,31.31-17.72,61.59-13.14,90.87-8.72,32.31,4.88,65.71,9.92,100.75-15.34,10.1-7.28,35.13-28.54,49.3-68.46,22.63-63.75,7.81-148.06-36.88-209.79-11.43-15.79-53.54-68.36-115.5-81.96-40.19-8.82-62.68,4.76-117.02,37.58-18.76,11.33-42.11,25.43-71.17,41.54-49.2,27.28-84.49,43.56-110.25,55.43l-2.54,1.17Z"/></svg>