<?xml version="1.0" encoding="UTF-8"?><svg id="Lag_1" xmlns="http://www.w3.org/2000/svg" viewBox="0 0 1295.04 559.75"><defs><style>.cls-1{fill:#a9bb9f;}.cls-2{fill:#889c74;}</style></defs><path class="cls-1" d="m443.24,70.14c-39.83-35.82-121.8-22.08-174.64,13.43-51.4,34.55-45.76,69.89-96.72,91.35-45.57,19.18-64.65-2.94-91.35,16.12-48.62,34.71-48.79,153.4,8.06,225.69,13.14,16.7,41.71,53.03,85.98,59.11,59.13,8.12,91.22-45.27,150.46-29.55,27.47,7.29,24.12,19.71,56.42,32.24,42.56,16.51,115.82,21.11,153.14-21.49,40.99-46.78,22.79-132.41-13.43-177.32-24.26-30.08-47.15-30.17-55.67-60.29-9.77-34.51,14.66-54.22,4.62-98.23-1.91-8.38-7.72-33.82-26.87-51.05Z"/><path class="cls-2" d="m226.9,4.44c29.25,10.08,42.19,34.97,55.85,61.23,14.46,27.79,29.4,56.53,64.84,74.46,27,13.65,48.23,11.8,68.77,9.99,21.01-1.84,42.73-3.74,68.82,11.91,29.39,17.63,50.51,48.47,62.75,91.66,9.25,32.62,10,60.75,10.06,66.06.36,33.44-7.39,68.97-22.43,102.77-14.09,31.66-33.88,60.58-57.23,83.63-32.29,31.87-67.71,49-99.74,48.23-29.61-.71-50.13-16.91-71.87-34.05-25.98-20.5-55.42-43.73-107.56-47.67-11.48-.87-20.32-.55-29.67-.21-14.51.53-29.52,1.07-54.67-3.24-41.32-7.09-92.75-15.9-109.43-52.82-15.68-34.7,6.27-77.78,21.7-97.77,16.15-20.91,33.16-28.49,48.18-35.19,14.7-6.56,27.4-12.22,36.35-28.97,6.84-12.82,5.78-21.46,3.2-42.34-1.66-13.41-3.92-31.77-5.01-59.07-2.51-63-3.89-97.7,16.33-121.54C147.29,6.57,188.07-5.83,220.99,2.66c2.04.53,4.01,1.12,5.9,1.77Zm132.82,146.84c-4.69-1.62-9.56-3.66-14.63-6.23-37.02-18.73-53.08-49.6-67.25-76.83-14.57-28-27.14-52.18-58.23-60.2C188.6,0,150.23,11.64,130.36,35.06c-18.07,21.3-17.66,51.49-15.02,117.75,1.08,27.07,3.33,45.3,4.97,58.61,2.65,21.47,3.86,31.26-3.81,45.62-9.84,18.42-23.99,24.74-38.97,31.42-15.12,6.74-30.76,13.72-46.06,33.52-14.68,19.01-35.64,59.8-21.04,92.12,15.47,34.24,65.29,42.79,105.33,49.65,24.59,4.22,39.31,3.68,53.54,3.16,9.09-.33,18.5-.67,30.28.22,53.82,4.07,83.97,27.85,110.56,48.84,21.9,17.28,40.82,32.2,68.58,32.87h0c30.52.73,64.51-15.83,95.73-46.64,22.86-22.56,42.25-50.9,56.06-81.94,14.72-33.08,22.31-67.82,21.96-100.46-.03-3.18-.61-31.99-9.85-64.61-11.85-41.79-32.13-71.54-60.28-88.43-24.56-14.74-44.45-12.99-65.5-11.15-17.51,1.53-35.51,3.11-57.12-4.34Z"/><path class="cls-1" d="m968.15,15.61c-70.15-5.99-151.97,67.54-159.9,137.55-5.48,48.33,25.61,61.11,14.32,106.55-10.19,41-44.51,45.7-78.76,89.12-32.8,41.59-71.67,123.58-31.03,170.48,45.56,52.58,184.21,53.21,255.37,5.81,62.45-41.6,44.21-101.08,105.01-120.11,50.34-15.76,83.77,18.46,145.58-1.94,3.24-1.07,55-18.8,71.6-56.18,24.24-54.62-50.65-122.84-105.01-154.99-56.92-33.66-87.17-24.4-112.17-58.12-24.87-33.55-8.93-61.61-42.96-91.05-5.82-5.04-29.56-24.35-62.05-27.12Z"/><path class="cls-2" d="m836.51,548.87c-14.32,0-28.16-5.05-42.43-15.33-26.46-19.05-49.07-39.69-67.22-61.36-35.01-41.8-50.93-84.04-47.31-125.55,3.5-40.19,24.28-67.64,39.46-87.69,31.06-41.03,72.99-73.21,124.63-95.64,41.65-18.09,89.75-29.95,142.97-35.24,93.37-9.28,171.77,4.64,180.4,6.26,22.09,4.14,50.49,11.81,74.12,34.54h0c36.3,34.91,48.39,83.16,41.35,110.84-3.8,14.94-21.18,57.69-50.63,94.46-17.79,22.21-37.52,39.47-58.64,51.29-25.8,14.43-53.75,20.75-83.06,18.77-34.73-2.34-67.08,3.6-98.9,18.17-27.81,12.74-51.53,30.37-72.46,45.92-22.05,16.39-41.09,30.55-60.98,37-7.28,2.36-14.35,3.55-21.3,3.55Zm215.63-418.97c-20.23,0-42.18.87-65.04,3.14-52.71,5.24-100.31,16.96-141.48,34.85-50.84,22.08-92.1,53.73-122.64,94.07-14.81,19.56-35.1,46.36-38.47,85.11-3.49,40.15,12.04,81.16,46.17,121.9,17.88,21.35,40.19,41.71,66.31,60.51,19.8,14.25,38.63,17.77,59.27,11.08,19.1-6.2,37.84-20.13,59.54-36.26,42.24-31.4,94.8-70.48,174.68-65.07,28.33,1.91,55.34-4.19,80.29-18.14,20.56-11.5,39.8-28.34,57.18-50.05,31.79-39.7,47.28-83.11,49.68-92.56,3.47-13.65,1.77-32.15-4.67-50.78-5.03-14.55-15.24-35.94-35.29-55.23-22.68-21.81-50.16-29.21-71.57-33.23-6.45-1.21-52.17-9.34-113.94-9.34Z"/></svg>