<svg width="400" height="320" viewBox="0 0 400 320" fill="none" xmlns="http://www.w3.org/2000/svg">
<rect width="400" height="320" fill="#EFE9DD"/>
<circle cx="76" cy="80" r="56.5" stroke="#A9BAA0"/>
<circle cx="240.5" cy="247.5" r="36" stroke="#A9BAA0"/>
<circle cx="321.5" cy="79.5" r="24" stroke="#A9BAA0"/>
<circle cx="153.5" cy="160.5" r="111.5" fill="#A9BAA0"/>
<path d="M93.056 146.344C96.448 146.344 99.408 147.032 101.936 148.408C104.496 149.784 106.48 151.768 107.888 154.36C109.296 156.92 110 160.04 110 163.72C110 167.304 109.28 170.44 107.84 173.128C106.4 175.816 104.384 177.912 101.792 179.416C99.232 180.92 96.304 181.672 93.008 181.672C89.616 181.672 86.64 180.984 84.08 179.608C81.552 178.232 79.584 176.248 78.176 173.656C76.768 171.064 76.064 167.944 76.064 164.296C76.064 160.712 76.784 157.576 78.224 154.888C79.696 152.2 81.696 150.104 84.224 148.6C86.784 147.096 89.728 146.344 93.056 146.344ZM92.864 147.208C91.072 147.208 89.504 147.928 88.16 149.368C86.848 150.808 85.824 152.792 85.088 155.32C84.384 157.848 84.032 160.776 84.032 164.104C84.032 167.496 84.432 170.456 85.232 172.984C86.064 175.48 87.168 177.416 88.544 178.792C89.952 180.136 91.504 180.808 93.2 180.808C94.992 180.808 96.544 180.088 97.856 178.648C99.2 177.208 100.224 175.224 100.928 172.696C101.664 170.136 102.032 167.208 102.032 163.912C102.032 160.488 101.616 157.528 100.784 155.032C99.984 152.536 98.88 150.616 97.472 149.272C96.096 147.896 94.56 147.208 92.864 147.208ZM123.007 155.656V184.936C123.007 186.44 123.391 187.432 124.159 187.912C124.927 188.424 125.983 188.68 127.327 188.68V189.688C126.495 189.656 125.343 189.608 123.871 189.544C122.431 189.512 120.895 189.496 119.263 189.496C118.079 189.496 116.911 189.512 115.759 189.544C114.639 189.608 113.791 189.656 113.215 189.688V188.68C114.271 188.68 115.007 188.456 115.423 188.008C115.871 187.56 116.095 186.696 116.095 185.416V161.416C116.095 159.976 115.871 158.92 115.423 158.248C114.975 157.544 114.175 157.192 113.023 157.192V156.184C114.047 156.28 115.039 156.328 115.999 156.328C117.311 156.328 118.559 156.28 119.743 156.184C120.927 156.056 122.015 155.88 123.007 155.656ZM130.447 155.512C132.079 155.512 133.535 155.96 134.815 156.856C136.095 157.72 137.119 159.048 137.887 160.84C138.655 162.6 139.039 164.808 139.039 167.464C139.039 169.8 138.767 171.848 138.223 173.608C137.711 175.368 136.959 176.856 135.967 178.072C135.007 179.256 133.839 180.152 132.463 180.76C131.119 181.368 129.599 181.672 127.903 181.672C126.655 181.672 125.519 181.448 124.495 181C123.471 180.584 122.687 179.976 122.143 179.176L122.623 178.552C122.943 179.128 123.391 179.576 123.967 179.896C124.575 180.216 125.263 180.376 126.031 180.376C127.471 180.376 128.607 179.896 129.439 178.936C130.271 177.944 130.863 176.568 131.215 174.808C131.599 173.016 131.791 170.888 131.791 168.424C131.791 165.672 131.615 163.512 131.263 161.944C130.911 160.376 130.431 159.256 129.823 158.584C129.215 157.912 128.479 157.576 127.615 157.576C126.463 157.576 125.407 158.024 124.447 158.92C123.519 159.816 122.991 161.096 122.863 162.76L122.623 161.08C123.199 159.256 124.175 157.88 125.551 156.952C126.959 155.992 128.591 155.512 130.447 155.512ZM151.74 148.312V156.184H157.404V157.144H151.74V176.536C151.74 177.496 151.916 178.184 152.268 178.6C152.62 178.984 153.148 179.176 153.852 179.176C154.428 179.176 155.004 178.968 155.58 178.552C156.156 178.104 156.668 177.352 157.116 176.296L157.932 176.728C157.42 178.168 156.636 179.352 155.58 180.28C154.556 181.208 153.148 181.672 151.356 181.672C150.3 181.672 149.372 181.528 148.572 181.24C147.772 180.984 147.1 180.584 146.556 180.04C145.852 179.336 145.388 178.472 145.164 177.448C144.94 176.392 144.828 175.032 144.828 173.368V157.144H140.796V156.184H144.828V149.848C146.172 149.848 147.404 149.736 148.524 149.512C149.676 149.256 150.748 148.856 151.74 148.312ZM165.111 143.8C166.455 143.8 167.511 144.136 168.279 144.808C169.079 145.448 169.479 146.344 169.479 147.496C169.479 148.648 169.079 149.56 168.279 150.232C167.511 150.872 166.455 151.192 165.111 151.192C163.767 151.192 162.695 150.872 161.895 150.232C161.127 149.56 160.743 148.648 160.743 147.496C160.743 146.344 161.127 145.448 161.895 144.808C162.695 144.136 163.767 143.8 165.111 143.8ZM168.855 155.656V176.536C168.855 177.88 169.079 178.792 169.527 179.272C170.007 179.752 170.807 179.992 171.927 179.992V181C171.351 180.968 170.455 180.936 169.239 180.904C168.023 180.84 166.791 180.808 165.543 180.808C164.295 180.808 163.031 180.84 161.751 180.904C160.471 180.936 159.511 180.968 158.871 181V179.992C159.991 179.992 160.775 179.752 161.223 179.272C161.703 178.792 161.943 177.88 161.943 176.536V161.416C161.943 159.976 161.719 158.92 161.271 158.248C160.855 157.544 160.055 157.192 158.871 157.192V156.184C159.895 156.28 160.887 156.328 161.847 156.328C163.191 156.328 164.439 156.28 165.591 156.184C166.775 156.056 167.863 155.88 168.855 155.656ZM191.435 155.512C192.779 155.512 193.867 155.688 194.699 156.04C195.531 156.36 196.203 156.808 196.715 157.384C197.227 157.992 197.595 158.792 197.819 159.784C198.043 160.744 198.155 162.024 198.155 163.624V176.536C198.155 177.88 198.363 178.792 198.779 179.272C199.195 179.752 199.915 179.992 200.939 179.992V181C200.363 180.968 199.483 180.936 198.299 180.904C197.147 180.84 196.011 180.808 194.891 180.808C193.739 180.808 192.603 180.84 191.483 180.904C190.363 180.936 189.515 180.968 188.939 181V179.992C189.803 179.992 190.395 179.752 190.715 179.272C191.067 178.792 191.243 177.88 191.243 176.536V161.608C191.243 160.808 191.179 160.12 191.051 159.544C190.923 158.936 190.667 158.472 190.283 158.152C189.931 157.8 189.387 157.624 188.651 157.624C187.819 157.624 187.051 157.864 186.347 158.344C185.643 158.824 185.067 159.496 184.619 160.36C184.203 161.192 183.995 162.136 183.995 163.192V176.536C183.995 177.88 184.171 178.792 184.523 179.272C184.875 179.752 185.467 179.992 186.299 179.992V181C185.787 180.968 184.987 180.936 183.899 180.904C182.843 180.84 181.755 180.808 180.635 180.808C179.419 180.808 178.171 180.84 176.891 180.904C175.611 180.936 174.651 180.968 174.011 181V179.992C175.131 179.992 175.915 179.752 176.363 179.272C176.843 178.792 177.083 177.88 177.083 176.536V161.416C177.083 159.976 176.859 158.92 176.411 158.248C175.995 157.544 175.195 157.192 174.011 157.192V156.184C175.035 156.28 176.027 156.328 176.987 156.328C178.331 156.328 179.579 156.28 180.731 156.184C181.915 156.056 183.003 155.88 183.995 155.656V159.976C184.763 158.376 185.803 157.24 187.115 156.568C188.427 155.864 189.867 155.512 191.435 155.512ZM205.883 155.512C207.227 155.512 208.315 155.688 209.147 156.04C209.979 156.36 210.651 156.808 211.163 157.384C211.675 157.992 212.043 158.792 212.267 159.784C212.491 160.744 212.603 162.024 212.603 163.624V176.536C212.603 177.88 212.827 178.792 213.275 179.272C213.755 179.752 214.555 179.992 215.675 179.992V181C215.067 180.968 214.155 180.936 212.939 180.904C211.723 180.84 210.523 180.808 209.339 180.808C208.187 180.808 207.051 180.84 205.931 180.904C204.811 180.936 203.963 180.968 203.387 181V179.992C204.251 179.992 204.843 179.752 205.163 179.272C205.515 178.792 205.691 177.88 205.691 176.536V161.608C205.691 160.808 205.611 160.12 205.451 159.544C205.323 158.936 205.051 158.472 204.635 158.152C204.251 157.8 203.643 157.624 202.811 157.624C201.979 157.624 201.211 157.88 200.507 158.392C199.803 158.904 199.227 159.592 198.779 160.456C198.363 161.32 198.139 162.28 198.107 163.336L197.867 160.408C198.731 158.488 199.867 157.192 201.275 156.52C202.715 155.848 204.251 155.512 205.883 155.512ZM229.849 155.512C232.665 155.512 234.873 156.344 236.473 158.008C238.073 159.672 238.873 162.392 238.873 166.168H223.081L222.985 165.256H232.825C232.857 163.688 232.761 162.248 232.537 160.936C232.313 159.592 231.961 158.52 231.481 157.72C231.001 156.92 230.361 156.52 229.561 156.52C228.441 156.52 227.481 157.224 226.681 158.632C225.913 160.04 225.449 162.376 225.289 165.64L225.433 165.928C225.401 166.312 225.369 166.712 225.337 167.128C225.337 167.544 225.337 167.976 225.337 168.424C225.337 170.632 225.641 172.424 226.249 173.8C226.889 175.176 227.689 176.184 228.648 176.824C229.609 177.432 230.585 177.736 231.577 177.736C232.249 177.736 232.937 177.64 233.641 177.448C234.377 177.224 235.113 176.84 235.849 176.296C236.585 175.72 237.273 174.92 237.913 173.896L238.777 174.184C238.393 175.4 237.785 176.584 236.953 177.736C236.121 178.888 235.065 179.832 233.785 180.568C232.505 181.304 230.969 181.672 229.177 181.672C227.001 181.672 225.081 181.208 223.417 180.28C221.753 179.352 220.441 177.944 219.48 176.056C218.553 174.168 218.089 171.768 218.089 168.856C218.089 165.88 218.585 163.4 219.577 161.416C220.601 159.432 221.993 157.96 223.753 157C225.545 156.008 227.577 155.512 229.849 155.512ZM257.883 155.512C258.907 155.512 259.739 155.736 260.379 156.184C261.019 156.6 261.483 157.144 261.771 157.816C262.091 158.488 262.251 159.192 262.251 159.928C262.251 161.112 261.899 162.088 261.195 162.856C260.523 163.592 259.627 163.96 258.507 163.96C257.387 163.96 256.507 163.688 255.867 163.144C255.259 162.568 254.955 161.816 254.955 160.888C254.955 159.992 255.147 159.256 255.531 158.68C255.947 158.072 256.459 157.56 257.067 157.144C256.619 157.016 256.171 157.032 255.723 157.192C255.115 157.288 254.539 157.544 253.995 157.96C253.451 158.344 252.987 158.84 252.603 159.448C252.219 160.024 251.915 160.664 251.691 161.368C251.467 162.04 251.355 162.696 251.355 163.336V176.056C251.355 177.592 251.723 178.632 252.459 179.176C253.227 179.72 254.363 179.992 255.867 179.992V181C255.131 180.968 254.059 180.936 252.651 180.904C251.243 180.84 249.771 180.808 248.235 180.808C246.955 180.808 245.659 180.84 244.347 180.904C243.035 180.936 242.043 180.968 241.371 181V179.992C242.491 179.992 243.275 179.752 243.723 179.272C244.203 178.792 244.443 177.88 244.443 176.536V161.416C244.443 159.976 244.219 158.92 243.771 158.248C243.355 157.544 242.555 157.192 241.371 157.192V156.184C242.395 156.28 243.387 156.328 244.347 156.328C245.691 156.328 246.939 156.28 248.091 156.184C249.275 156.056 250.363 155.88 251.355 155.656V160.12C251.739 159.256 252.251 158.472 252.891 157.768C253.531 157.064 254.267 156.52 255.099 156.136C255.931 155.72 256.859 155.512 257.883 155.512ZM270.017 143.8C271.361 143.8 272.417 144.136 273.185 144.808C273.985 145.448 274.385 146.344 274.385 147.496C274.385 148.648 273.985 149.56 273.185 150.232C272.417 150.872 271.361 151.192 270.017 151.192C268.673 151.192 267.601 150.872 266.801 150.232C266.033 149.56 265.649 148.648 265.649 147.496C265.649 146.344 266.033 145.448 266.801 144.808C267.601 144.136 268.673 143.8 270.017 143.8ZM273.761 155.656V176.536C273.761 177.88 273.985 178.792 274.433 179.272C274.913 179.752 275.713 179.992 276.833 179.992V181C276.257 180.968 275.361 180.936 274.145 180.904C272.929 180.84 271.697 180.808 270.449 180.808C269.201 180.808 267.937 180.84 266.657 180.904C265.377 180.936 264.417 180.968 263.777 181V179.992C264.897 179.992 265.681 179.752 266.129 179.272C266.609 178.792 266.849 177.88 266.849 176.536V161.416C266.849 159.976 266.625 158.92 266.177 158.248C265.761 157.544 264.961 157.192 263.777 157.192V156.184C264.801 156.28 265.793 156.328 266.753 156.328C268.097 156.328 269.345 156.28 270.497 156.184C271.681 156.056 272.769 155.88 273.761 155.656ZM296.774 155.512C298.118 155.512 299.206 155.688 300.038 156.04C300.902 156.36 301.574 156.808 302.054 157.384C302.566 157.992 302.934 158.776 303.158 159.736C303.414 160.696 303.542 161.992 303.542 163.624V176.536C303.542 177.88 303.766 178.792 304.214 179.272C304.694 179.752 305.494 179.992 306.614 179.992V181C306.006 180.968 305.094 180.936 303.878 180.904C302.662 180.84 301.462 180.808 300.278 180.808C299.062 180.808 297.862 180.84 296.678 180.904C295.526 180.936 294.646 180.968 294.038 181V179.992C294.998 179.992 295.67 179.752 296.054 179.272C296.438 178.792 296.63 177.88 296.63 176.536V161.608C296.63 160.808 296.55 160.12 296.39 159.544C296.23 158.936 295.942 158.472 295.526 158.152C295.11 157.8 294.486 157.624 293.654 157.624C292.79 157.624 291.99 157.864 291.254 158.344C290.55 158.824 289.974 159.496 289.526 160.36C289.11 161.192 288.902 162.136 288.902 163.192V176.536C288.902 177.88 289.094 178.792 289.478 179.272C289.894 179.752 290.566 179.992 291.494 179.992V181C290.918 180.968 290.07 180.936 288.95 180.904C287.862 180.84 286.726 180.808 285.542 180.808C284.326 180.808 283.078 180.84 281.798 180.904C280.518 180.936 279.558 180.968 278.918 181V179.992C280.038 179.992 280.822 179.752 281.27 179.272C281.75 178.792 281.99 177.88 281.99 176.536V161.416C281.99 159.976 281.766 158.92 281.318 158.248C280.902 157.544 280.102 157.192 278.918 157.192V156.184C279.942 156.28 280.934 156.328 281.894 156.328C283.238 156.328 284.486 156.28 285.638 156.184C286.822 156.056 287.91 155.88 288.902 155.656V159.976C289.702 158.344 290.79 157.192 292.166 156.52C293.542 155.848 295.078 155.512 296.774 155.512ZM317.386 190.024C315.402 190.024 313.626 189.848 312.058 189.496C310.522 189.176 309.306 188.664 308.41 187.96C307.546 187.288 307.114 186.456 307.114 185.464C307.114 184.472 307.562 183.576 308.458 182.776C309.354 182.008 310.682 181.4 312.442 180.952L312.874 181.72C312.266 182.2 311.818 182.712 311.53 183.256C311.274 183.832 311.146 184.424 311.146 185.032C311.146 186.376 311.754 187.4 312.97 188.104C314.218 188.84 315.898 189.208 318.01 189.208C319.45 189.208 320.73 189.016 321.85 188.632C323.002 188.248 323.898 187.672 324.538 186.904C325.21 186.136 325.546 185.192 325.546 184.072C325.546 183.112 325.194 182.296 324.49 181.624C323.786 180.984 322.378 180.664 320.266 180.664H317.29C315.978 180.664 314.826 180.52 313.834 180.232C312.874 179.944 312.122 179.496 311.578 178.888C311.034 178.248 310.762 177.448 310.762 176.488C310.762 175.144 311.29 173.96 312.346 172.936C313.402 171.912 314.97 170.952 317.05 170.056L317.53 170.44C316.922 170.824 316.346 171.24 315.802 171.688C315.29 172.104 315.034 172.648 315.034 173.32C315.034 174.344 315.674 174.856 316.954 174.856H322.186C323.946 174.856 325.514 175.064 326.89 175.48C328.298 175.896 329.402 176.584 330.202 177.544C331.034 178.472 331.45 179.688 331.45 181.192C331.45 182.76 330.938 184.216 329.914 185.56C328.922 186.904 327.386 187.976 325.306 188.776C323.226 189.608 320.586 190.024 317.386 190.024ZM317.866 170.776C316.042 170.776 314.41 170.504 312.97 169.96C311.53 169.416 310.394 168.584 309.562 167.464C308.73 166.344 308.314 164.904 308.314 163.144C308.314 161.384 308.73 159.944 309.562 158.824C310.394 157.672 311.53 156.84 312.97 156.328C314.41 155.784 316.042 155.512 317.866 155.512C319.69 155.512 321.322 155.784 322.762 156.328C324.202 156.84 325.338 157.672 326.17 158.824C327.002 159.944 327.418 161.384 327.418 163.144C327.418 164.904 327.002 166.344 326.17 167.464C325.338 168.584 324.202 169.416 322.762 169.96C321.322 170.504 319.69 170.776 317.866 170.776ZM317.866 169.912C318.73 169.912 319.402 169.432 319.882 168.472C320.362 167.48 320.602 165.704 320.602 163.144C320.602 160.584 320.362 158.824 319.882 157.864C319.402 156.872 318.73 156.376 317.866 156.376C317.034 156.376 316.362 156.872 315.85 157.864C315.37 158.824 315.13 160.584 315.13 163.144C315.13 165.704 315.37 167.48 315.85 168.472C316.362 169.432 317.034 169.912 317.866 169.912ZM325.354 159.64L324.394 159.304C324.874 158.056 325.642 157.016 326.698 156.184C327.786 155.352 328.954 154.936 330.202 154.936C331.226 154.936 331.994 155.224 332.506 155.8C333.05 156.344 333.322 157.064 333.322 157.96C333.322 158.92 333.066 159.64 332.554 160.12C332.042 160.568 331.466 160.792 330.826 160.792C330.282 160.792 329.77 160.6 329.29 160.216C328.842 159.832 328.586 159.256 328.522 158.488C328.458 157.688 328.73 156.664 329.338 155.416L329.674 155.704C328.458 156.152 327.546 156.68 326.938 157.288C326.33 157.864 325.802 158.648 325.354 159.64Z" fill="black"/>
</svg>
