<svg width="402" height="322" viewBox="0 0 402 322" fill="none" xmlns="http://www.w3.org/2000/svg">
<path d="M401 1H1V321H401V1Z" fill="#EFE9DD" stroke="#4C4A33" stroke-width="2" stroke-miterlimit="10"/>
<path d="M332.211 234.783C302.851 242.283 282.811 252.493 258.611 264.853C202.941 293.373 201.161 314.433 173.841 314.043C143.141 313.593 119.771 286.763 111.291 277.003C89.6913 252.133 98.7613 241.663 74.3313 201.623C54.4813 169.163 43.9113 168.633 31.8913 139.483C25.1613 123.263 16.8113 103.183 22.7713 81.7726C30.1313 55.2626 55.2913 41.5226 73.2413 32.1026C140.231 -3.15738 235.691 -4.20739 251.371 30.0926C260.031 48.8326 240.131 68.3126 253.421 87.0526C261.651 98.6326 276.361 101.223 296.901 104.553C344.111 112.103 361.261 96.4626 378.091 109.833C391.701 120.693 392.761 140.733 393.871 161.913C394.731 178.553 395.911 201.763 381.691 217.253C370.761 229.133 358.531 228.073 332.251 234.783L332.151 234.843L332.211 234.773V234.783Z" fill="#4C4A33"/>
<path d="M159.182 141.403V142.923C157.422 143.349 155.502 144.176 153.422 145.403C151.342 146.576 149.128 148.496 146.782 151.163L131.982 168.443L137.502 160.923L156.462 191.563C157.208 192.736 157.955 193.696 158.702 194.443C159.502 195.189 160.542 195.856 161.822 196.443V198.043C159.742 197.936 157.502 197.883 155.102 197.883C152.702 197.829 150.462 197.803 148.382 197.803C147.208 197.803 145.768 197.829 144.062 197.883C142.355 197.883 140.195 197.936 137.582 198.043V196.443C139.928 196.336 141.315 196.043 141.742 195.563C142.168 195.083 141.982 194.176 141.182 192.843L129.502 173.643C128.862 172.523 128.275 171.696 127.742 171.163C127.262 170.629 126.782 170.256 126.302 170.043C125.822 169.776 125.182 169.616 124.382 169.563V167.963C126.728 167.856 128.888 167.136 130.862 165.803C132.835 164.469 135.075 162.336 137.582 159.403L141.342 155.003C143.475 152.549 144.648 150.443 144.862 148.683C145.128 146.923 144.675 145.536 143.502 144.523C142.382 143.509 140.782 142.976 138.702 142.923V141.403C140.088 141.456 141.422 141.509 142.702 141.563C143.982 141.563 145.288 141.589 146.622 141.643C148.008 141.643 149.582 141.643 151.342 141.643C152.995 141.643 154.462 141.616 155.742 141.563C157.022 141.509 158.168 141.456 159.182 141.403ZM130.702 141.403V143.003C129.048 143.056 127.795 143.269 126.942 143.643C126.088 143.963 125.528 144.603 125.262 145.563C124.995 146.469 124.862 147.909 124.862 149.883V189.563C124.862 191.483 124.995 192.923 125.262 193.883C125.582 194.843 126.142 195.483 126.942 195.803C127.795 196.123 129.048 196.336 130.702 196.443V198.043C129.208 197.936 127.288 197.883 124.942 197.883C122.648 197.829 120.328 197.803 117.982 197.803C115.262 197.803 112.702 197.829 110.302 197.883C107.902 197.883 105.982 197.936 104.542 198.043V196.443C106.195 196.336 107.422 196.123 108.222 195.803C109.075 195.483 109.635 194.843 109.902 193.883C110.222 192.923 110.382 191.483 110.382 189.563V149.883C110.382 147.909 110.222 146.469 109.902 145.563C109.635 144.603 109.075 143.963 108.222 143.643C107.422 143.269 106.195 143.056 104.542 143.003V141.403C105.982 141.456 107.902 141.509 110.302 141.563C112.702 141.616 115.262 141.643 117.982 141.643C120.328 141.643 122.648 141.616 124.942 141.563C127.288 141.509 129.208 141.456 130.702 141.403ZM190.165 140.283C196.031 140.283 201.151 141.429 205.525 143.723C209.898 146.016 213.285 149.323 215.685 153.643C218.138 157.909 219.365 163.109 219.365 169.243C219.365 175.216 218.111 180.443 215.605 184.923C213.151 189.403 209.711 192.896 205.285 195.403C200.858 197.909 195.791 199.163 190.085 199.163C184.271 199.163 179.151 198.016 174.725 195.723C170.351 193.429 166.938 190.123 164.485 185.803C162.085 181.483 160.885 176.283 160.885 170.203C160.885 164.229 162.138 159.003 164.645 154.523C167.205 150.043 170.671 146.549 175.045 144.043C179.418 141.536 184.458 140.283 190.165 140.283ZM189.845 141.723C187.018 141.723 184.565 142.923 182.485 145.323C180.405 147.723 178.778 151.029 177.605 155.243C176.485 159.456 175.925 164.336 175.925 169.883C175.925 175.536 176.565 180.469 177.845 184.683C179.178 188.843 180.938 192.069 183.125 194.363C185.311 196.603 187.738 197.723 190.405 197.723C193.231 197.723 195.685 196.523 197.765 194.123C199.898 191.723 201.525 188.416 202.645 184.203C203.765 179.936 204.325 175.056 204.325 169.563C204.325 163.856 203.685 158.923 202.405 154.763C201.125 150.603 199.365 147.403 197.125 145.163C194.938 142.869 192.511 141.723 189.845 141.723ZM250.065 141.403C260.945 141.403 268.999 143.803 274.225 148.603C279.505 153.349 282.145 160.176 282.145 169.083C282.145 174.896 280.839 179.989 278.225 184.363C275.665 188.683 271.932 192.043 267.025 194.443C262.119 196.843 256.225 198.043 249.345 198.043C248.492 198.043 247.372 198.016 245.985 197.963C244.599 197.909 243.132 197.883 241.585 197.883C240.092 197.829 238.732 197.803 237.505 197.803C234.999 197.803 232.545 197.829 230.145 197.883C227.745 197.883 225.825 197.936 224.385 198.043V196.443C226.039 196.336 227.265 196.123 228.065 195.803C228.919 195.483 229.479 194.843 229.745 193.883C230.065 192.923 230.225 191.483 230.225 189.563V149.883C230.225 147.909 230.065 146.469 229.745 145.563C229.479 144.603 228.919 143.963 228.065 143.643C227.265 143.269 226.039 143.056 224.385 143.003V141.403C225.825 141.456 227.745 141.536 230.145 141.643C232.545 141.696 234.945 141.696 237.345 141.643C239.265 141.589 241.452 141.536 243.905 141.483C246.359 141.429 248.412 141.403 250.065 141.403ZM250.625 142.843C248.172 142.843 246.572 143.296 245.825 144.203C245.079 145.109 244.705 146.949 244.705 149.723V189.723C244.705 192.496 245.079 194.336 245.825 195.243C246.625 196.149 248.252 196.603 250.705 196.603C254.759 196.603 257.985 195.563 260.385 193.483C262.785 191.349 264.492 188.256 265.505 184.203C266.572 180.149 267.105 175.216 267.105 169.403C267.105 163.429 266.545 158.496 265.425 154.603C264.305 150.656 262.519 147.723 260.065 145.803C257.665 143.829 254.519 142.843 250.625 142.843ZM330.88 141.403C330.666 143.909 330.506 146.336 330.4 148.683C330.346 151.029 330.32 152.816 330.32 154.043C330.32 155.109 330.346 156.149 330.4 157.163C330.453 158.176 330.506 159.003 330.56 159.643H328.72C328.133 155.483 327.173 152.203 325.84 149.803C324.56 147.403 322.96 145.723 321.04 144.763C319.173 143.749 317.093 143.243 314.8 143.243H312.64C311.2 143.243 310.08 143.376 309.28 143.643C308.533 143.856 308.026 144.336 307.76 145.083C307.546 145.829 307.44 147.003 307.44 148.603V190.843C307.44 192.389 307.546 193.563 307.76 194.363C308.026 195.109 308.533 195.616 309.28 195.883C310.08 196.096 311.2 196.203 312.64 196.203H315.92C318 196.203 319.973 195.669 321.84 194.603C323.76 193.483 325.466 191.616 326.96 189.003C328.453 186.336 329.573 182.736 330.32 178.203H332.16C332 180.016 331.92 182.363 331.92 185.243C331.92 186.523 331.946 188.336 332 190.683C332.053 193.029 332.213 195.483 332.48 198.043C329.76 197.936 326.693 197.883 323.28 197.883C319.866 197.829 316.826 197.803 314.16 197.803C312.773 197.803 311.013 197.803 308.88 197.803C306.746 197.803 304.426 197.829 301.92 197.883C299.413 197.883 296.88 197.909 294.32 197.963C291.76 197.963 289.36 197.989 287.12 198.043V196.443C288.773 196.336 290 196.123 290.8 195.803C291.653 195.483 292.213 194.843 292.48 193.883C292.8 192.923 292.96 191.483 292.96 189.563V149.883C292.96 147.909 292.8 146.469 292.48 145.563C292.213 144.603 291.653 143.963 290.8 143.643C290 143.269 288.773 143.056 287.12 143.003V141.403C289.413 141.456 291.813 141.509 294.32 141.563C296.88 141.563 299.386 141.589 301.84 141.643C304.346 141.643 306.666 141.643 308.8 141.643C310.986 141.643 312.773 141.643 314.16 141.643C316.613 141.643 319.386 141.643 322.48 141.643C325.626 141.589 328.426 141.509 330.88 141.403ZM318.8 168.763C318.8 168.763 318.8 169.029 318.8 169.563C318.8 170.096 318.8 170.363 318.8 170.363H305.04C305.04 170.363 305.04 170.096 305.04 169.563C305.04 169.029 305.04 168.763 305.04 168.763H318.8ZM321.12 158.203C320.906 161.243 320.8 163.563 320.8 165.163C320.853 166.763 320.88 168.229 320.88 169.563C320.88 170.896 320.906 172.363 320.96 173.963C321.013 175.563 321.146 177.883 321.36 180.923H319.52C319.253 179.003 318.693 177.243 317.84 175.643C316.986 174.043 315.84 172.763 314.4 171.803C312.96 170.843 311.2 170.363 309.12 170.363V168.763C310.666 168.763 312.026 168.443 313.2 167.803C314.373 167.109 315.36 166.229 316.16 165.163C317.013 164.096 317.706 162.949 318.24 161.723C318.773 160.496 319.12 159.323 319.28 158.203H321.12Z" fill="#EFE9DD"/>
<path d="M56.5415 127.183C83.0915 112.573 99.9415 97.6827 120.292 79.6627C167.062 38.1327 163.521 17.2927 190.071 10.8427C219.901 3.60269 249.241 23.7427 259.891 31.0627C287.021 49.7427 280.861 62.1427 314.521 94.8127C341.861 121.273 352.221 119.153 371.151 144.373C381.721 158.393 394.831 175.743 394.411 197.963C393.911 225.463 372.981 245.063 357.961 258.673C301.911 309.563 209.742 334.443 185.992 305.153C172.922 289.173 187.321 265.333 169.761 250.523C158.901 241.373 144.001 242.533 123.281 244.443C75.6815 248.933 62.9915 268.373 43.3515 259.633C27.4515 252.513 21.4215 233.373 15.0615 213.153C10.0715 197.253 3.12149 175.083 13.0215 156.523C20.6315 142.293 32.7415 140.253 56.5015 127.183L56.5815 127.103L56.5415 127.183Z" stroke="#A9BA9F" stroke-width="2" stroke-miterlimit="10"/>
</svg>
