<svg width="400" height="320" viewBox="0 0 400 320" fill="none" xmlns="http://www.w3.org/2000/svg">
<g clip-path="url(#clip0_70_172)">
<rect width="400" height="320" fill="#353535"/>
<rect x="29" y="59" width="330" height="200" rx="30" fill="#81A66D"/>
<rect x="42" y="70" width="328" height="198" rx="29" stroke="#494C2C" stroke-width="2"/>
<rect width="400" height="320" fill="#EDEADA"/>
<rect x="16" y="23" width="330" height="225" rx="30" fill="#A4BE9C"/>
<rect x="36.5" y="35.5" width="327" height="222" rx="28.5" stroke="#494C2C" stroke-width="3"/>
<path d="M318.712 129.647C344.232 140.195 328.294 237.361 317.746 262.881C307.198 288.401 277.959 300.538 252.438 289.99C226.918 279.442 150.551 223.655 161.099 198.135C171.647 172.615 293.192 119.099 318.712 129.647Z" fill="#494C2C"/>
<path d="M310.139 116.033C312.908 117.178 315.226 119.539 317.107 123.06C318.991 126.586 320.384 131.177 321.333 136.585C323.232 147.401 323.311 161.192 322.259 175.54C320.152 204.258 313.549 234.753 308.36 247.308C298.128 272.063 269.766 283.836 245.011 273.604C232.462 268.417 207.132 251.949 186.234 233.551C175.794 224.361 166.547 214.762 160.575 205.93C157.589 201.514 155.462 197.349 154.392 193.568C153.324 189.794 153.333 186.495 154.485 183.708C155.67 180.842 158.511 177.399 162.848 173.555C167.151 169.741 172.793 165.645 179.392 161.45C192.587 153.061 209.495 144.343 226.892 136.74C244.289 129.136 262.128 122.669 277.179 118.761C284.707 116.807 291.501 115.503 297.175 115.009C302.896 114.511 307.29 114.856 310.139 116.033Z" stroke="#EDEADA" stroke-width="3"/>
<path d="M268.92 178.688V179.968C267.469 180.011 266.36 180.224 265.592 180.608C264.867 180.992 264.376 181.611 264.12 182.464C263.864 183.317 263.736 184.533 263.736 186.112V205.376C263.736 208.363 263.544 210.965 263.16 213.184C262.776 215.403 262.093 217.323 261.112 218.944C260.045 220.736 258.488 222.187 256.44 223.296C254.392 224.363 252.045 224.896 249.4 224.896C247.352 224.896 245.389 224.64 243.512 224.128C241.677 223.659 240.056 222.763 238.648 221.44C237.411 220.245 236.429 218.987 235.704 217.664C235.021 216.341 234.552 214.72 234.296 212.8C234.04 210.88 233.912 208.469 233.912 205.568V185.472C233.912 183.893 233.784 182.741 233.528 182.016C233.272 181.248 232.76 180.736 231.992 180.48C231.267 180.181 230.179 180.011 228.728 179.968V178.688C229.624 178.731 230.797 178.773 232.248 178.816C233.699 178.859 235.256 178.88 236.92 178.88C238.413 178.88 239.885 178.859 241.336 178.816C242.829 178.773 244.067 178.731 245.048 178.688V179.968C243.597 180.011 242.488 180.181 241.72 180.48C240.995 180.736 240.504 181.248 240.248 182.016C239.992 182.741 239.864 183.893 239.864 185.472V206.656C239.864 208.832 239.971 210.901 240.184 212.864C240.397 214.784 240.824 216.491 241.464 217.984C242.147 219.435 243.171 220.587 244.536 221.44C245.901 222.251 247.715 222.656 249.976 222.656C253.219 222.656 255.715 221.952 257.464 220.544C259.256 219.093 260.493 217.109 261.176 214.592C261.901 212.075 262.264 209.237 262.264 206.08V186.112C262.264 184.533 262.072 183.317 261.688 182.464C261.347 181.611 260.749 180.992 259.896 180.608C259.043 180.224 257.891 180.011 256.44 179.968V178.688C257.208 178.731 258.211 178.773 259.448 178.816C260.728 178.859 261.901 178.88 262.968 178.88C264.077 178.88 265.165 178.859 266.232 178.816C267.341 178.773 268.237 178.731 268.92 178.688ZM289.633 178.688V179.968C288.182 180.011 287.073 180.181 286.305 180.48C285.58 180.736 285.089 181.248 284.833 182.016C284.577 182.741 284.449 183.893 284.449 185.472V217.216C284.449 218.752 284.577 219.904 284.833 220.672C285.089 221.44 285.58 221.952 286.305 222.208C287.073 222.464 288.182 222.635 289.633 222.72V224C288.652 223.915 287.414 223.872 285.921 223.872C284.47 223.829 282.998 223.808 281.505 223.808C279.841 223.808 278.284 223.829 276.833 223.872C275.382 223.872 274.209 223.915 273.313 224V222.72C274.764 222.635 275.852 222.464 276.577 222.208C277.345 221.952 277.857 221.44 278.113 220.672C278.369 219.904 278.497 218.752 278.497 217.216V185.472C278.497 183.893 278.369 182.741 278.113 182.016C277.857 181.248 277.345 180.736 276.577 180.48C275.852 180.181 274.764 180.011 273.313 179.968V178.688C274.209 178.731 275.382 178.773 276.833 178.816C278.284 178.859 279.841 178.88 281.505 178.88C282.998 178.88 284.47 178.859 285.921 178.816C287.414 178.773 288.652 178.731 289.633 178.688Z" fill="#EDEADA"/>
</g>
<defs>
<clipPath id="clip0_70_172">
<rect width="400" height="320" fill="white"/>
</clipPath>
</defs>
</svg>
