<svg xmlns="http://www.w3.org/2000/svg" fill="#a9ba9f" viewBox="0 0 232 228.73"><path d="m116.16 228.73-22.96-1.98c-5.28-.41-9.91-2.65-14.55-4.9-2.47-1.2-5.02-2.3-7.33-3.76-3.19-2.03-6.22-4.34-9.26-6.6-.58-.43-1-1.15-1.36-1.8-1.03-1.86-.73-3.01 1-4.22.38-.27.79-.52 1.08-.87 3.4-4.19 7.06-8.21 10.1-12.66 3.08-4.51 4.35-9.87 5.32-15.2.48-2.64.65-5.36.74-8.05l.91-29.89c.27-5.24.31-10.51 1.3-15.73 1.1-5.76 3.36-10.95 6.37-15.89 2.97-4.89 7.07-8.71 11.5-12.21a10.99 10.99 0 0 1 2.96-1.68c4.4-1.65 8.88-3.15 13.6-3.41 4.34-.24 8.61.41 12.57 2.38 4.46 2.21 8.45 5.1 12.12 8.46 3.4 3.12 5.61 7.06 7.63 11.12 1.09 2.19 1.94 4.5 2.95 6.73 1.39 3.06 1.85 6.31 1.96 9.62l.53 15.45 1.58 24.01c.41 4.91.52 9.9 2.22 14.62.82 2.26 1.68 4.51 2.7 6.69 1.32 2.83 2.85 5.56 4.23 8.36 1.23 2.5 2.86 4.67 4.92 6.55 2.81 2.56 2.92 5.33.34 8.15-2.26 2.46-4.91 4.41-7.86 5.92-2.67 1.37-5.37 2.71-8.15 3.81-1.91.76-4.04.92-5.97 1.64-7.76 2.93-15.92 3.8-24.06 4.75-2.33.27-1.32.29-3.68.29-.01.19-3.43.13-3.44.32zm-.14-4.71c4.11-.34 7.12-.48 10.08-.86 6.62-.86 13.25-1.68 19.55-4.12 1.65-.64 3.33-1.3 5.05-1.66 3.85-.81 7.16-2.76 10.48-4.67 1.38-.79 2.6-1.87 3.8-2.94 1.33-1.19 1.3-1.83.11-3.21-.72-.83-1.63-1.55-2.15-2.48-2.73-4.85-5.5-9.69-7.98-14.67-3.31-6.67-4.25-13.92-4.66-21.27l-1.52-23.77c-.28-5.02-.32-10.05-.55-15.07-.08-1.89-.07-3.87-.61-5.65-1.72-5.59-3.92-11.03-7.32-15.82-4.02-5.65-9.6-9.45-15.93-12.13-1.37-.58-2.93-.85-4.42-1.02-5.71-.62-11.07.85-16.31 2.9-.55.21-1.09.5-1.55.86-3.44 2.75-6.8 5.55-9.33 9.24-3.51 5.12-6.3 10.53-7.05 16.77-.42 3.51-.56 7.06-.85 10.59-.14 1.68-.44 3.36-.5 5.04l-.7 23.94c0 6.59-.56 13.03-2.14 19.46-1.04 4.24-2.72 8.12-5.16 11.6-2.84 4.03-6.1 7.76-9.22 11.59-1.01 1.24-1.12 1.54.01 2.65 1.02 1 2.04 2.08 3.26 2.79 3.1 1.81 6.39 3.29 9.45 5.15 4.62 2.8 9.72 4.23 14.93 4.91 7.4.97 14.88 1.31 21.25 1.84zm101.59-30.99c-6.69.34-12.59-1.82-18.43-4.47-4.74-2.15-8.85-5.01-11.76-9.33-2.43-3.6-4.61-7.38-6.89-11.08-.2-.32-.33-.69-.43-1.05-.39-1.36 0-2.5.98-2.98 1.01-.49 2.13-.14 2.95 1.03.53.76.95 1.6 1.45 2.38 2.19 3.41 4.3 6.88 6.63 10.19 1.8 2.56 4.27 4.43 7.15 5.72l6.48 2.88c4.48 2 9.22 2.37 14.04 2.13 1.06-.05 2.14-.44 3.16-.8.67-.24.93-.84.25-1.37-4.46-3.46-7.27-8.16-9.82-13.06-2.69-5.17-5.54-10.26-8.02-15.53-1.21-2.57-1.88-5.42-2.55-8.2-1.2-5.01-2.12-10.08-3.31-15.09-2.15-9.04-4.51-18.04-5.88-27.25-.35-2.33-.38-4.7-.68-7.04-.19-1.45-.56-2.89-.95-4.31-.22-.81-.67-1.55-.94-2.35-2.2-6.64-7.22-10.71-13.02-13.88-1.81-.99-4.12-1.12-6.24-1.47-6.31-1.04-12.08.68-17.45 3.86-2.54 1.5-4.89 3.3-7.34 4.95-.63.42-1.26.87-1.96 1.14-1.05.42-2.04.19-2.68-.8-.62-.96-.4-1.96.39-2.65 1.71-1.5 3.43-3.02 5.32-4.29 4.19-2.83 8.63-5.24 13.62-6.29 8.75-1.84 17.01-.95 24.1 5.08 1.96 1.66 3.96 3.35 5.54 5.35 3.29 4.13 5.19 8.99 6.08 14.17.53 3.06.53 6.22 1 9.29 1.49 9.62 4.1 18.99 6.32 28.45.98 4.15 1.69 8.36 2.63 12.52 1.34 5.91 3.61 11.42 7.19 16.35.44.61.84 1.27 1.13 1.97 1.95 4.77 4.43 9.21 7.82 13.11 1.61 1.85 3.51 3.26 6.01 3.75 1.56.31 2.39 1.16 2.48 2.34.11 1.45-.79 2.22-1.96 2.81-1.13.57-2.26 1.15-3.34 1.8-2.86 1.7-5.92 2.44-9.08 2.03zm-202.74-5.29c11.84-.16 20.43-6.31 27.72-14.81 1.86-2.17 3.33-4.67 5.01-7 .47-.65.96-1.3 1.54-1.83.74-.67 1.65-.88 2.57-.32.93.57 1.09 1.48.87 2.45-.12.52-.37 1.04-.65 1.5-4.04 6.51-8.79 12.32-15.03 16.96-8.77 6.51-18.44 8.69-29.09 7.02-1.86-.29-3.67-.98-5.49-1.53-1.15-.35-2.09-.98-2.3-2.27-.21-1.31.61-2.11 1.5-2.88 2.74-2.38 5.66-4.59 8.12-7.22 2.67-2.85 4.98-6.05 7.29-9.22.76-1.05 1.28-2.01 2.06-3.1.64-.89 1.21-2.44 1.7-3.36 2.86-5.36 4-11.12 4.85-17.19.25-1.75.63-3.49 1.03-5.22l4.51-19.07c1.17-5.36 1.88-10.83 3.19-16.16 1.03-4.21 1.86-8.2 3.36-12.28 1.24-3.36 3.03-6.97 5.5-9.69 2.03-2.24 4.25-4.33 6.55-6.29.88-.75 2.19-1.1 3.36-1.35a133.95 133.95 0 0 1 8.24-1.47c5.6-.82 11.06.2 16.1 2.42 3.78 1.66 7.4 3.91 10.34 6.98.49.51 1.1 1.09 1.22 1.73.14.74.05 1.82-.41 2.28-.46.45-1.69.67-2.25.37-1.31-.71-2.42-1.8-3.63-2.71-5.93-4.52-12.47-7.27-20.08-6.55-2.73.26-5.45.75-8.12 1.38-1.2.29-2.37 1.05-3.36 1.83-1.44 1.15-2.86 2.39-4.02 3.82-1.08 1.32-1.96 2.86-2.68 4.42-4.26 9.29-6.77 19.08-8.27 29.17-.57 3.8-1.48 7.54-2.3 11.3-1.36 6.22-2.58 12.48-4.21 18.63-1.16 4.35-2.86 8.56-4.4 12.81-.8 2.22-1.74 4.4-2.69 6.56-1.58 3.59-3.78 6.78-6.48 9.62l-7.75 8.17c-.76.8-.63 1.37.51 1.53 2 .28 4.03.4 6.04.59zM141.41 54.71c.22 6.48-2.11 12.06-6.02 17.07-1.57 2.01-3.63 3.44-5.95 4.42-2.95 1.25-5.89 2.69-8.98 3.45-8.01 1.97-15.76 1.32-21.74-4.95-3.13-3.28-5.74-7.27-7.74-11.36-2.41-4.91-2.45-10.29-.39-15.51.65-1.65 1.36-3.28 2.06-4.91 1.97-4.65 5.25-8.19 9.65-10.55 4.35-2.34 8.79-4.58 13.9-4.79.88-.04 1.81-.15 2.63.09 4.22 1.23 8.38 2.6 12.18 4.92 3.1 1.89 5.42 4.42 6.84 7.75.86 2.02 1.82 4.03 2.37 6.14.7 2.67 1.03 5.44 1.52 8.17l-.33.06zm-4.63-1.7c.21-2.5-1.13-5.44-2.16-8.48-1.47-4.3-4.17-7.3-8.26-9.26-5.94-2.84-11.86-4.31-18.01-.69-.29.17-.62.28-.93.39-9.06 3.13-14.16 14.23-13.3 22.54.18 1.75.82 3.56 1.67 5.11 1.38 2.51 3.02 4.9 4.74 7.19 1 1.33 2.2 2.65 3.61 3.49 5.12 3.06 10.61 3.42 16.22 1.56 2.32-.77 4.56-1.79 6.83-2.71 2.13-.86 3.93-2.19 5.26-4.05 3.05-4.26 4.54-9.02 4.34-15.1zM114.45 0c7.1-.04 14.12.32 21.03 2.07 2.74.69 5.54 1.17 8.26 1.95 7.08 2.04 11.81 6.77 14.92 13.3 1.37 2.87 1.83 5.9 1.49 9.01-.13 1.24-.69 2.49-1.31 3.6-.49.88-1.52 1.06-2.48.65-.93-.39-1.28-1.22-1.19-2.18.1-1.01.38-2 .43-3 .23-4.81-1.9-8.63-5.09-12.01-3.08-3.27-6.89-5.02-11.3-5.74-4.7-.77-9.37-1.78-14.06-2.64-.87-.16-1.77-.18-2.65-.18-7.73.04-15.47-.31-23.17.58-.82.1-1.65.34-2.42.66-1.33.54-2.57 1.31-3.92 1.78-3.37 1.16-5.96 3.39-8.63 5.63-2.95 2.48-4.36 5.71-5.54 9.18-.61 1.79-.5 3.44.37 5.13.47.91.73 1.97.88 3 .15 1.07-.41 1.91-1.46 2.25-1.03.33-1.87-.14-2.39-.99-2.01-3.35-3.44-6.81-1.79-10.79.57-1.36 1.04-2.77 1.55-4.15 1.57-4.27 4.97-6.99 8.38-9.61 1.95-1.49 4.26-2.52 6.44-3.7 1.29-.71 2.61-1.39 3.98-1.94 1.08-.44 2.23-.89 3.37-.97L114.46 0zM46.29 195.64c-1.64 0-2.58-.37-2.92-1.59-.3-1.05.26-2.05 1.52-2.58l6.7-2.68c5.5-1.93 8.85-5.97 11.13-11.11.32-.72.72-1.44 1.21-2.06.6-.77 1.56-1.13 2.36-.59.6.41 1.04 1.25 1.24 1.99.15.54-.11 1.25-.35 1.82-2.61 6.38-6.61 11.45-13.29 13.98-1.74.66-3.42 1.46-5.15 2.12-.94.36-1.93.55-2.46.7zm142.12.67-2.31-.55c-7.42-2.29-13.47-6.37-17.36-13.29-.54-.96-1.17-1.86-1.72-2.81-.91-1.57-.81-2.88.26-3.64 1.05-.74 2.32-.39 3.47 1.08a19.1 19.1 0 0 1 1.74 2.64c3.32 6.14 8.6 9.7 15.14 11.65.8.24 1.62.51 2.34.92.9.52 1.43 1.37 1.09 2.46-.35 1.12-1.26 1.52-2.65 1.54zm-83.08-73.25c4.23-.05 6.89 1.61 9 4.33 1.14 1.47 1.31 1.45 2.85.37 1.65-1.16 3.28-2.41 5.07-3.33 4.1-2.11 7.79-.65 11.06 1.92 2.98 2.34 3.35 5.74 2.81 9.23-.51 3.36-2.12 6.24-4.42 8.69l-10.01 10.4c-1.11 1.16-2.15 2.38-3.25 3.55-1.91 2.02-3.33 1.92-5.19-.12-1.22-1.34-2.58-2.55-4-3.69-3.7-2.97-6.49-6.75-9.46-10.38l-2.5-3.03c-2.76-3.37-3.77-7.04-1.85-11.18 2.08-4.49 5.7-6.62 9.89-6.78z" opacity=".29"/></svg>