<svg xmlns="http://www.w3.org/2000/svg" viewBox="0 0 228.11 244.42"><path fill="#a9ba9f" d="m219.43 30.11 5.67-14.53a3.96 3.96 0 0 0-.06-3.06 3.965 3.965 0 0 0-2.21-2.12l-3.47-1.35a4.01 4.01 0 0 0-5.18 2.27l-5.62 14.42-12.52-5.03 5.42-13.9a3.96 3.96 0 0 0-.06-3.06 3.965 3.965 0 0 0-2.21-2.12L195.72.28a4.01 4.01 0 0 0-5.18 2.27l-5.37 13.78-9.31-3.74-5.92 14.73c-2.74 6.82-2.66 14.29.22 21.05 2.56 6.01 7.08 10.81 12.84 13.72-11.36 27.19-23.87 48.13-37.43 62.7-1.65 1.44-3.2 2.99-4.61 4.67a86.236 86.236 0 0 1-4.34 3.9c4.77-6.7 7.72-14.65 7.85-22.95.08-5.36-1.02-10.69-3.24-15.56-2.25-4.94-6.11-8.88-8.52-13.73-2.69-5.41-3.71-11.52-4.78-17.41-.24-1.33-1.86-2.08-3.08-1.75a1.99 1.99 0 0 0-.34.13c-.04.01-.08.03-.12.05-.01 0-.03.01-.04.02-.41.18-.8.47-1.11.92-3.73 5.48-7.46 11.26-8.97 17.8-1.42 6.15-.48 12.17 2.11 17.86 2.35 5.17 5.81 9.71 8.69 14.57 2.75 4.64 5.11 9.67 4.51 15.2-.64 5.83-4.03 11.75-8.87 15.09a2.71 2.71 0 0 0-.47.42c-3.51 1.65-7.08 2.95-10.7 3.87-13.61 3.47-25.51 1.37-37.03-.66-12.45-2.2-24.3-4.28-36.24 1.39l.18-.33A34.75 34.75 0 0 0 40.23 133c.08-5.36-1.02-10.69-3.24-15.56-2.25-4.94-6.11-8.88-8.52-13.73-2.69-5.41-3.71-11.52-4.78-17.41-.24-1.33-1.86-2.08-3.08-1.75-.12.03-.23.08-.34.13-.04.01-.08.03-.12.05-.01 0-.03.01-.04.02-.41.18-.8.47-1.11.92-3.62 5.32-7.21 10.89-8.82 17.19-1.55 6.08-.8 12.12 1.67 17.83 2.16 4.98 5.39 9.37 8.22 13.97 2.76 4.48 5.76 9.69 5.19 15.15-.45 4.27-2.5 8.21-4.88 11.92-12.49 16-19.34 42.83-20.38 80.12a2.502 2.502 0 0 0 2.43 2.57h.07a2.5 2.5 0 0 0 2.5-2.43c.69-24.57 3.88-44.36 9.54-59.24 8.95-1.81 17.26 2.6 25.13 6.83 8.54 4.58 17.53 9.11 27.51 7.36 7.19-1.26 13.68-5.57 18.92-10.47 1.04-.97.93-2.19.29-3.08a2.4 2.4 0 0 0-2.08-1.31c-10.85-.6-19.95-7.72-29.35-12.39-8.87-4.42-19.7-4.75-28.99-1.39a37.64 37.64 0 0 0-5.87 2.71l.09-.15c.08-.09.16-.18.23-.28l3.66-5.48c3.01-3.88 6.36-7.07 10.06-9.52 11.94-7.91 23.77-5.82 37.48-3.4 11.47 2.02 24.48 4.32 39.13.58 9.99-2.55 19.55-7.64 28.66-15.26 1.72-.91 3.48-1.72 5.25-2.4 2.63-1.02 5.41-1.9 8.22-2.21 2.75-.3 5.48.04 8.15.67 6.11 1.46 11.77 4.31 17.82 6 6.22 1.73 12.55 1.82 18.54-.78 6.6-2.86 11.66-8.33 16.34-13.62.65-.73.77-1.57.56-2.31-.12-1.13-.91-2.14-2.38-2.07-5.45.26-11.03.58-16.4-.54-5.43-1.13-10.17-4.18-15.54-5.47-7.22-1.74-14.52-.8-21.22 1.89 10.32-13.82 19.95-31.37 28.83-52.61l.23.09c3.17 1.27 6.44 1.88 9.67 1.88 10.31 0 20.09-6.17 24.17-16.31l6.47-16.11-8.68-3.49zm-1.53-17.34 3.47 1.35-5.55 14.24-3.47-1.35 5.55-14.24zM14.45 107.06c.59-4.96 2.85-9.49 5.5-13.74.66 3.17 1.46 6.3 2.63 9.32.99 2.55 2.19 4.97 3.69 7.25 1.4 2.12 2.97 4.13 4.34 6.29 5.12 8.09 6.16 18.81 2.42 27.68-.76 1.8-1.69 3.53-2.73 5.19.06-1.55-.05-3.11-.39-4.65-.61-2.83-1.84-5.58-3.17-8.13-4.84-9.3-13.63-17.9-12.29-29.21zm25.43 64.01c4.66.11 9.15 1.2 13.29 3.31 4.73 2.41 9.25 5.21 13.99 7.59 3.67 1.84 7.47 3.37 11.43 4.28-3.54 2.64-7.5 4.75-11.82 5.69-4.3.93-8.56.32-12.8-1.12-8.64-2.93-16.3-8.8-25.09-11.77-3.06-1.03-6.21-1.62-9.38-1.69 5.82-4.3 13.07-6.47 20.38-6.29zM194.25 4l3.47 1.35-5.4 13.86-3.46-1.39L194.25 4zm-75.64 81.29c.38-5.26 2.77-10.09 5.57-14.58.66 3.17 1.46 6.31 2.63 9.33.99 2.55 2.19 4.97 3.69 7.25 1.4 2.12 2.97 4.13 4.34 6.29 5.27 8.32 5.84 18.69 2.54 27.85-.73 2.01-1.65 3.95-2.72 5.8.03-.78.01-1.57-.05-2.35-.26-3.14-1.25-6.07-2.52-8.93-4.5-10.11-14.33-18.78-13.47-30.65zm46.32 34.49c4.61-1.18 9.51-1.28 14.14-.09 5.06 1.29 9.55 4.13 14.67 5.27 4.11.91 8.3 1.09 12.49 1.01-2.95 3.07-6.14 5.9-9.94 7.82-5.38 2.72-11.19 2.39-16.83.72-6.02-1.78-11.69-4.62-17.84-5.96-2.97-.64-6.03-.99-9.06-.64-1.27.15-2.52.38-3.75.66l.56-.6c4.54-3.87 10.03-6.79 15.57-8.2zM217 47.84c-4.32 10.75-16.58 15.98-27.33 11.66l-.19-.08 3.47-8.89c.49-1.29-.17-2.73-1.46-3.22a2.51 2.51 0 0 0-3.22 1.46l-3.39 8.66c-4.54-2.4-8.1-6.25-10.14-11.04a22.35 22.35 0 0 1-.18-17.22l4.05-10.09 42.99 17.28-4.61 11.47z" opacity=".29"/></svg>