<?xml version="1.0" encoding="UTF-8"?>
<svg id="Layer_1" data-name="Layer 1" xmlns="http://www.w3.org/2000/svg" viewBox="0 0 248.7 130.7">
  <defs>
    <style>
      .cls-1 {
        fill: #a9ba9f;
        opacity: .29;
        stroke: #a9ba9f;
        stroke-miterlimit: 10;
        stroke-width: 4px;
      }
    </style>
  </defs>
  <path class="cls-1" d="M246.7,126.23C246.7,57.73,191.82,2,124.35,2S2,57.73,2,126.23v2.47h126.57s.01,0,.02,0c.01,0,.02,0,.03,0h118.08v-2.47ZM42.44,40.85C63.06,20.42,91.03,7.62,121.88,6.97v97.73c-3.85,2.13-6.64,5.16-7.86,8.51L42.44,40.85ZM123.06,122.78c-2.54-1-4.19-2.65-4.66-4.63-1.02-4.37,3.95-9.42,10.84-11.03,5.21-1.22,37.3-4.01,62.28-6.02-23.29,9.24-53.31,20.93-58.52,22.14-3.56.83-7.09.66-9.94-.46ZM128.12,102.32c-.44.1-.87.23-1.3.35V6.97c30.85.65,58.82,13.45,79.44,33.87l-59.18,59.18c-9.24.9-16.54,1.73-18.95,2.3ZM39,44.4l74.82,75.63c.43,1.38,1.15,2.63,2.12,3.74H6.96c.61-30.68,12.69-58.55,32.04-79.37ZM146.7,123.77c21.1-7.8,59.68-23.27,61.77-24.1l14.91-5.98-16.01,1.23c-1.84.14-30.14,2.32-52.58,4.38l54.9-54.9c19.35,20.82,31.44,48.69,32.05,79.38h-95.03Z"/>
</svg>