<svg xmlns="http://www.w3.org/2000/svg" viewBox="0 0 229.25 212.34"><path fill="#a9ba9f" d="m201.12 88.99-4.4 3.14c-.84.69-1.49 1.62-2.13 2.51-.17.23-.12.91.08 1.07l4.03 2.98c1.2.93 2.42 1.86 3.46 2.95 1.43 1.49 2.71 3.12 4.02 4.71.29.35.45.8.67 1.2l-.23.24-3.28-2.13-5.67-4.35c-.64-.5-1.19-.59-1.64.23-.04.08-.11.17-.18.22-2.39 1.52-2.83 4.01-3.29 6.5-.16.85-.4 1.69-.74 2.52-.92-1.49-1.2-3.04-1.07-4.73.15-2.11.59-4.07 2.01-5.73.6-.7.06-1.13-.58-1.33l-5.38-1.64c-3.55-1.09-7.21-1.13-10.87-1.08-1.21.02-2.42.05-3.63-.02-3.62-.21-7.13.66-10.51 1.63-4.2 1.21-8.25 2.95-12.3 4.64-1.86.78-3.59 1.89-5.3 2.99-2.03 1.3-3.99 2.68-6.2 3.71-3.85 1.79-7.27 4.28-10.34 7.23-.55.53-1.15 1-1.77 1.44-3.46 2.46-6.54 5.32-9.42 8.44-3.55 3.84-7 7.78-11.13 11.06-2.48 1.96-4.61 4.36-6.94 6.51-1.73 1.59-3.78 2.9-5.24 4.7-2.63 3.24-5.73 5.96-8.69 8.83-1.8 1.74-3.8 3.28-5.73 4.88-2.23 1.84-4.56 3.56-6.71 5.49-3.07 2.76-5.96 5.71-9.03 8.47-2.22 2-4.61 3.8-6.89 5.73l-5.91 5.12-7.32 6.25-7.89 6.76c-3.77 3.17-7.41 6.5-11.51 9.27-.71.48-1.31 1.2-1.81 1.9-.87 1.23-1.45 1.33-2.65.48l-12.75-9.04c-1.9-1.38-3.69-2.91-5.5-4.41-1.11-.93-.96-2.82.27-3.6 2.29-1.44 4.34-3.27 6.68-4.6 5.84-3.29 11.23-7.23 16.67-11.11 2.92-2.08 5.69-4.39 8.63-6.45 3.17-2.23 6.49-4.24 9.7-6.42 3.15-2.14 6.26-4.36 9.36-6.57l21.05-15.03c3.01-2.13 6.1-4.16 9.16-6.22.31-.21.68-.35 1.01-.53 1.49-.8 2.03-2.16 1.84-3.83-.22-1.95-.21-3.92-.34-5.87-.06-.98-.3-1.96-.29-2.93.03-2.09.16-4.19.27-6.28.14-2.66.22-5.33.48-7.98.4-4.04.32-8.14 1.46-12.1.22-.75.13-1.59.29-2.36.35-1.68.78-3.34 1.14-5.02.21-.99.41-1.99.51-3 .16-1.51-.9-2.6-1.48-3.85-1.35-2.9-3.11-5.54-4.99-8.1-.05-.07-.06-.18-.14-.45.43.12.82.13 1.09.31 2.74 1.73 5.04 3.85 6.19 7.01.16.43.69.95 1.09.99.42.04 1.08-.32 1.32-.71.6-.95.94-2.07 1.53-3.03a24.38 24.38 0 0 1 2.32-3.2c.95-1.1 2.04-2.08 3.08-3.11.36-.36.72-.72 1.11-1.04 1.01-.82 2.07-1.58 3.05-2.44 1.31-1.14 1.52-2.54.97-4.15-.3-.87-.37-1.83-.45-2.76-.13-1.42-.37-2.86.22-4.23.32-.74.75-1.44 1.18-2.12.1-.17.42-.2.64-.29.08.25.25.5.24.75l-.23 6.64c-.01.32.02.64.06.95.23 1.8 1.16 2.25 2.57 1.13 1.98-1.57 4.31-2.46 6.6-3.38 2.71-1.09 5.46-2.13 8.41-2.42l1.16-.11c-.4.95-1.07 1.25-1.82 1.53-3.09 1.16-6.26 2.15-8.99 4.11-1.37.98-1.37 1.25-.61 2.73 1.36 2.65 3.37 4.68 5.81 6.32.24.16.41.44.61.67l-.18.31c-1.05-.3-2.24-.37-3.1-.95-1.49-1-2.78-2.28-4.11-3.51-.33-.3-.39-.87-.67-1.24-.3-.39-.68-.93-1.09-.98-.42-.06-.94.33-1.35.63-.49.36-.9.82-1.34 1.26-.7.69-1.44 1.35-2.07 2.1-2.63 3.1-5.34 6.15-7.29 9.76-1.42 2.63-2.67 5.32-3.56 8.19-.53 1.73-1.28 3.38-1.87 5.09-.82 2.35-.71 4.83-.82 7.27l-.26 7.04c-.04 1.36-.01 2.73-.05 4.09l-.24 6.19c-.03 1.68.24 3.39.04 5.04-.16 1.28.48 2.64-.42 3.87-.16.21.06.91.32 1.16s.92.43 1.17.27c.61-.39 1.18-.94 1.59-1.54.41-.61.84-1.02 1.52-1.34a7.56 7.56 0 0 0 2.22-1.58c1.29-1.35 2.33-2.93 4.07-3.81.3-.15.61-.41.76-.7.87-1.68 2.32-2.82 3.65-4.09 1.12-1.07 2.05-2.33 3.15-3.42l10.95-10.76 3.53-3.34c.33-.33.71-.73.81-1.15.43-1.96 1.97-3.14 3.08-4.62 2.48-3.3 5.03-6.56 7.38-9.96 2.13-3.08 4.1-6.28 6.03-9.49 1.64-2.72 3.08-5.56 4.68-8.29 1.41-2.41 2.94-4.75 4.4-7.13.45-.73.77-1.54 1.23-2.26l6.15-9.51c1.34-2.16 2.47-4.45 3.78-6.63.96-1.6 1.92-3.25 3.14-4.65 3.44-3.99 7.01-7.87 10.53-11.79.28-.31.62-.57.82-.93.8-1.45 1.52-2.93 2.33-4.38.93-1.66.71-3.44.71-5.21 0-.25-.04-.53.03-.75 1.02-3 .24-5.9-.52-8.79l-.13-.49c1.31.41 1.66 1.51 2.01 2.45.68 1.78 1.23 3.61 1.68 5.46.3 1.24.34 2.55.44 3.83.05.66-.12 1.4.75 1.65.83.24 1.28-.26 1.83-.84.67-.72 1.56-1.24 2.4-1.77 3.62-2.27 7.57-3.56 11.82-4.01.88-.09 1.72-.45 2.6-.56.55-.07 1.13.06 1.69.17.94.18 1.38-.14 1.7-1.05.7-2 1.46-3.97 2.23-5.94.11-.28.34-.54.57-.75l4.02-3.63c.14-.13.43-.09.65-.12 0 .28.1.65-.04.83-.83 1.08-1.71 2.12-2.59 3.16-1.06 1.25-1.8 2.61-1.79 4.31 0 .3-.15.61-.25.91-.38 1.05.12 1.78 1.22 1.8 1.42.02 2.85 0 4.27.07.66.03 1.34.4 1.95.29 1.47-.26 2.75.57 4.13.56 2.09-.01 4.03.61 6 1.12.06.02.14.02.18.06.97 1.01 2.06 1.82 3.62 1.82-.04.14-.09.27-.13.41-.36-.05-.75-.03-1.08-.16-1.32-.51-2.64-.82-4.09-.71-.88.06-1.79-.3-2.69-.35-1.69-.11-3.36-.34-5.04-.47-1.73-.14-2.35.76-2.98 2.33-.84 2.06-.15 3.85.49 5.71.27.78.6 1.54.83 2.34.19.67.28 1.38.41 2.06-.09.04-.19.08-.28.11-.17-.11-.36-.2-.49-.34-1.46-1.62-2.77-3.32-3.04-5.6-.1-.85-.4-1.67-.56-2.51-.07-.38.03-.79 0-1.18-.05-.5 0-1.17-.29-1.45-.3-.29-.98-.31-1.46-.26-.9.1-1.79.34-2.68.55-1.26.29-2.54.54-3.77.92-1.96.61-3.97 1.16-5.82 2.03-2.46 1.17-4.8 2.6-7.17 3.96-.99.57-1.98 1.16-2.91 1.82-3.98 2.84-7.46 6.22-10.68 9.89-1.57 1.79-3.29 3.48-4.64 5.43-1.6 2.32-2.87 4.87-4.28 7.32l-4.45 7.78c-1.85 3.37-3.43 6.89-5.48 10.13-1.64 2.6-2.84 5.39-4.14 8.13-2.07 4.35-4.58 8.42-7.11 12.5-.62 1-1.03 2.12-1.65 3.12l-6.08 9.57-3.07 4.9c.08.07.15.14.23.21l3.29-1.73c4.46-2.31 8.9-4.67 13.62-6.43 1.76-.65 3.6-1.06 5.36-1.71 2.14-.8 4.22-1.75 6.34-2.63.29-.12.6-.19.91-.28.42-.14.98-.15 1.25-.43 1.37-1.44 3.7-1.9 4.25-4.18.06-.25.34-.45.5-.69 1.29-1.86 2.09-3.9 2.24-6.18.01-.19-.04-.46.06-.55.26-.23.58-.46.9-.51.12-.02.44.48.45.75.03 2.73-.61 5.31-1.73 7.79-.48 1.05-.82 2.17-1.16 3.28-.04.14.24.52.44.59.8.27 1.62.52 2.46.64.8.12 1.73.32 2.41.03 2-.86 3.91-.39 5.86.03 1.11.24 2.25.42 3.33.77.94.31 1.93.69 2.7 1.29 1.48 1.15 2.14 1.11 3.36-.3.58-.67 1.37-1.18 2.13-1.67 1.77-1.14 3.84-1.46 5.83-1.98.35-.09.74 0 1.24 0z" opacity=".29"/></svg>