<svg xmlns="http://www.w3.org/2000/svg" xmlns:xlink="http://www.w3.org/1999/xlink" width="327" height="112" fill="none"><style>.B{fill:#000}.C{shape-rendering:crispEdges}.D{color-interpolation-filters:sRGB}.E{flood-opacity:0}.F{fill:#ebebeb}</style><rect width="161" height="86" y="21" fill="#d9d9d9" rx="20"/><g class="C" filter="url(#A)"><rect width="35.552" height="19.425" x="9.417" y="26.01" fill="url(#H)" rx="9.712"/></g><g class="C" filter="url(#B)"><rect width="16.459" height="16.746" x="27.193" y="27.349" fill="#6e6e6e" fill-opacity=".5" rx="8.23"/></g><g class="C" filter="url(#C)"><rect width="142.865" height="19.425" x="8.429" y="76.247" fill="url(#I)" rx="9.712"/></g><g class="C" filter="url(#D)"><rect width="142.865" height="19.425" x="8.429" y="52.133" fill="url(#J)" rx="9.712"/></g><path d="m144.905 65.508-1.923-1.956a.46.46 0 0 0-.328-.137h-.314a4.11 4.11 0 0 0 .848-2.512c0-2.255-1.795-4.081-4.012-4.081s-4.012 1.827-4.012 4.081 1.796 4.081 4.012 4.081a3.95 3.95 0 0 0 2.469-.863v.32a.48.48 0 0 0 .135.334l1.923 1.956a.456.456 0 0 0 .654 0l.546-.555a.48.48 0 0 0 .002-.667zm-5.729-2.094c-1.364 0-2.469-1.122-2.469-2.512s1.104-2.512 2.469-2.512 2.469 1.122 2.469 2.512-1.103 2.512-2.469 2.512z" class="B"/><g class="C" filter="url(#E)"><rect width="19.093" height="19.425" x="55.634" y="26.01" fill="url(#K)" rx="9.546"/></g><path d="M69.403 35.854c0 2.314-1.558 3.961-3.858 3.961-2.205 0-3.986-1.812-3.986-4.056s1.781-4.056 3.986-4.056a3.8 3.8 0 0 1 2.673 1.061l-1.085 1.061c-1.419-1.393-4.059-.347-4.059 1.933 0 1.415 1.111 2.561 2.47 2.561 1.578 0 2.17-1.151 2.263-1.748h-2.263v-1.395h3.795c.037.208.063.407.063.677z" class="B"/><g class="C" filter="url(#F)"><rect width="19.093" height="19.425" x="84" y="26" fill="url(#L)" rx="9.546"/></g><path d="M90.584 40.066v-7.588a.78.78 0 0 1 .772-.785h4.629c.426 0 .772.351.772.785v7.588l-3.086-1.832-3.086 1.832z" class="B"/><g class="C" filter="url(#G)"><rect width="19.093" height="19.425" x="113.796" y="26.01" fill="url(#M)" rx="9.546"/></g><path d="M128.609 35.753c0-2.792-2.21-5.054-4.938-5.054s-4.937 2.262-4.937 5.054c0 2.523 1.805 4.614 4.166 4.993v-3.532h-1.254v-1.461h1.254v-1.114c0-1.267.737-1.966 1.865-1.966a7.43 7.43 0 0 1 1.105.099v1.243h-.623c-.613 0-.804.39-.804.789v.949h1.369l-.219 1.461h-1.15v3.532c2.36-.38 4.166-2.471 4.166-4.993z" class="B"/><rect width="35.552" height="19.425" x="184.988" y="26" class="F" rx="9.712"/><rect width="16.459" height="16.746" x="202.763" y="27.34" fill="#343232" fill-opacity=".5" rx="8.23"/><g class="F"><rect width="142.865" height="19.425" x="184" y="76.237" rx="9.712"/><rect width="142.865" height="19.425" x="184" y="52.123" rx="9.712"/></g><path d="m320.476 65.498-1.923-1.956a.46.46 0 0 0-.328-.137h-.315a4.104 4.104 0 0 0 .849-2.512c0-2.254-1.796-4.081-4.012-4.081s-4.012 1.827-4.012 4.081 1.795 4.081 4.012 4.081a3.95 3.95 0 0 0 2.469-.863v.32c0 .126.048.245.135.334l1.923 1.956a.456.456 0 0 0 .654 0l.546-.555a.48.48 0 0 0 .002-.667zm-5.729-2.094c-1.364 0-2.469-1.122-2.469-2.512s1.103-2.512 2.469-2.512 2.469 1.122 2.469 2.512-1.104 2.512-2.469 2.512z" class="B"/><rect width="19.093" height="19.425" x="231.204" y="26" class="F" rx="9.546"/><path d="M244.973 35.844c0 2.314-1.557 3.961-3.857 3.961-2.206 0-3.987-1.812-3.987-4.056s1.781-4.055 3.987-4.055a3.8 3.8 0 0 1 2.673 1.061l-1.085 1.061c-1.42-1.393-4.059-.347-4.059 1.933 0 1.415 1.111 2.561 2.471 2.561 1.578 0 2.169-1.151 2.263-1.748h-2.263v-1.395h3.794a3.61 3.61 0 0 1 .063.677z" class="B"/><rect width="19.093" height="19.425" x="261" y="26" class="F" rx="9.546"/><path d="M267.584 40.066v-7.588c0-.433.345-.785.771-.785h4.629a.78.78 0 0 1 .772.785v7.588l-3.086-1.832-3.086 1.832z" class="B"/><rect width="19.093" height="19.425" x="289.366" y="26" class="F" rx="9.546"/><path d="M304.18 35.743c0-2.792-2.21-5.054-4.938-5.054s-4.938 2.262-4.938 5.054c0 2.523 1.806 4.614 4.167 4.993v-3.532h-1.255v-1.461h1.255v-1.114c0-1.267.736-1.966 1.865-1.966a7.43 7.43 0 0 1 1.105.099v1.243h-.623c-.613 0-.804.39-.804.789v.949h1.369l-.219 1.461h-1.15v3.532c2.36-.379 4.166-2.47 4.166-4.993z" class="B"/><path fill="#8f8e8e" d="M194.735 89.951a4.97 4.97 0 0 1-.566.112 3.82 3.82 0 0 1-.542.044c-.557 0-.98-.15-1.27-.449s-.434-.78-.434-1.44v-2.9h-.62v-.772h.62v-1.567h.918v1.567h1.894v.772h-1.894v2.485l.019.674c.013.159.059.309.137.449.072.13.169.226.293.288s.319.088.576.088c.15 0 .306-.021.469-.064l.352-.112h.048v.825zm5.679-2.583h-4.018c0 .335.05.628.151.879s.239.451.415.61a1.65 1.65 0 0 0 .6.352c.235.078.492.117.772.117.371 0 .744-.073 1.118-.22s.646-.296.806-.439h.049v1.001a7.59 7.59 0 0 1-.948.327 3.83 3.83 0 0 1-1.015.132c-.905 0-1.612-.244-2.119-.733s-.762-1.188-.762-2.09c0-.892.242-1.6.727-2.124s1.13-.786 1.924-.786c.736 0 1.302.215 1.699.645s.601 1.04.601 1.831v.498zm-.893-.703c-.004-.482-.126-.855-.367-1.118s-.6-.395-1.089-.395-.883.145-1.176.434a1.69 1.69 0 0 0-.493 1.079h3.125zM206.757 90h-1.211l-2.188-2.388-.595.566V90h-.918v-7.598h.918v4.873l2.651-2.73h1.157l-2.534 2.519 2.72 2.935zm4.863-1.572c0 .498-.207.907-.62 1.226s-.972.478-1.685.478a4.14 4.14 0 0 1-1.113-.142 5.143 5.143 0 0 1-.845-.317v-1.03h.049a3.74 3.74 0 0 0 .967.522c.355.127.695.191 1.021.191.403 0 .719-.065.947-.195s.342-.335.342-.615c0-.215-.062-.378-.186-.488s-.361-.205-.713-.283l-.513-.102-.571-.127c-.478-.127-.818-.312-1.02-.557s-.298-.55-.298-.908a1.49 1.49 0 0 1 .137-.635c.094-.198.236-.376.424-.532.183-.153.414-.273.694-.361a3.08 3.08 0 0 1 .947-.137 4.13 4.13 0 0 1 .986.122c.336.078.614.174.835.288v.981h-.049c-.234-.173-.519-.317-.854-.435s-.664-.181-.986-.181c-.336 0-.619.065-.85.195s-.347.317-.347.571c0 .225.07.394.21.508s.358.207.664.278l.567.117.527.107c.427.098.755.265.986.503s.347.56.347.957zm4.151 1.523a4.865 4.865 0 0 1-.567.112 3.81 3.81 0 0 1-.542.044c-.557 0-.98-.15-1.269-.449s-.435-.78-.435-1.44v-2.9h-.62v-.772h.62v-1.567h.918v1.567h1.895v.772h-1.895v2.485l.02.674c.013.159.058.309.136.449.072.13.169.226.293.288s.319.088.576.088c.15 0 .306-.021.469-.064l.352-.112h.049v.825zm-196.036 0a4.846 4.846 0 0 1-.566.112 3.81 3.81 0 0 1-.542.044c-.557 0-.98-.15-1.27-.449s-.434-.78-.434-1.44v-2.9h-.62v-.772h.62v-1.567h.918v1.567h1.895v.772h-1.895v2.485l.02.674c.013.159.059.309.137.449.072.13.169.226.293.288s.319.088.576.088c.15 0 .306-.021.469-.064l.351-.112h.049v.825zm5.679-2.583h-4.019c0 .335.051.628.151.879a1.65 1.65 0 0 0 .415.61c.169.156.369.273.601.352a2.39 2.39 0 0 0 .771.117 3.05 3.05 0 0 0 1.118-.22c.378-.15.646-.296.806-.439h.049v1.001a7.62 7.62 0 0 1-.947.327 3.84 3.84 0 0 1-1.016.132c-.905 0-1.611-.244-2.119-.733s-.762-1.188-.762-2.09c0-.892.242-1.6.727-2.124s1.13-.786 1.924-.786c.736 0 1.302.215 1.699.645s.601 1.04.601 1.831v.498zm-.894-.703c-.003-.482-.125-.855-.366-1.118s-.601-.395-1.089-.395-.884.145-1.177.434-.454.65-.493 1.079h3.125zM31.757 90h-1.211l-2.187-2.388-.596.566V90h-.918v-7.598h.918v4.873l2.651-2.73h1.157l-2.534 2.519L31.757 90zm4.863-1.572a1.48 1.48 0 0 1-.62 1.226c-.41.319-.972.478-1.685.478-.404 0-.775-.047-1.113-.142a5.1 5.1 0 0 1-.845-.317v-1.03h.049a3.74 3.74 0 0 0 .967.522c.355.127.695.191 1.021.191.404 0 .719-.065.947-.195s.342-.335.342-.615c0-.215-.062-.378-.185-.488s-.361-.205-.713-.283l-.513-.102-.571-.127c-.479-.127-.819-.312-1.021-.557s-.298-.55-.298-.908c0-.225.046-.436.137-.635a1.56 1.56 0 0 1 .425-.532 1.99 1.99 0 0 1 .693-.361 3.08 3.08 0 0 1 .947-.137 4.15 4.15 0 0 1 .986.122c.332.081.614.174.835.288v.981h-.049a3.23 3.23 0 0 0-.854-.435 2.916 2.916 0 0 0-.986-.181c-.335 0-.618.065-.85.195s-.347.317-.347.571c0 .225.07.394.21.508s.358.207.664.278l.566.117.527.107c.426.098.755.265.986.503s.347.56.347.957zm4.15 1.523a4.805 4.805 0 0 1-.566.112 3.9 3.9 0 0 1-.542.044c-.557 0-.98-.15-1.27-.449s-.435-.78-.435-1.44v-2.9h-.62v-.772h.62v-1.567h.918v1.567h1.895v.772h-1.895v2.485l.02.674c.013.159.059.309.137.449.072.13.169.226.293.288s.319.088.576.088c.15 0 .306-.021.469-.064l.352-.112h.049v.825z"/><path fill="#fff" d="M182.822 13V3.545h3.785c.696 0 1.276.103 1.741.309s.814.492 1.048.859.35.782.35 1.256c0 .369-.073.694-.221.974a1.91 1.91 0 0 1-.61.683 2.5 2.5 0 0 1-.877.374v.092a2.12 2.12 0 0 1 1.011.305c.317.188.574.451.771.789s.296.736.296 1.2c0 .502-.125.949-.374 1.343s-.611.7-1.094.928-1.079.342-1.787.342h-4.039zm1.999-1.634h1.629c.557 0 .964-.106 1.219-.319s.383-.502.383-.859c0-.262-.063-.492-.189-.693s-.306-.357-.54-.471-.506-.171-.827-.171h-1.675v2.511zm0-3.864h1.482a1.77 1.77 0 0 0 .729-.143 1.21 1.21 0 0 0 .508-.415c.123-.178.189-.392.189-.642 0-.342-.122-.617-.365-.826s-.581-.314-1.025-.314h-1.518v2.341zM191.38 13V5.909h1.906v1.237h.074c.129-.44.346-.772.651-.997a1.71 1.71 0 0 1 1.052-.342c.099 0 .205.006.319.018a2.23 2.23 0 0 1 .3.051v1.745a2.56 2.56 0 0 0-.383-.074 3.355 3.355 0 0 0-.448-.032 1.57 1.57 0 0 0-.775.189 1.39 1.39 0 0 0-.536.517 1.496 1.496 0 0 0-.194.766V13h-1.966zm9.866-3.019V5.909h1.967V13h-1.888v-1.288h-.074a2.1 2.1 0 0 1-.799 1.002c-.372.253-.82.378-1.353.378-.474 0-.891-.108-1.251-.323a2.22 2.22 0 0 1-.844-.919c-.2-.397-.302-.873-.305-1.427V5.909h1.966v4.164c.004.418.116.749.337.992s.519.365.891.365a1.41 1.41 0 0 0 .665-.162 1.27 1.27 0 0 0 .499-.489c.129-.216.192-.482.189-.799zm6.734 5.826c-.637 0-1.183-.088-1.638-.263s-.813-.408-1.081-.706-.441-.634-.521-1.006l1.819-.245a1.18 1.18 0 0 0 .263.397 1.28 1.28 0 0 0 .475.296c.197.074.443.115.73.115.427 0 .78-.105 1.057-.314s.42-.553.42-1.039v-1.297h-.083a1.88 1.88 0 0 1-.388.559 1.95 1.95 0 0 1-.665.429 2.551 2.551 0 0 1-.969.166 2.91 2.91 0 0 1-1.454-.369c-.437-.246-.781-.629-1.039-1.14s-.383-1.163-.383-1.948c0-.803.13-1.474.392-2.013s.609-.942 1.043-1.21.916-.402 1.436-.402c.397 0 .729.068.997.203s.483.299.647.499.293.391.383.582h.074V5.909h1.952v7.16c0 .603-.147 1.108-.443 1.514s-.705.711-1.228.914-1.119.309-1.796.309zm.042-4.386c.317 0 .585-.079.803-.236s.391-.388.508-.683.18-.656.18-1.071a3.01 3.01 0 0 0-.175-1.08c-.117-.308-.287-.546-.508-.716s-.491-.254-.808-.254c-.323 0-.596.088-.817.263a1.57 1.57 0 0 0-.503.72 3.06 3.06 0 0 0-.171 1.066c0 .409.057.763.171 1.062s.284.525.503.688.494.24.817.24zM216.021 13V5.909h1.967V13h-1.967zm.988-8.005c-.292 0-.543-.097-.752-.291a.94.94 0 0 1-.31-.706.92.92 0 0 1 .31-.697 1.06 1.06 0 0 1 .752-.295c.292 0 .542.098.748.295s.314.426.314.697a.94.94 0 0 1-.314.706 1.045 1.045 0 0 1-.748.291zm11.463 2.936-1.801.111a.925.925 0 0 0-.198-.415 1.06 1.06 0 0 0-.402-.3 1.361 1.361 0 0 0-.586-.115c-.305 0-.562.065-.771.194s-.314.295-.314.508c0 .169.068.312.203.429s.368.211.697.282l1.284.259c.689.142 1.203.369 1.542.683s.507.726.507 1.237a1.93 1.93 0 0 1-.411 1.223c-.27.351-.643.625-1.117.822s-1.014.291-1.629.291c-.939 0-1.687-.195-2.244-.586a2.28 2.28 0 0 1-.974-1.606l1.934-.102c.059.286.2.505.425.656s.512.222.863.222c.345 0 .622-.066.831-.198s.32-.309.323-.522a.54.54 0 0 0-.226-.439c-.148-.117-.375-.206-.683-.268l-1.228-.245c-.692-.139-1.208-.379-1.547-.72s-.503-.777-.503-1.306c0-.456.123-.848.37-1.177s.598-.583 1.048-.762.981-.268 1.588-.268c.895 0 1.6.189 2.114.568a2.19 2.19 0 0 1 .905 1.547zm5.171-2.022v1.477h-4.27V5.909h4.27zm-3.3-1.699h1.966v6.611c0 .182.028.323.083.425s.133.168.231.208a.94.94 0 0 0 .351.06 1.68 1.68 0 0 0 .277-.023l.212-.041.31 1.463a5.462 5.462 0 0 1-.416.106 3.32 3.32 0 0 1-.651.078c-.474.018-.889-.045-1.246-.189a1.74 1.74 0 0 1-.827-.674c-.197-.305-.293-.689-.29-1.154V4.21zm7.737 8.928c-.73 0-1.357-.148-1.884-.443s-.926-.72-1.209-1.265-.425-1.196-.425-1.944c0-.729.142-1.37.425-1.92s.681-.98 1.195-1.288 1.124-.462 1.819-.462a3.7 3.7 0 0 1 1.307.226c.406.148.76.371 1.062.669s.541.674.711 1.126.253.976.253 1.579v.54h-5.987V8.739h4.136c0-.283-.061-.534-.184-.752a1.32 1.32 0 0 0-.513-.512 1.5 1.5 0 0 0-.752-.189 1.51 1.51 0 0 0-.794.208 1.456 1.456 0 0 0-.536.549 1.56 1.56 0 0 0-.198.762v1.159c0 .351.064.654.193.909s.319.452.559.591a1.68 1.68 0 0 0 .854.208 1.87 1.87 0 0 0 .6-.092 1.25 1.25 0 0 0 .467-.277 1.21 1.21 0 0 0 .295-.452l1.819.12a2.48 2.48 0 0 1-.568 1.145c-.286.326-.649.576-1.099.757s-.961.268-1.546.268zm7.151-.023c-.539 0-1.027-.138-1.464-.415s-.778-.691-1.034-1.233-.378-1.213-.378-2.004c0-.812.13-1.488.392-2.027s.609-.946 1.043-1.214a2.69 2.69 0 0 1 1.436-.406c.397 0 .728.068.993.203a1.97 1.97 0 0 1 .646.499 2.74 2.74 0 0 1 .379.582h.06V3.545h1.962V13h-1.939v-1.136h-.083a2.57 2.57 0 0 1-.393.586c-.169.194-.383.349-.651.476s-.588.189-.969.189zm.623-1.565c.317 0 .585-.086.803-.258s.391-.42.508-.734.18-.682.18-1.103-.058-.788-.175-1.099-.287-.551-.508-.72-.491-.254-.808-.254c-.323 0-.596.088-.817.263s-.389.419-.503.729a3.13 3.13 0 0 0-.171 1.08c0 .412.057.777.171 1.094s.284.56.503.739.494.263.817.263zm8.26 1.588c-.729 0-1.357-.148-1.884-.443s-.926-.72-1.209-1.265-.425-1.196-.425-1.944c0-.729.142-1.37.425-1.92a3.14 3.14 0 0 1 1.196-1.288c.517-.308 1.123-.462 1.819-.462a3.7 3.7 0 0 1 1.306.226c.406.148.76.371 1.062.669s.541.674.711 1.126.254.976.254 1.579v.54h-5.988V8.739h4.136c0-.283-.061-.534-.184-.752a1.32 1.32 0 0 0-.513-.512 1.46 1.46 0 0 0-.752-.189c-.299 0-.563.069-.794.208a1.46 1.46 0 0 0-.536.549 1.555 1.555 0 0 0-.198.762v1.159c0 .351.064.654.194.909a1.41 1.41 0 0 0 .558.591 1.68 1.68 0 0 0 .854.208 1.87 1.87 0 0 0 .6-.092 1.25 1.25 0 0 0 .467-.277 1.21 1.21 0 0 0 .295-.452l1.819.12a2.48 2.48 0 0 1-.568 1.145c-.286.326-.649.576-1.098.757s-.962.268-1.547.268zm8.31-7.229v1.477h-4.271V5.909h4.271zm-3.301-1.699h1.966v6.611c0 .182.028.323.084.425s.132.168.23.208a.94.94 0 0 0 .351.06 1.67 1.67 0 0 0 .277-.023l.213-.041.309 1.463a5.462 5.462 0 0 1-.416.106 3.57 3.57 0 0 1-.65.078c-.474.018-.89-.045-1.247-.189a1.72 1.72 0 0 1-.826-.674c-.197-.305-.294-.689-.291-1.154V4.21zm5.731 8.91a1.08 1.08 0 0 1-.785-.323 1.08 1.08 0 0 1-.323-.785 1.06 1.06 0 0 1 .323-.776 1.08 1.08 0 0 1 .785-.323 1.08 1.08 0 0 1 .776.323 1.04 1.04 0 0 1 .332.776 1.04 1.04 0 0 1-.157.559 1.19 1.19 0 0 1-.401.402 1.06 1.06 0 0 1-.55.148zm0-4.967a1.08 1.08 0 0 1-.785-.323 1.07 1.07 0 0 1-.323-.785 1.04 1.04 0 0 1 .323-.771 1.08 1.08 0 0 1 .785-.323 1.08 1.08 0 0 1 .776.323 1.03 1.03 0 0 1 .332.771c0 .206-.052.394-.157.563a1.15 1.15 0 0 1-.401.397 1.06 1.06 0 0 1-.55.148zM7.822 13V3.545h3.785c.696 0 1.276.103 1.74.309s.814.492 1.048.859.351.782.351 1.256c0 .369-.074.694-.221.974a1.88 1.88 0 0 1-.609.683c-.258.178-.548.3-.877.374v.092a2.12 2.12 0 0 1 1.011.305c.317.188.574.451.771.789s.296.736.296 1.2c0 .502-.125.949-.374 1.343s-.611.7-1.094.928-1.079.342-1.787.342h-4.04zm1.999-1.634h1.63c.557 0 .963-.106 1.219-.319s.383-.502.383-.859a1.27 1.27 0 0 0-.189-.693 1.285 1.285 0 0 0-.54-.471 1.85 1.85 0 0 0-.826-.171H9.821v2.511zm0-3.864h1.482c.274 0 .517-.048.729-.143a1.21 1.21 0 0 0 .508-.415c.123-.178.189-.392.189-.642 0-.342-.121-.617-.365-.826s-.582-.314-1.025-.314H9.821v2.341zM16.38 13V5.909h1.907v1.237h.074c.129-.44.346-.772.651-.997a1.71 1.71 0 0 1 1.053-.342 3.07 3.07 0 0 1 .319.018 2.24 2.24 0 0 1 .3.051v1.745a2.57 2.57 0 0 0-.383-.074 3.355 3.355 0 0 0-.448-.032c-.289 0-.548.063-.775.189a1.4 1.4 0 0 0-.536.517 1.458 1.458 0 0 0-.194.766V13H16.38zm9.867-3.019V5.909h1.967V13h-1.888v-1.288h-.074c-.16.415-.426.749-.799 1.002s-.82.378-1.353.378c-.474 0-.891-.108-1.251-.323a2.22 2.22 0 0 1-.845-.919c-.203-.397-.302-.873-.305-1.427V5.909h1.967v4.164c.003.418.115.749.337.992s.519.365.891.365a1.41 1.41 0 0 0 .665-.162 1.27 1.27 0 0 0 .499-.489c.129-.216.192-.482.189-.799zm6.734 5.826c-.637 0-1.183-.088-1.639-.263s-.812-.408-1.08-.706a2.17 2.17 0 0 1-.522-1.006l1.819-.245a1.19 1.19 0 0 0 .263.397 1.28 1.28 0 0 0 .476.296c.2.077.443.115.729.115.428 0 .78-.105 1.057-.314s.42-.553.42-1.039v-1.297h-.083a1.863 1.863 0 0 1-.388.559 1.94 1.94 0 0 1-.665.429c-.271.11-.594.166-.97.166a2.91 2.91 0 0 1-1.454-.369c-.434-.249-.78-.629-1.039-1.14s-.383-1.163-.383-1.948c0-.803.131-1.474.392-2.013s.609-.942 1.043-1.21.916-.402 1.436-.402c.397 0 .729.068.997.203a1.91 1.91 0 0 1 .646.499c.166.197.294.391.383.582h.074V5.909h1.953v7.16c0 .603-.148 1.108-.443 1.514s-.705.711-1.228.914-1.119.309-1.796.309zm.041-4.386a1.34 1.34 0 0 0 .803-.236c.222-.16.391-.388.508-.683s.18-.656.18-1.071a3.03 3.03 0 0 0-.175-1.08c-.116-.304-.286-.546-.508-.716s-.491-.254-.808-.254c-.323 0-.596.088-.817.263a1.58 1.58 0 0 0-.503.72 3.06 3.06 0 0 0-.171 1.066c0 .409.057.763.171 1.062a1.54 1.54 0 0 0 .503.688c.222.16.494.24.817.24zM41.021 13V5.909h1.967V13h-1.967zm.988-8.005c-.292 0-.543-.097-.752-.291s-.309-.432-.309-.706.103-.503.309-.697a1.06 1.06 0 0 1 .752-.295c.292 0 .542.098.748.295s.314.426.314.697a.94.94 0 0 1-.314.706 1.05 1.05 0 0 1-.748.291zm4.336 5.964L46.35 8.6h.286l2.271-2.691h2.258l-3.052 3.564h-.466l-1.302 1.486zM44.563 13V3.545h1.967V13h-1.967zm4.432 0-2.087-3.088 1.311-1.39L51.299 13h-2.304zm4.917-2.04.005-2.359h.286l2.271-2.691h2.258L55.68 9.473h-.466l-1.302 1.486zM52.13 13V3.545h1.967V13H52.13zm4.432 0-2.087-3.088 1.311-1.39L58.865 13h-2.304zm6.074.139c-.729 0-1.357-.148-1.883-.443s-.926-.72-1.21-1.265-.425-1.196-.425-1.944c0-.729.142-1.37.425-1.92a3.14 3.14 0 0 1 1.196-1.288c.517-.308 1.123-.462 1.819-.462a3.7 3.7 0 0 1 1.306.226 2.9 2.9 0 0 1 1.062.669c.305.299.542.674.711 1.126s.254.976.254 1.579v.54h-5.988V8.739h4.136c0-.283-.062-.534-.185-.752a1.32 1.32 0 0 0-.512-.512 1.46 1.46 0 0 0-.752-.189c-.299 0-.563.069-.794.208a1.46 1.46 0 0 0-.535.549 1.55 1.55 0 0 0-.198.762v1.159c0 .351.065.654.194.909a1.42 1.42 0 0 0 .559.591 1.68 1.68 0 0 0 .854.208c.218 0 .419-.031.6-.092a1.24 1.24 0 0 0 .466-.277c.129-.123.228-.274.296-.452l1.819.12a2.48 2.48 0 0 1-.568 1.145c-.286.326-.649.576-1.099.757s-.962.268-1.547.268zm5.687-.019a1.08 1.08 0 0 1-.785-.323c-.216-.219-.323-.48-.323-.785s.108-.56.323-.776a1.08 1.08 0 0 1 .785-.323 1.08 1.08 0 0 1 .776.323 1.04 1.04 0 0 1 .332.776 1.04 1.04 0 0 1-.157.559c-.102.166-.236.3-.402.402s-.349.148-.549.148zm0-4.967a1.08 1.08 0 0 1-.785-.323 1.066 1.066 0 0 1-.323-.785 1.04 1.04 0 0 1 .323-.771 1.08 1.08 0 0 1 .785-.323 1.08 1.08 0 0 1 .776.323 1.03 1.03 0 0 1 .332.771 1.05 1.05 0 0 1-.157.563 1.157 1.157 0 0 1-.402.397 1.06 1.06 0 0 1-.549.148z"/><defs><linearGradient xlink:href="#N" id="H" x1="9.417" x2="44.968" y1="35.722" y2="35.722"><stop stop-color="#7c7c7c" stop-opacity=".16"/><stop offset="1" stop-color="#e2e2e2" stop-opacity=".6"/></linearGradient><linearGradient id="N" gradientUnits="userSpaceOnUse"/><linearGradient xlink:href="#N" id="M" x1="113.796" x2="132.888" y1="35.722" y2="35.722"><stop stop-color="#7c7c7c" stop-opacity=".16"/><stop offset="1" stop-color="#e2e2e2" stop-opacity=".6"/></linearGradient><linearGradient xlink:href="#N" id="L" x1="84" x2="103.093" y1="35.712" y2="35.712"><stop stop-color="#7c7c7c" stop-opacity=".16"/><stop offset="1" stop-color="#e2e2e2" stop-opacity=".6"/></linearGradient><linearGradient xlink:href="#N" id="K" x1="55.634" x2="74.726" y1="35.722" y2="35.722"><stop stop-color="#7c7c7c" stop-opacity=".16"/><stop offset="1" stop-color="#e2e2e2" stop-opacity=".6"/></linearGradient><linearGradient xlink:href="#N" id="J" x1="8.429" x2="151.294" y1="61.845" y2="61.845"><stop stop-color="#7c7c7c" stop-opacity=".16"/><stop offset="1" stop-color="#e2e2e2" stop-opacity=".6"/></linearGradient><linearGradient xlink:href="#N" id="I" x1="8.429" x2="151.294" y1="85.959" y2="85.959"><stop stop-color="#7c7c7c" stop-opacity=".16"/><stop offset="1" stop-color="#e2e2e2" stop-opacity=".6"/></linearGradient><filter id="B" width="33.259" height="32.546" x="21.393" y="21.549" class="D" filterUnits="userSpaceOnUse"><feFlood class="E"/><feGaussianBlur stdDeviation="2.9"/><feComposite in2="SourceAlpha" operator="in" result="B"/><feColorMatrix in="SourceAlpha" result="C" values="0 0 0 0 0 0 0 0 0 0 0 0 0 0 0 0 0 0 127 0"/><feMorphology in="SourceAlpha" radius="3"/><feOffset dx="4" dy="3"/><feGaussianBlur stdDeviation="5"/><feComposite in2="C" operator="out"/><feColorMatrix values="0 0 0 0 0 0 0 0 0 0 0 0 0 0 0 0 0 0 0.5 0"/><feBlend in2="B"/><feBlend in="SourceGraphic" result="E"/><feColorMatrix in="SourceAlpha" result="C" values="0 0 0 0 0 0 0 0 0 0 0 0 0 0 0 0 0 0 127 0"/><feMorphology in="SourceAlpha" operator="dilate" radius="2" result="F"/><feOffset dx="-5" dy="-4"/><feGaussianBlur stdDeviation="2.85"/><feComposite in2="C" k2="-1" k3="1" operator="arithmetic"/><feColorMatrix values="0 0 0 0 0 0 0 0 0 0 0 0 0 0 0 0 0 0 0.25 0"/><feBlend in2="E" result="F"/><feColorMatrix in="SourceAlpha" result="C" values="0 0 0 0 0 0 0 0 0 0 0 0 0 0 0 0 0 0 127 0"/><feMorphology in="SourceAlpha" radius="1"/><feOffset dx="1" dy="1"/><feGaussianBlur stdDeviation="2.2"/><feComposite in2="C" k2="-1" k3="1" operator="arithmetic"/><feColorMatrix values="0 0 0 0 1 0 0 0 0 1 0 0 0 0 1 0 0 0 0.5 0"/><feBlend in2="F"/></filter><filter id="G" width="33.093" height="33.425" x="107.796" y="20.01" class="D" filterUnits="userSpaceOnUse"><feFlood class="E" result="A"/><feColorMatrix in="SourceAlpha" result="B" values="0 0 0 0 0 0 0 0 0 0 0 0 0 0 0 0 0 0 127 0"/><feMorphology in="SourceAlpha" radius="3"/><feOffset dx="1" dy="1"/><feGaussianBlur stdDeviation="5"/><feComposite in2="B" operator="out"/><feColorMatrix values="0 0 0 0 0 0 0 0 0 0 0 0 0 0 0 0 0 0 0.5 0"/><feBlend in2="A"/><feBlend in="SourceGraphic" result="D"/><feColorMatrix in="SourceAlpha" result="B" values="0 0 0 0 0 0 0 0 0 0 0 0 0 0 0 0 0 0 127 0"/><feMorphology in="SourceAlpha" operator="dilate" radius="2" result="E"/><feOffset dx="5" dy="4"/><feGaussianBlur stdDeviation="4.3"/><feComposite in2="B" k2="-1" k3="1" operator="arithmetic"/><feColorMatrix values="0 0 0 0 0 0 0 0 0 0 0 0 0 0 0 0 0 0 0.25 0"/><feBlend in2="D" result="E"/><feColorMatrix in="SourceAlpha" result="B" values="0 0 0 0 0 0 0 0 0 0 0 0 0 0 0 0 0 0 127 0"/><feMorphology in="SourceAlpha" radius="1"/><feOffset dx="-5" dy="-4"/><feGaussianBlur stdDeviation="2.4"/><feComposite in2="B" k2="-1" k3="1" operator="arithmetic"/><feColorMatrix values="0 0 0 0 1 0 0 0 0 1 0 0 0 0 1 0 0 0 0.5 0"/><feBlend in2="E"/></filter><filter id="F" width="33.093" height="33.425" x="78" y="20" class="D" filterUnits="userSpaceOnUse"><feFlood class="E" result="A"/><feColorMatrix in="SourceAlpha" result="B" values="0 0 0 0 0 0 0 0 0 0 0 0 0 0 0 0 0 0 127 0"/><feMorphology in="SourceAlpha" radius="3"/><feOffset dx="1" dy="1"/><feGaussianBlur stdDeviation="5"/><feComposite in2="B" operator="out"/><feColorMatrix values="0 0 0 0 0 0 0 0 0 0 0 0 0 0 0 0 0 0 0.5 0"/><feBlend in2="A"/><feBlend in="SourceGraphic" result="D"/><feColorMatrix in="SourceAlpha" result="B" values="0 0 0 0 0 0 0 0 0 0 0 0 0 0 0 0 0 0 127 0"/><feMorphology in="SourceAlpha" operator="dilate" radius="2" result="E"/><feOffset dx="5" dy="4"/><feGaussianBlur stdDeviation="4.3"/><feComposite in2="B" k2="-1" k3="1" operator="arithmetic"/><feColorMatrix values="0 0 0 0 0 0 0 0 0 0 0 0 0 0 0 0 0 0 0.25 0"/><feBlend in2="D" result="E"/><feColorMatrix in="SourceAlpha" result="B" values="0 0 0 0 0 0 0 0 0 0 0 0 0 0 0 0 0 0 127 0"/><feMorphology in="SourceAlpha" radius="1"/><feOffset dx="-5" dy="-4"/><feGaussianBlur stdDeviation="2.4"/><feComposite in2="B" k2="-1" k3="1" operator="arithmetic"/><feColorMatrix values="0 0 0 0 1 0 0 0 0 1 0 0 0 0 1 0 0 0 0.5 0"/><feBlend in2="E"/></filter><filter id="E" width="33.093" height="33.425" x="49.634" y="20.01" class="D" filterUnits="userSpaceOnUse"><feFlood class="E" result="A"/><feColorMatrix in="SourceAlpha" result="B" values="0 0 0 0 0 0 0 0 0 0 0 0 0 0 0 0 0 0 127 0"/><feMorphology in="SourceAlpha" radius="3"/><feOffset dx="1" dy="1"/><feGaussianBlur stdDeviation="5"/><feComposite in2="B" operator="out"/><feColorMatrix values="0 0 0 0 0 0 0 0 0 0 0 0 0 0 0 0 0 0 0.5 0"/><feBlend in2="A"/><feBlend in="SourceGraphic" result="D"/><feColorMatrix in="SourceAlpha" result="B" values="0 0 0 0 0 0 0 0 0 0 0 0 0 0 0 0 0 0 127 0"/><feMorphology in="SourceAlpha" operator="dilate" radius="2" result="E"/><feOffset dx="5" dy="4"/><feGaussianBlur stdDeviation="4.3"/><feComposite in2="B" k2="-1" k3="1" operator="arithmetic"/><feColorMatrix values="0 0 0 0 0 0 0 0 0 0 0 0 0 0 0 0 0 0 0.25 0"/><feBlend in2="D" result="E"/><feColorMatrix in="SourceAlpha" result="B" values="0 0 0 0 0 0 0 0 0 0 0 0 0 0 0 0 0 0 127 0"/><feMorphology in="SourceAlpha" radius="1"/><feOffset dx="-5" dy="-4"/><feGaussianBlur stdDeviation="2.4"/><feComposite in2="B" k2="-1" k3="1" operator="arithmetic"/><feColorMatrix values="0 0 0 0 1 0 0 0 0 1 0 0 0 0 1 0 0 0 0.5 0"/><feBlend in2="E"/></filter><filter id="D" width="156.865" height="33.425" x="2.429" y="46.133" class="D" filterUnits="userSpaceOnUse"><feFlood class="E" result="A"/><feColorMatrix in="SourceAlpha" result="B" values="0 0 0 0 0 0 0 0 0 0 0 0 0 0 0 0 0 0 127 0"/><feMorphology in="SourceAlpha" radius="3"/><feOffset dx="1" dy="1"/><feGaussianBlur stdDeviation="5"/><feComposite in2="B" operator="out"/><feColorMatrix values="0 0 0 0 0 0 0 0 0 0 0 0 0 0 0 0 0 0 0.5 0"/><feBlend in2="A"/><feBlend in="SourceGraphic" result="D"/><feColorMatrix in="SourceAlpha" result="B" values="0 0 0 0 0 0 0 0 0 0 0 0 0 0 0 0 0 0 127 0"/><feMorphology in="SourceAlpha" operator="dilate" radius="2" result="E"/><feOffset dx="5" dy="4"/><feGaussianBlur stdDeviation="4.3"/><feComposite in2="B" k2="-1" k3="1" operator="arithmetic"/><feColorMatrix values="0 0 0 0 0 0 0 0 0 0 0 0 0 0 0 0 0 0 0.25 0"/><feBlend in2="D" result="E"/><feColorMatrix in="SourceAlpha" result="B" values="0 0 0 0 0 0 0 0 0 0 0 0 0 0 0 0 0 0 127 0"/><feMorphology in="SourceAlpha" radius="1"/><feOffset dx="-5" dy="-4"/><feGaussianBlur stdDeviation="2.4"/><feComposite in2="B" k2="-1" k3="1" operator="arithmetic"/><feColorMatrix values="0 0 0 0 1 0 0 0 0 1 0 0 0 0 1 0 0 0 0.5 0"/><feBlend in2="E"/></filter><filter id="C" width="156.865" height="33.425" x="2.429" y="70.247" class="D" filterUnits="userSpaceOnUse"><feFlood class="E" result="A"/><feColorMatrix in="SourceAlpha" result="B" values="0 0 0 0 0 0 0 0 0 0 0 0 0 0 0 0 0 0 127 0"/><feMorphology in="SourceAlpha" radius="3"/><feOffset dx="1" dy="1"/><feGaussianBlur stdDeviation="5"/><feComposite in2="B" operator="out"/><feColorMatrix values="0 0 0 0 0 0 0 0 0 0 0 0 0 0 0 0 0 0 0.5 0"/><feBlend in2="A"/><feBlend in="SourceGraphic" result="D"/><feColorMatrix in="SourceAlpha" result="B" values="0 0 0 0 0 0 0 0 0 0 0 0 0 0 0 0 0 0 127 0"/><feMorphology in="SourceAlpha" operator="dilate" radius="2" result="E"/><feOffset dx="5" dy="4"/><feGaussianBlur stdDeviation="4.3"/><feComposite in2="B" k2="-1" k3="1" operator="arithmetic"/><feColorMatrix values="0 0 0 0 0 0 0 0 0 0 0 0 0 0 0 0 0 0 0.25 0"/><feBlend in2="D" result="E"/><feColorMatrix in="SourceAlpha" result="B" values="0 0 0 0 0 0 0 0 0 0 0 0 0 0 0 0 0 0 127 0"/><feMorphology in="SourceAlpha" radius="1"/><feOffset dx="-5" dy="-4"/><feGaussianBlur stdDeviation="2.4"/><feComposite in2="B" k2="-1" k3="1" operator="arithmetic"/><feColorMatrix values="0 0 0 0 1 0 0 0 0 1 0 0 0 0 1 0 0 0 0.5 0"/><feBlend in2="E"/></filter><filter id="A" width="49.552" height="33.425" x="3.417" y="20.01" class="D" filterUnits="userSpaceOnUse"><feFlood class="E" result="A"/><feColorMatrix in="SourceAlpha" result="B" values="0 0 0 0 0 0 0 0 0 0 0 0 0 0 0 0 0 0 127 0"/><feMorphology in="SourceAlpha" radius="3"/><feOffset dx="1" dy="1"/><feGaussianBlur stdDeviation="5"/><feComposite in2="B" operator="out"/><feColorMatrix values="0 0 0 0 0 0 0 0 0 0 0 0 0 0 0 0 0 0 0.5 0"/><feBlend in2="A"/><feBlend in="SourceGraphic" result="D"/><feColorMatrix in="SourceAlpha" result="B" values="0 0 0 0 0 0 0 0 0 0 0 0 0 0 0 0 0 0 127 0"/><feMorphology in="SourceAlpha" operator="dilate" radius="2" result="E"/><feOffset dx="5" dy="4"/><feGaussianBlur stdDeviation="4.3"/><feComposite in2="B" k2="-1" k3="1" operator="arithmetic"/><feColorMatrix values="0 0 0 0 0 0 0 0 0 0 0 0 0 0 0 0 0 0 0.25 0"/><feBlend in2="D" result="E"/><feColorMatrix in="SourceAlpha" result="B" values="0 0 0 0 0 0 0 0 0 0 0 0 0 0 0 0 0 0 127 0"/><feMorphology in="SourceAlpha" radius="1"/><feOffset dx="-5" dy="-4"/><feGaussianBlur stdDeviation="2.4"/><feComposite in2="B" k2="-1" k3="1" operator="arithmetic"/><feColorMatrix values="0 0 0 0 1 0 0 0 0 1 0 0 0 0 1 0 0 0 0.5 0"/><feBlend in2="E"/></filter></defs></svg>