<svg xmlns="http://www.w3.org/2000/svg" viewBox="0 0 260.92 244.2"><path fill="#a9ba9f" d="M243.44 121.08a5.5 5.5 0 0 0-5.5 5.5c0 58.79-48.22 106.61-107.48 106.62-51.46 0-95.06-35.83-105.24-84.83l12.97 11.49-.96-15.81-19.75-17.48L0 146.33l.96 15.81 12.89-14.58c10.03 55.61 58.81 96.63 116.58 96.64h.02c65.33-.01 118.47-52.77 118.47-117.62a5.5 5.5 0 0 0-5.5-5.5zm-225.96 2.04a5.5 5.5 0 0 0 5.5-5.5C22.98 58.83 71.19 11.01 130.46 11c51.46 0 95.05 35.83 105.24 84.83l-12.97-11.49.96 15.81 19.75 17.48 17.48-19.75-.96-15.81-12.89 14.58C237.04 41.03 188.25.02 130.48 0h-.02C65.12.01 11.98 52.77 11.98 117.62a5.5 5.5 0 0 0 5.5 5.5z" opacity=".29"/><path fill="#a9ba9f" stroke="#a9ba9f" stroke-miterlimit="10" stroke-width="3" d="M199.84 62.67c-1.35-.37-2.57.46-3.01 1.71-1.94 5.5-7.21 9.25-12.5 11.18-7.23 2.63-15 2.89-22.5 4.32-7.11 1.36-13.89 3.96-19.1 9.14-2.6 2.58-4.76 5.57-6.91 8.52-2.18 3-4.38 6.01-5.87 9.43-1.38 3.19-2.17 6.51-2.67 9.9-2.43-7.85-5.54-15.41-10.66-22.08-3.81-4.96-8.48-9.06-13.99-12.03-5.63-3.04-11.77-4.65-17.61-7.15-5.33-2.28-11.39-6.41-11.66-12.82-.13-3.14-5.02-3.15-4.89 0 .02.56.09 1.11.17 1.65-.02.12-.05.24-.06.37-1.02 12.91 1.7 26.95 11.47 36.17 4.73 4.47 10.68 6.93 16.73 9.09 6.08 2.18 12.2 4.35 17.56 8.06 2.59 1.79 5.04 3.88 7.21 6.17 2.12 2.24 3.93 4.79 4.66 7.82.09.39.25.71.46.96-1.44 18.08-1.33 36.27.37 54.33.12 1.31 1.04 2.45 2.45 2.45 1.23 0 2.57-1.12 2.45-2.45a313.07 313.07 0 0 1-.11-57.6c.01-.13 0-.25-.02-.37 1.34-4.87 3.03-9.79 6.03-13.87 3.86-5.25 10.35-6.43 16.35-7.75 7.65-1.68 15.38-3.34 22.88-5.61 3.4-1.03 6.79-2.37 9.67-4.49 2.74-2.02 5.02-4.5 6.92-7.33 4.7-7.01 6.39-15.44 7.95-23.58.08-.4.06-.81-.02-1.19.4-1.23-.53-2.63-1.72-2.96zm-79.11 54.25c-5.13-4.21-10.8-7.14-16.98-9.5-5.9-2.25-12.14-3.93-17.4-7.56-4.5-3.11-7.86-7.78-9.99-12.77-1.81-4.25-2.7-8.8-3-13.39 1.28 1.35 2.74 2.55 4.31 3.57 5.45 3.54 11.92 4.97 17.84 7.49 5.67 2.41 10.8 5.68 14.96 10.25 3.91 4.3 6.91 9.44 9.21 14.77 1.26 2.92 2.27 5.93 3.18 8.98-.7-.64-1.42-1.25-2.13-1.84zm69.61-30.46c-1.58 2.66-3.57 5.13-6.04 7.01-2.71 2.07-5.93 3.28-9.17 4.23-7.55 2.2-15.28 3.9-22.96 5.58-6.42 1.4-13.12 3.08-17.46 8.4-.77.94-1.45 1.94-2.09 2.97.31-1.42.7-2.83 1.2-4.22 1.23-3.41 3.34-6.41 5.44-9.32 2.04-2.82 4.07-5.66 6.5-8.17 10.65-11 27.19-7.78 40.44-12.87 3.13-1.2 6.1-2.86 8.64-4.97-1.03 3.97-2.38 7.83-4.49 11.37z" opacity=".29"/></svg>