<svg xmlns="http://www.w3.org/2000/svg" viewBox="0 0 253.28 246.06"><path fill="#a9ba9f" stroke="#a9ba9f" stroke-miterlimit="10" stroke-width="3" d="M248.38 5.7c-2.54-.7-4.82.86-5.65 3.21-3.64 10.32-13.53 17.38-23.48 20.99-13.58 4.94-28.18 5.43-42.26 8.12-13.35 2.55-26.08 7.43-35.86 17.17-4.87 4.85-8.95 10.46-12.99 16.01-4.1 5.63-8.23 11.3-11.02 17.72-2.6 5.99-4.08 12.23-5.01 18.58-4.57-14.74-10.4-28.94-20.03-41.46-7.15-9.31-15.92-17.01-26.27-22.59-10.57-5.7-22.1-8.74-33.08-13.44-10.01-4.28-21.4-12.03-21.89-24.08-.23-5.89-9.41-5.93-9.17 0 .04 1.05.16 2.08.32 3.1a5.5 5.5 0 0 0-.11.69c-1.92 24.25 3.2 50.61 21.53 67.94 8.89 8.4 20.06 13.01 31.41 17.07 11.43 4.09 22.91 8.17 32.97 15.13 4.87 3.36 9.47 7.28 13.54 11.58 3.98 4.2 7.38 8.99 8.74 14.68.18.73.47 1.33.86 1.81-2.71 33.96-2.5 68.12.7 102.04.23 2.47 1.94 4.59 4.59 4.59 2.3 0 4.83-2.11 4.59-4.59a588.63 588.63 0 0 1-.21-108.17c.02-.24 0-.47-.03-.69 2.51-9.15 5.7-18.38 11.33-26.04 7.26-9.86 19.45-12.08 30.7-14.55 14.36-3.15 28.89-6.27 42.97-10.54 6.38-1.93 12.75-4.46 18.15-8.44 5.15-3.79 9.43-8.46 12.99-13.76 8.83-13.16 12-28.99 14.94-44.29.15-.76.12-1.52-.05-2.24.75-2.32-.99-4.94-3.23-5.55zM99.81 107.58c-9.63-7.9-20.29-13.41-31.9-17.84-11.09-4.23-22.8-7.38-32.67-14.2-8.45-5.84-14.76-14.6-18.75-23.98-3.4-7.99-5.08-16.52-5.63-25.14 2.4 2.54 5.15 4.79 8.09 6.71 10.23 6.66 22.39 9.34 33.51 14.06 10.65 4.53 20.28 10.66 28.09 19.26 7.35 8.08 12.98 17.73 17.29 27.73 2.36 5.48 4.27 11.13 5.97 16.86-1.32-1.2-2.66-2.35-4.01-3.45zm130.73-57.21c-2.97 4.99-6.7 9.63-11.34 13.17-5.1 3.89-11.13 6.16-17.23 7.94-14.18 4.14-28.7 7.33-43.12 10.48-12.05 2.63-24.64 5.78-32.79 15.77-1.44 1.77-2.72 3.65-3.92 5.57.58-2.67 1.31-5.32 2.24-7.92 2.3-6.4 6.26-12.03 10.22-17.5 3.83-5.3 7.65-10.64 12.2-15.34 19.99-20.66 51.07-14.62 75.94-24.16 5.88-2.26 11.46-5.36 16.23-9.34-1.93 7.45-4.48 14.7-8.43 21.35z"/></svg>