<svg xmlns="http://www.w3.org/2000/svg" fill="#a9ba9f" viewBox="0 0 227.21 152.91"><path d="M.78 109.98c-.26-3.38-.69-6.77-.73-10.16-.04-3.74.33-7.49.41-11.24.09-4.23.11-8.46.05-12.68-.06-4.43-.4-8.85-.36-13.28.06-6.1 3.09-10.36 8.87-12.32 4.58-1.55 9.29-2.35 14.24-2.02 4.21.29 8.46-.15 12.69-.2l15.82-.07c3.84-.03 7.68 0 11.5-.21.95-.05 2.06-.73 2.74-1.45l12.21-13.17c2.87-3 5.91-5.84 8.91-8.71l11.38-10.81c1.17-1.11 1.87-2.44 2.24-4.01 1.22-5.28 6.17-10.32 13.21-9.57 1.31.14 2.64.26 3.9.6 4.61 1.23 6.85 4.72 8.16 8.95.41 1.33 1.1 2.27 2.1 3.22 1.85 1.75 3.5 3.72 5.24 5.6 3.77 4.07 7.42 8.27 11.35 12.19 4.79 4.77 9.46 9.64 13.67 14.93 1.78 2.24 3.83 3.46 6.73 3.28 3.07-.19 6.15-.23 9.22-.33 3.27-.1 6.57-.5 9.82-.21 2.93.26 5.81.19 8.72.02.67-.04 1.35.13 2.02.17l4.88.28c4.27.12 8.57-.09 12.79.41 3.34.4 6.63 1.59 9.49 3.49 3.95 2.62 5.43 6.68 5.08 11.14-.63 8.03-.53 16.04-.34 24.07.14 5.83.17 11.67.01 17.5-.09 3.3-.72 6.59-1 9.89-.18 2.07-.23 4.15-.21 6.22l.25 16.05c0 1.94-.18 3.92-.58 5.83-.85 4.11-3.53 6.59-7.68 7.17-3.56.49-7.13.93-10.72 1.18-2.06.14-4.14-.27-6.21-.22l-29.12.7c-2.43.05-4.87-.18-7.31-.18l-13.06.15-54.81.05-26.85.21c-8.43.03-16.86-.02-25.29-.03-2.9 0-5.79.13-8.72-.08-3.31-.24-6.69.34-10.04.51-4.97.25-9.87.05-14.75-1.22-6.87-1.79-10.56-8.18-10.71-13.95-.18-6.62.3-13.25.45-19.88.06-2.59 0-5.19 0-7.78h.28zm5.69-.03h-.28v7.9l-.25 9.58-.04 3.94c-.05 2.07-.28 4.15-.16 6.21.26 4.33 2.52 7.22 6.47 8.42 1.45.44 2.96.87 4.45.92 4.31.12 8.63.19 12.93 0 4.38-.2 8.7-.56 13.13-.37 9.37.4 18.77.18 28.16.15l20.98-.21 64.75-.24 19.04-.11 33.44-.6c2.43-.05 4.86-.34 7.28-.6 2.06-.22 3.18-1.51 3.55-3.5.11-.59.21-1.18.24-1.78.23-4.79.31-9.58-.63-14.33-.12-.62-.13-1.28-.09-1.91l.6-7.28c.41-4.37 1.12-8.74 1.2-13.12.14-7.55-.1-15.1-.22-22.66-.02-1.31-.34-2.62-.38-3.93-.05-1.54-.03-3.09.09-4.63.22-2.86.69-5.71.77-8.58.08-3.03-1.12-5.56-4.16-6.62-3.12-1.09-6.26-2.07-9.64-2.28-5.95-.37-11.84.6-17.83.12-6.83-.55-13.73-.13-20.6-.06-3.19.03-6.38.28-9.57.34-5.91.1-11.83.38-17.72.12-6.02-.27-12.03-.9-18.07-.75-2.47.06-4.96-.16-7.43-.12l-17.25.41c-4.15.1-8.31.39-12.45.26-7.1-.22-14.19-.93-21.29-1.01-10.35-.12-20.7.12-31.05.26l-16.77.46c-2.2.12-4.45.59-6.55 1.29-3.78 1.26-5.3 3.66-5.22 7.65l.3 11.86c.02.6.14 1.19.14 1.79l-.1 11.13c-.1 3.91-.46 7.82-.43 11.73.03 3.39.45 6.77.7 10.16zm111.4-61.91a4.57 4.57 0 0 0 .01.37h5.03c4.07.04 8.15 0 12.22.18 5.02.22 10.04.63 15.06.9.53.03 1.09-.34 1.63-.52-.23-.52-.37-1.1-.69-1.56l-5.02-6.98c-.28-.39-.55-.79-.88-1.13l-6.97-7.09L129 22.17c-1.55-1.67-3.59-1.55-5 .24a12.187 12.187 0 0 1-6.03 4.15c-6.29 1.99-13.32-.17-15.84-5.87-.61-1.38-1.25-1.47-2.39-.42-1.44 1.32-2.72 2.82-4.16 4.13-5.56 5.05-11.17 10.05-16.07 15.76l-5.16 6.15c-.95 1.17-.69 1.78.8 1.94a50.95 50.95 0 0 0 3.71.24c5.59.18 11.18.54 16.76.45 7.42-.12 14.84-.6 22.26-.93zm1.81-34.03c-.1-.91-.1-1.84-.31-2.73-.88-3.7-6.27-5.91-9.3-3.85-3.29 2.24-3.78 8.92-.83 11.65a5.39 5.39 0 0 0 1.62.99c4.67 1.88 8.66-.91 8.81-6.07zm41.31 80.84c-.11.64-.3 1.28-.31 1.92l-.36 18.45c-.02 1.04-.08 2.08-.26 3.1-.25 1.37-1.23 2.22-2.42 2.28-1.28.07-2.34-.66-2.68-2.1-.25-1.07-.34-2.21-.33-3.32l.35-19.89c.03-3.47-.21-6.94-.26-10.42-.01-1.02.06-2.09.35-3.06.34-1.17 1.2-2.01 2.49-2.14 1.23-.13 2.14.51 2.83 1.48.18.26.36.55.44.85.7 2.48 2.25 4.47 3.64 6.57 1.46 2.19 2.69 4.53 4.14 6.73 2.3 3.5 4.69 6.94 7.07 10.39.17.25.57.36.86.53.14-.35.4-.69.41-1.05l.24-10.55.03-11.03c0-.87.12-1.76.35-2.6.35-1.25 1.31-1.94 2.45-1.93s2.14.71 2.46 1.92c.25.92.41 1.89.41 2.83l-.18 33.93a9.38 9.38 0 0 1-.31 2.36c-.32 1.18-1.12 1.94-2.38 2.05-1.25.11-2.06-.62-2.52-1.67-2.32-5.3-5.69-9.99-8.84-14.79-2.06-3.13-4.42-6.07-6.07-9.46-.27-.56-.78-1.01-1.18-1.51-.14.04-.27.07-.41.11zm-88.59 5.81v7.43c.09 7.22-4.22 11.5-10.75 13.02-2.15.5-4.44.55-6.66.51-5.79-.09-11.56-6.94-11.42-12.65.14-5.51-.09-11.03-.04-16.55.05-6.52 5.36-14.95 15.08-13.54l4.76.62c4.19.58 6.81 3.05 7.96 6.99.55 1.89.82 3.91.93 5.89.15 2.75.04 5.51.04 8.27h.1zm-5.65-.81h-.17c0-2.52.08-5.04-.03-7.55-.06-1.42-.34-2.85-.71-4.23-.4-1.49-1.42-2.58-2.98-2.8-2.32-.33-4.67-.6-7.01-.67-1.97-.06-3.48 1-4.6 2.61-1.39 1.99-2.18 4.14-2.13 6.6l.21 14.61c.1 4.69 3.49 7.82 8.16 7.54 1.15-.07 2.32-.22 3.42-.54 2.88-.84 5.18-2.39 5.65-5.65.16-1.1.17-2.23.18-3.34v-6.58zm65.8 21.93c-3.03 0-6.07.02-9.1-.01-.75 0-1.52-.1-2.26-.24-2.27-.44-3.58-1.71-3.78-4.03-.17-2.02-.13-4.07.03-6.1.47-6.03.24-12.05.04-18.08l-.24-11.39c-.02-3.59 1.59-4.89 5.16-4.76 5.18.19 10.37.15 15.56.25 1.75.03 3.51.09 5.25.3.7.08 1.46.49 2 .96 1.37 1.21.99 3.31-.68 4.05-.53.24-1.15.37-1.74.38l-13.06.23c-1.52.01-3.03-.16-4.55-.19-1.72-.04-2.23.4-2.21 2.07l.29 10.3c.06 1.42.52 1.8 1.97 1.82 1.72.02 3.44-.05 5.16 0 .95.03 1.92.13 2.84.37 1.31.35 1.99 1.31 2 2.52 0 1.18-.73 2.15-2.03 2.5-.69.19-1.42.26-2.13.28-1.8.06-3.6.02-5.4.08-1.6.06-2.09.53-2.2 2.08l-.47 8.14c-.09 2.26.36 2.77 2.65 2.85 1.79.06 3.59-.1 5.39-.11l11.75-.02c2.18.01 3.54 1.01 3.66 2.53.11 1.54-1.06 2.74-3.24 3-1.78.21-3.59.17-5.38.2-1.76.03-3.52 0-5.28 0zm-51.21-15.99-.72-16.75c-.06-2.22.15-4.47.48-6.67.4-2.64 1.82-3.94 4.46-4.25 5.18-.61 10.36-.73 15.52.19 4.85.87 7.95 3.92 8.32 8.86.27 3.6.19 7.27-.2 10.86-.49 4.49-3.28 7.02-7.78 7.38-3.9.31-7.81.39-11.72.51-2.45.08-2.73.33-2.76 2.79l-.21 8.14c-.03.75-.15 1.52-.41 2.22-.38 1.05-1.17 1.72-2.35 1.73-1.22.01-2.11-.62-2.44-1.76-.27-.94-.34-1.96-.36-2.95-.04-1.72.04-3.43.05-5.15v-5.15h.11zm11.01-5.6v.07l7.41-.38c2.8-.2 3.82-1.13 4.01-3.92.17-2.54.22-5.1.03-7.64-.21-2.85-1.41-4.18-4.26-4.44-3.56-.33-7.16-.34-10.73-.31-1.8.02-2.5.76-2.46 2.56.08 4.18.33 8.36.53 12.54.05 1.02.66 1.5 1.65 1.51h3.83z" opacity=".29"/></svg>