<svg xmlns="http://www.w3.org/2000/svg" width="256" height="124" fill="none"><g fill="#fff"><path d="M.822 72.716v-9.455h3.786c.696 0 1.276.103 1.74.309s.814.492 1.048.859.351.782.351 1.256c0 .369-.074.694-.222.974a1.91 1.91 0 0 1-.609.683c-.255.175-.548.3-.877.374v.092c.36.015.697.117 1.011.305s.574.451.771.789.295.736.295 1.2c0 .502-.125.949-.374 1.343s-.611.7-1.094.928-1.079.342-1.787.342H.822zm1.999-1.634h1.63c.557 0 .963-.106 1.219-.319s.383-.502.383-.859a1.27 1.27 0 0 0-.189-.692 1.285 1.285 0 0 0-.54-.471 1.85 1.85 0 0 0-.826-.171H2.821v2.511zm0-3.864h1.482c.274 0 .517-.048.729-.143s.385-.237.508-.416.189-.392.189-.642c0-.342-.122-.617-.365-.826s-.582-.314-1.025-.314H2.821v2.341zm6.559 5.498v-7.091h1.907v1.237h.074c.129-.44.346-.772.651-.997a1.71 1.71 0 0 1 1.053-.342 2.815 2.815 0 0 1 .619.07v1.745a2.578 2.578 0 0 0-.383-.074 3.45 3.45 0 0 0-.448-.032c-.289 0-.548.063-.776.189s-.403.296-.536.517-.194.477-.194.766v4.012H9.38zm9.867-3.019v-4.072h1.967v7.091h-1.888v-1.288h-.074c-.16.416-.426.749-.799 1.002s-.82.379-1.353.379c-.474 0-.891-.108-1.251-.323s-.642-.522-.845-.919-.302-.873-.305-1.427v-4.515h1.967v4.164c.003.418.115.749.337.992s.519.365.891.365c.237 0 .459-.054.665-.162a1.27 1.27 0 0 0 .499-.489c.129-.216.192-.482.189-.799zm6.734 5.826c-.637 0-1.183-.088-1.639-.263s-.812-.408-1.08-.706a2.17 2.17 0 0 1-.522-1.006l1.819-.245a1.19 1.19 0 0 0 .263.397 1.28 1.28 0 0 0 .476.295c.2.077.443.115.729.115.428 0 .78-.105 1.057-.314s.42-.552.42-1.039V71.46h-.083c-.086.197-.215.383-.388.559s-.394.319-.665.429-.594.166-.969.166a2.91 2.91 0 0 1-1.454-.369c-.434-.249-.78-.629-1.039-1.14s-.383-1.163-.383-1.948c0-.803.131-1.474.392-2.013s.609-.942 1.043-1.209.916-.402 1.436-.402c.397 0 .729.068.997.203s.483.299.646.499a2.66 2.66 0 0 1 .383.582h.074v-1.191h1.953v7.16c0 .603-.148 1.108-.443 1.514s-.705.711-1.228.914-1.119.309-1.796.309zm.041-4.386a1.34 1.34 0 0 0 .803-.236c.222-.16.391-.388.508-.683s.18-.656.18-1.071a3.01 3.01 0 0 0-.176-1.08c-.117-.308-.286-.546-.508-.715s-.491-.254-.808-.254c-.323 0-.595.088-.817.263s-.389.412-.503.72-.171.663-.171 1.066c0 .409.057.763.171 1.062a1.54 1.54 0 0 0 .503.688c.222.16.494.24.817.24zm7.999 1.579v-7.091h1.967v7.091h-1.967zm.988-8.005c-.292 0-.543-.097-.752-.291s-.309-.432-.309-.706.103-.503.309-.697a1.06 1.06 0 0 1 .752-.295c.292 0 .542.098.748.295s.314.426.314.697-.105.509-.314.706a1.05 1.05 0 0 1-.748.291zm4.336 5.965.005-2.359h.286l2.271-2.691h2.258l-3.052 3.564h-.466l-1.302 1.486zm-1.782 2.041v-9.455h1.967v9.455h-1.967zm4.432 0-2.087-3.088 1.311-1.39 3.079 4.478h-2.304zm4.917-2.041.005-2.359h.286l2.271-2.691h2.258l-3.051 3.564h-.466l-1.302 1.486zm-1.782 2.041v-9.455h1.967v9.455H45.13zm4.432 0-2.087-3.088 1.311-1.39 3.079 4.478h-2.304zm6.074.138c-.729 0-1.357-.148-1.883-.443s-.926-.72-1.21-1.265-.425-1.196-.425-1.944c0-.729.142-1.37.425-1.92a3.14 3.14 0 0 1 1.196-1.288c.517-.308 1.123-.462 1.819-.462a3.7 3.7 0 0 1 1.306.226c.406.148.76.371 1.062.669s.542.674.711 1.126.254.976.254 1.579v.54h-5.988v-1.219h4.136c0-.283-.062-.534-.185-.752a1.32 1.32 0 0 0-.512-.512 1.46 1.46 0 0 0-.752-.189c-.299 0-.563.069-.794.208s-.406.319-.535.549a1.55 1.55 0 0 0-.198.762v1.159c0 .351.065.654.194.909a1.42 1.42 0 0 0 .559.591 1.68 1.68 0 0 0 .854.208c.218 0 .419-.031.6-.092s.337-.154.466-.277.228-.274.295-.452l1.819.12c-.092.437-.282.819-.568 1.145s-.649.576-1.099.757-.962.268-1.547.268zm5.688-.019a1.08 1.08 0 0 1-.785-.323c-.216-.218-.323-.48-.323-.785s.108-.56.323-.776a1.08 1.08 0 0 1 .785-.323c.295 0 .554.108.776.323s.332.474.332.776a1.04 1.04 0 0 1-.157.559c-.102.166-.236.3-.402.402s-.349.148-.549.148zm0-4.967a1.08 1.08 0 0 1-.785-.323 1.07 1.07 0 0 1-.323-.785 1.04 1.04 0 0 1 .323-.771 1.08 1.08 0 0 1 .785-.323c.295 0 .554.108.776.323s.332.469.332.771a1.05 1.05 0 0 1-.157.563c-.102.166-.236.299-.402.397s-.349.148-.549.148zM7.608 98.216a3.337 3.337 0 0 0-.402-.836 2.58 2.58 0 0 0-.586-.637 2.46 2.46 0 0 0-.766-.402 3.063 3.063 0 0 0-.942-.138c-.56 0-1.069.145-1.528.434s-.823.715-1.094 1.279-.406 1.254-.406 2.073.137 1.51.411 2.073.645.989 1.113 1.279.994.434 1.579.434c.542 0 1.019-.116 1.431-.347s.739-.563.969-.988.351-.931.351-1.509l.351.074H5.244v-1.016h3.601v1.016c0 .778-.166 1.455-.499 2.031a3.45 3.45 0 0 1-1.366 1.339c-.579.314-1.243.471-1.994.471-.837 0-1.573-.197-2.207-.591s-1.123-.954-1.477-1.681-.526-1.588-.526-2.585c0-.748.1-1.42.3-2.017s.489-1.111.859-1.533.806-.745 1.311-.969 1.06-.337 1.667-.337c.499 0 .963.075 1.394.226a3.74 3.74 0 0 1 1.159.633 3.6 3.6 0 0 1 .854.974 3.71 3.71 0 0 1 .471 1.251H7.608zm3.495 6.5v-7.091h1.089v7.091h-1.089zm.554-8.272c-.212 0-.395-.072-.549-.217s-.226-.319-.226-.522.075-.377.226-.522.337-.217.549-.217a.76.76 0 0 1 .545.217.69.69 0 0 1 .231.522.69.69 0 0 1-.231.522.76.76 0 0 1-.545.217zm5.689 1.182v.923h-3.823v-.923h3.823zm-2.678 7.091v-8.069c0-.406.095-.745.286-1.016s.439-.474.743-.609a2.35 2.35 0 0 1 .965-.203c.268 0 .486.022.656.065a2.55 2.55 0 0 1 .379.12l-.314.942-.231-.069a1.4 1.4 0 0 0-.379-.042c-.36 0-.62.091-.78.272s-.235.448-.235.799v7.811h-1.089zm-13.135 16h-1.2l3.472-9.454h1.182l3.472 9.454h-1.2l-2.825-7.958H4.36l-2.825 7.958zm.443-3.693h4.838v1.016H1.976v-1.016zm12.275.794v-4.192h1.09v7.091h-1.09v-1.2h-.074c-.166.36-.425.666-.776.919s-.794.374-1.329.374c-.443 0-.837-.097-1.182-.291s-.616-.493-.812-.887-.295-.897-.295-1.5v-4.506h1.089v4.432c0 .517.145.93.434 1.237s.665.462 1.117.462c.271 0 .546-.069.826-.208a1.8 1.8 0 0 0 .711-.637c.194-.286.291-.651.291-1.094zm6.169-4.192v.924h-3.675v-.924h3.675zm-2.604-1.698h1.09v6.758c0 .308.045.539.134.693s.209.252.351.304.297.074.457.074a1.98 1.98 0 0 0 .295-.018l.185-.037.222.978a2.09 2.09 0 0 1-.309.083c-.132.031-.3.047-.503.047a2.2 2.2 0 0 1-.905-.199c-.292-.132-.536-.334-.729-.605s-.286-.612-.286-1.024v-7.054zm7.047 8.937c-.64 0-1.202-.152-1.685-.457s-.856-.731-1.126-1.279-.402-1.188-.402-1.92c0-.739.134-1.384.402-1.935s.646-.978 1.126-1.283 1.045-.457 1.685-.457 1.2.152 1.68.457.859.733 1.126 1.283.406 1.196.406 1.935c0 .732-.136 1.372-.406 1.92s-.643.974-1.126 1.279-1.04.457-1.68.457zm0-.979c.486 0 .886-.124 1.2-.374s.546-.577.697-.983.226-.846.226-1.32-.075-.916-.226-1.325a2.24 2.24 0 0 0-.697-.993c-.314-.252-.714-.378-1.2-.378s-.886.126-1.2.378a2.24 2.24 0 0 0-.697.993c-.151.409-.226.851-.226 1.325s.075.914.226 1.32.383.734.697.983.714.374 1.2.374zm4.876 3.49v-9.75h1.053v1.127h.129l.332-.471c.145-.194.351-.366.619-.517s.637-.231 1.099-.231c.597 0 1.123.149 1.579.448s.811.722 1.066 1.269.383 1.195.383 1.939c0 .751-.128 1.402-.383 1.953s-.609.973-1.062 1.274-.974.448-1.565.448c-.455 0-.82-.075-1.094-.226s-.485-.328-.632-.522l-.342-.489h-.092v3.748h-1.09zm1.071-6.204c0 .535.078 1.008.235 1.417s.386.725.688.956.671.341 1.108.341c.456 0 .836-.12 1.14-.36a2.2 2.2 0 0 0 .692-.978c.157-.413.235-.871.235-1.376 0-.499-.077-.948-.231-1.348s-.38-.722-.688-.956-.688-.355-1.15-.355c-.443 0-.816.112-1.117.337s-.529.532-.683.932-.231.86-.231 1.39zm7.94-5.909v9.454h-1.09v-9.454h1.09zm4.082 9.621c-.449 0-.857-.085-1.223-.254s-.657-.421-.873-.744-.323-.72-.323-1.181c0-.407.08-.736.24-.988s.374-.456.642-.601.563-.252.886-.323l.983-.175 1.048-.125c.271-.031.468-.081.591-.152s.189-.194.189-.369v-.037c0-.456-.125-.81-.374-1.062s-.62-.379-1.122-.379c-.52 0-.928.114-1.223.342s-.503.471-.623.729l-1.034-.369c.185-.431.431-.766.739-1.006a2.75 2.75 0 0 1 1.016-.508 4.197 4.197 0 0 1 1.09-.148c.228 0 .489.028.785.083a2.51 2.51 0 0 1 .863.328c.28.166.512.417.697.752s.277.785.277 1.348v4.672h-1.09v-.96h-.055c-.074.154-.197.319-.369.494s-.402.325-.688.448-.636.185-1.048.185zm.166-.979c.431 0 .794-.085 1.09-.254s.523-.388.674-.656.231-.549.231-.844v-.998c-.046.056-.148.107-.305.153s-.332.081-.536.115l-.586.083-.457.056c-.283.037-.548.097-.794.18s-.44.201-.591.364-.222.379-.222.656c0 .378.14.665.42.859s.642.286 1.076.286zm5.52 3.471a2.372 2.372 0 0 1-.794-.129l.277-.96c.265.068.499.092.702.074a.84.84 0 0 0 .54-.273c.16-.16.306-.42.438-.78l.203-.554-2.622-7.128h1.182l1.957 5.651h.074l1.957-5.651h1.182l-3.01 8.125c-.135.367-.303.67-.503.91s-.432.423-.697.54-.557.175-.886.175zM171.822 73v-9.455h3.785c.696 0 1.276.103 1.741.309s.814.492 1.048.859.35.782.35 1.256c0 .369-.073.694-.221.974a1.91 1.91 0 0 1-.61.683 2.49 2.49 0 0 1-.877.374v.092c.36.015.697.117 1.011.305s.574.451.771.789.296.736.296 1.2c0 .502-.125.949-.374 1.343s-.611.7-1.094.928-1.079.342-1.787.342h-4.039zm1.999-1.634h1.629c.557 0 .964-.106 1.219-.319s.383-.502.383-.859a1.27 1.27 0 0 0-.189-.692 1.285 1.285 0 0 0-.54-.471 1.85 1.85 0 0 0-.827-.171h-1.675v2.511zm0-3.864h1.482c.273 0 .517-.048.729-.143s.385-.237.508-.415.189-.392.189-.642c0-.342-.122-.617-.365-.826s-.581-.314-1.025-.314h-1.518v2.341zM180.38 73v-7.091h1.906v1.237h.074c.129-.44.346-.772.651-.997a1.71 1.71 0 0 1 1.052-.342 2.98 2.98 0 0 1 .319.018c.114.012.214.029.3.051v1.745c-.092-.028-.22-.052-.383-.074s-.312-.032-.448-.032a1.57 1.57 0 0 0-.775.189 1.39 1.39 0 0 0-.536.517 1.496 1.496 0 0 0-.194.766V73h-1.966zm9.866-3.019v-4.072h1.967V73h-1.888v-1.288h-.074c-.16.415-.427.749-.799 1.002s-.82.378-1.353.378c-.474 0-.891-.108-1.251-.323a2.22 2.22 0 0 1-.844-.919c-.2-.397-.302-.873-.305-1.426v-4.515h1.966v4.164c.004.418.116.749.337.993s.519.365.891.365c.237 0 .459-.054.665-.162a1.27 1.27 0 0 0 .499-.489c.129-.216.192-.482.189-.799zm6.734 5.826c-.637 0-1.183-.088-1.638-.263s-.813-.408-1.081-.706-.441-.634-.521-1.006l1.819-.245c.055.142.143.274.263.397s.278.222.475.296.443.115.73.115c.427 0 .78-.105 1.057-.314s.42-.552.42-1.039v-1.297h-.083a1.881 1.881 0 0 1-.388.559 1.95 1.95 0 0 1-.665.429 2.551 2.551 0 0 1-.969.166c-.533 0-1.017-.123-1.454-.369s-.781-.629-1.039-1.14-.383-1.163-.383-1.948c0-.803.13-1.474.392-2.013s.609-.942 1.043-1.209.916-.402 1.436-.402c.397 0 .729.068.997.203s.483.298.647.499.293.391.383.582h.074v-1.191h1.952v7.16c0 .603-.147 1.108-.443 1.514s-.705.711-1.228.914-1.119.309-1.796.309zm.042-4.386c.317 0 .585-.079.803-.236s.391-.388.508-.683.18-.656.18-1.071-.058-.776-.175-1.08-.287-.546-.508-.716-.491-.254-.808-.254c-.323 0-.596.088-.817.263s-.39.412-.503.72-.171.663-.171 1.066c0 .409.057.763.171 1.062s.284.525.503.688.494.24.817.24zM205.021 73v-7.091h1.967V73h-1.967zm.988-8.005c-.292 0-.543-.097-.752-.291a.94.94 0 0 1-.31-.706.92.92 0 0 1 .31-.697c.209-.197.46-.296.752-.296s.542.099.748.296.314.426.314.697-.105.509-.314.706-.456.291-.748.291zm11.463 2.936-1.801.111a.925.925 0 0 0-.198-.415 1.06 1.06 0 0 0-.402-.3 1.361 1.361 0 0 0-.586-.115c-.305 0-.562.065-.771.194s-.314.296-.314.508c0 .169.068.312.203.429s.368.211.697.282l1.284.258c.689.142 1.203.369 1.542.683s.507.726.507 1.237a1.93 1.93 0 0 1-.411 1.223c-.27.351-.643.625-1.117.822s-1.014.291-1.629.291c-.939 0-1.687-.195-2.244-.586a2.28 2.28 0 0 1-.974-1.606l1.934-.102c.059.286.2.505.425.656s.512.222.863.222c.345 0 .622-.066.831-.198s.32-.309.323-.522a.54.54 0 0 0-.226-.439c-.148-.117-.375-.206-.683-.268l-1.228-.245c-.692-.138-1.208-.379-1.547-.72s-.503-.777-.503-1.306c0-.456.123-.848.37-1.177s.598-.583 1.048-.762.981-.268 1.588-.268c.895 0 1.6.189 2.114.568a2.19 2.19 0 0 1 .905 1.546zm5.171-2.022v1.477h-4.27v-1.477h4.27zm-3.3-1.699h1.966v6.611c0 .182.028.323.083.425s.133.168.231.208.219.06.351.06a1.68 1.68 0 0 0 .277-.023l.212-.041.31 1.463a5.462 5.462 0 0 1-.416.106 3.32 3.32 0 0 1-.651.078c-.474.018-.889-.045-1.246-.189a1.74 1.74 0 0 1-.827-.674c-.197-.305-.293-.689-.29-1.154v-6.87zm7.737 8.928c-.73 0-1.357-.148-1.884-.443s-.926-.72-1.209-1.265-.425-1.196-.425-1.944c0-.729.142-1.37.425-1.921s.681-.98 1.195-1.288 1.124-.462 1.819-.462a3.7 3.7 0 0 1 1.307.226c.406.148.76.371 1.062.669s.541.674.711 1.126.253.976.253 1.579v.54h-5.987v-1.219h4.136c0-.283-.061-.534-.184-.752s-.294-.389-.513-.512-.466-.189-.752-.189a1.51 1.51 0 0 0-.794.208c-.228.135-.407.319-.536.549s-.195.482-.198.762v1.159c0 .351.064.654.193.909s.319.452.559.591a1.68 1.68 0 0 0 .854.208c.219 0 .419-.031.6-.092a1.25 1.25 0 0 0 .467-.277 1.21 1.21 0 0 0 .295-.452l1.819.12c-.092.437-.282.819-.568 1.145s-.649.576-1.099.757-.961.268-1.546.268zm7.151-.023c-.539 0-1.027-.138-1.464-.415s-.778-.691-1.034-1.233-.378-1.213-.378-2.003c0-.812.13-1.488.392-2.027s.609-.946 1.043-1.214.916-.406 1.436-.406c.397 0 .728.068.993.203s.483.298.646.499a2.56 2.56 0 0 1 .379.582h.06v-3.555h1.962V73h-1.939v-1.136h-.083c-.093.197-.224.392-.393.586s-.383.349-.651.476-.588.189-.969.189zm.623-1.565c.317 0 .585-.086.803-.258s.391-.42.508-.734.18-.682.18-1.103-.058-.788-.175-1.099-.287-.551-.508-.72-.491-.254-.808-.254c-.323 0-.596.088-.817.263s-.389.418-.503.729a3.13 3.13 0 0 0-.171 1.08c0 .413.057.777.171 1.094s.284.56.503.739.494.263.817.263zm8.26 1.588c-.729 0-1.357-.148-1.884-.443s-.926-.72-1.209-1.265-.425-1.196-.425-1.944c0-.729.142-1.37.425-1.921a3.14 3.14 0 0 1 1.196-1.288c.517-.308 1.123-.462 1.819-.462a3.7 3.7 0 0 1 1.306.226c.406.148.76.371 1.062.669s.541.674.711 1.126.254.976.254 1.579v.54h-5.988v-1.219h4.136c0-.283-.061-.534-.184-.752a1.32 1.32 0 0 0-.513-.512 1.46 1.46 0 0 0-.752-.189c-.299 0-.563.069-.794.208a1.46 1.46 0 0 0-.536.549 1.555 1.555 0 0 0-.198.762v1.159c0 .351.064.654.194.909s.318.452.558.591a1.68 1.68 0 0 0 .854.208c.219 0 .419-.031.6-.092a1.25 1.25 0 0 0 .467-.277 1.21 1.21 0 0 0 .295-.452l1.819.12c-.092.437-.282.819-.568 1.145s-.649.576-1.098.757-.962.268-1.547.268zm8.31-7.229v1.477h-4.271v-1.477h4.271zm-3.301-1.699h1.966v6.611c0 .182.028.323.084.425s.132.168.23.208.219.06.351.06a1.67 1.67 0 0 0 .277-.023l.213-.041.309 1.463c-.099.031-.237.066-.416.106s-.395.069-.65.078c-.474.018-.89-.045-1.247-.189s-.629-.369-.826-.674-.294-.689-.291-1.154v-6.87zm5.731 8.91a1.08 1.08 0 0 1-1.108-1.108 1.06 1.06 0 0 1 .323-.776 1.08 1.08 0 0 1 .785-.323c.296 0 .554.108.776.323s.332.474.332.776a1.04 1.04 0 0 1-.157.559 1.19 1.19 0 0 1-.401.402 1.06 1.06 0 0 1-.55.148zm0-4.967a1.08 1.08 0 0 1-.785-.323 1.07 1.07 0 0 1-.323-.785c0-.302.108-.559.323-.771a1.08 1.08 0 0 1 .785-.323c.296 0 .554.108.776.323a1.03 1.03 0 0 1 .332.771c0 .206-.052.394-.157.563a1.15 1.15 0 0 1-.401.397 1.06 1.06 0 0 1-.55.148zM172.145 105v-9.454h1.145v8.438h4.395V105h-5.54zm10.045.148c-.64 0-1.201-.153-1.685-.457s-.855-.731-1.126-1.279-.402-1.188-.402-1.921.134-1.383.402-1.934a3.1 3.1 0 0 1 1.126-1.283c.484-.305 1.045-.457 1.685-.457s1.201.152 1.681.457.858.733 1.126 1.283.406 1.196.406 1.934-.135 1.373-.406 1.921-.643.974-1.126 1.279-1.041.457-1.681.457zm0-.979c.487 0 .887-.125 1.201-.374s.546-.577.697-.983.226-.847.226-1.321-.075-.915-.226-1.324-.383-.741-.697-.993-.714-.379-1.201-.379-.886.126-1.2.379-.546.583-.697.993-.226.851-.226 1.324.075.915.226 1.321.383.734.697.983.714.374 1.2.374zm7.96-6.26v.923h-3.674v-.923h3.674zm-2.603-1.699h1.089v6.759c0 .308.045.538.134.692a.69.69 0 0 0 .351.305 1.41 1.41 0 0 0 .457.074c.12 0 .218-.006.295-.019l.185-.037.222.979a2.464 2.464 0 0 1-.813.129 2.2 2.2 0 0 1-.905-.198c-.292-.133-.535-.334-.729-.605s-.286-.612-.286-1.025V96.21zm7.326 1.699v.923h-3.675v-.923h3.675zm-2.604-1.699h1.09v6.759c0 .308.044.538.134.692a.69.69 0 0 0 .35.305 1.42 1.42 0 0 0 .458.074c.12 0 .218-.006.295-.019l.185-.037.221.979a2.23 2.23 0 0 1-.309.083c-.132.031-.3.046-.503.046-.308 0-.61-.066-.905-.198s-.536-.334-.73-.605-.286-.612-.286-1.025V96.21zm4.243 8.79v-7.091h1.089V105h-1.089zm.554-8.273a.774.774 0 0 1-.55-.217.7.7 0 0 1-.226-.522.7.7 0 0 1 .226-.522.774.774 0 0 1 .55-.217.76.76 0 0 1 .545.217c.153.145.23.319.23.522s-.077.377-.23.522a.76.76 0 0 1-.545.217zm5.504 8.421c-.683 0-1.273-.151-1.768-.453a3.03 3.03 0 0 1-1.141-1.274c-.264-.548-.397-1.185-.397-1.911s.133-1.367.397-1.921.641-.991 1.118-1.302 1.04-.471 1.68-.471a3.36 3.36 0 0 1 1.094.185c.36.123.688.323.983.6s.531.637.707 1.09.263 1.01.263 1.671v.462h-5.466v-.942h4.358c0-.4-.08-.757-.24-1.071a1.81 1.81 0 0 0-.674-.743c-.289-.182-.631-.272-1.025-.272-.434 0-.809.108-1.126.323s-.556.489-.725.831a2.44 2.44 0 0 0-.254 1.098v.628c0 .536.092.99.277 1.362s.448.651.78.845.719.286 1.159.286c.286 0 .545-.04.775-.12s.436-.206.605-.369a1.7 1.7 0 0 0 .393-.619l1.052.296a2.33 2.33 0 0 1-.559.941 2.713 2.713 0 0 1-.969.628 3.59 3.59 0 0 1-1.297.222zm7.751-7.239v.923h-3.823v-.923h3.823zM207.643 105v-8.07c0-.406.096-.745.287-1.016s.438-.474.743-.609.626-.203.965-.203c.267 0 .486.022.655.065s.296.083.379.12l-.314.942-.231-.069a1.4 1.4 0 0 0-.379-.041c-.36 0-.62.091-.78.272s-.235.448-.235.799V105h-1.09zm4.205 0v-7.091h1.089V105h-1.089zm.554-8.273a.774.774 0 0 1-.55-.217.7.7 0 0 1-.226-.522.7.7 0 0 1 .226-.522c.154-.145.337-.217.55-.217s.394.072.544.217a.69.69 0 0 1 .231.522.69.69 0 0 1-.231.522.755.755 0 0 1-.544.217zm3.62-1.182V105h-1.089v-9.454h1.089zm4.969 9.602c-.684 0-1.273-.151-1.768-.453a3.03 3.03 0 0 1-1.141-1.274c-.264-.548-.397-1.185-.397-1.911s.133-1.367.397-1.921.64-.991 1.117-1.302 1.041-.471 1.681-.471a3.36 3.36 0 0 1 1.094.185c.36.123.688.323.983.6s.531.637.707 1.09.263 1.01.263 1.671v.462h-5.466v-.942h4.358c0-.4-.08-.757-.24-1.071a1.81 1.81 0 0 0-.674-.743c-.29-.182-.631-.272-1.025-.272-.434 0-.81.108-1.127.323a2.13 2.13 0 0 0-.724.831 2.43 2.43 0 0 0-.254 1.098v.628c0 .536.092.99.277 1.362s.448.651.78.845.719.286 1.159.286c.286 0 .544-.04.775-.12s.436-.206.605-.369.3-.373.392-.619l1.053.296a2.33 2.33 0 0 1-.559.941 2.713 2.713 0 0 1-.969.628 3.59 3.59 0 0 1-1.297.222zm9.616-5.651-.979.277a1.8 1.8 0 0 0-.272-.475c-.117-.157-.277-.286-.48-.388s-.464-.152-.781-.152c-.434 0-.795.1-1.084.3s-.43.448-.43.752c0 .271.099.485.296.642s.504.288.923.392l1.053.259c.634.154 1.106.389 1.417.706s.466.719.466 1.214a1.8 1.8 0 0 1-.351 1.09c-.231.32-.554.572-.969.757s-.899.277-1.45.277c-.723 0-1.322-.157-1.796-.471s-.774-.773-.9-1.376l1.034-.258c.099.381.285.667.559.858s.638.287 1.085.287c.508 0 .911-.108 1.209-.324s.453-.48.453-.784c0-.247-.087-.453-.259-.619s-.437-.296-.794-.379l-1.182-.277c-.649-.153-1.126-.392-1.431-.715s-.452-.734-.452-1.224a1.75 1.75 0 0 1 .337-1.062c.227-.308.537-.549.928-.725s.84-.263 1.338-.263c.702 0 1.253.154 1.653.462s.69.714.859 1.219z"/></g><path fill="#81a66d" d="M235 25c0 13.807-11.193 25-25 25s-25-11.193-25-25 11.193-25 25-25 25 11.193 25 25zm-27.892 13.237 18.549-18.548a1.615 1.615 0 0 0 0-2.281l-2.281-2.281a1.613 1.613 0 0 0-2.281 0l-15.127 15.127-7.063-7.062a1.613 1.613 0 0 0-2.281 0l-2.281 2.281a1.615 1.615 0 0 0 0 2.281l10.484 10.484c.63.63 1.651.63 2.281 0z"/><path fill="#fa7b82" d="M32 0a25 25 0 1 0 0 50 25 25 0 1 0 0-50zm12.258 31.563a1.21 1.21 0 0 1 0 1.714l-3.992 3.982a1.21 1.21 0 0 1-1.714 0L32 30.645l-6.562 6.613a1.21 1.21 0 0 1-1.714 0l-3.982-3.992a1.21 1.21 0 0 1 0-1.714L26.355 25l-6.613-6.562a1.21 1.21 0 0 1 0-1.714l3.992-3.992a1.21 1.21 0 0 1 1.714 0L32 19.355l6.563-6.613a1.21 1.21 0 0 1 1.714 0l3.992 3.992a1.21 1.21 0 0 1 0 1.714L37.645 25l6.613 6.563z"/></svg>