<svg width="283" height="405" viewBox="0 0 283 405" fill="none" xmlns="http://www.w3.org/2000/svg">
<circle cx="141.5" cy="203.5" r="141.5" fill="#74936F"/>
<path d="M155.485 138.5V244.25C155.485 252.25 157.319 257.667 160.985 260.5C164.652 263.333 170.819 264.75 179.485 264.75V270C176.152 269.833 171.235 269.667 164.735 269.5C158.402 269.167 151.819 269 144.985 269C137.319 269 129.902 269.167 122.735 269.5C115.735 269.667 110.319 269.833 106.485 270V264.75C114.819 264.75 121.319 263.417 125.985 260.75C130.652 257.917 132.985 252.417 132.985 244.25V183.75C132.985 175.75 132.152 169.833 130.485 166C128.819 162.167 125.819 159.667 121.485 158.5C117.319 157.333 111.485 156.75 103.985 156.75V151.25C115.985 150.917 125.985 149.833 133.985 148C141.985 146.167 149.152 143 155.485 138.5Z" fill="white"/>
</svg>
