<svg width="283" height="405" viewBox="0 0 283 405" fill="none" xmlns="http://www.w3.org/2000/svg">
<circle cx="141.5" cy="203.5" r="141.5" fill="#74936F"/>
<path d="M139.686 137.75C151.186 137.75 160.269 140.5 166.936 146C173.769 151.333 177.186 159.083 177.186 169.25C177.186 175.917 175.602 182.25 172.436 188.25C169.436 194.083 165.436 199.75 160.436 205.25C155.436 210.583 150.102 215.833 144.436 221C138.769 226 133.269 231 127.936 236C122.602 240.833 118.102 245.75 114.436 250.75H165.186C172.019 250.75 176.352 249.833 178.186 248C180.019 246 181.269 242.667 181.936 238H186.186C186.186 246.833 186.269 253.667 186.436 258.5C186.602 263.167 186.852 267.417 187.186 271.25C185.686 270.917 182.936 270.667 178.936 270.5C174.936 270.333 170.352 270.167 165.186 270C160.019 270 154.936 270 149.936 270H91.4355V265.75C96.4355 260.25 102.436 254.417 109.436 248.25C116.436 241.917 123.186 235.083 129.686 227.75C136.352 220.25 141.852 212.167 146.186 203.5C150.686 194.667 152.936 185.083 152.936 174.75C152.936 165.25 150.686 158.417 146.186 154.25C141.852 149.917 135.769 147.75 127.936 147.75C121.269 147.75 115.102 149.75 109.436 153.75C103.769 157.583 98.7689 163.417 94.4355 171.25L90.4355 169C92.9355 163.667 96.2689 158.667 100.436 154C104.769 149.167 110.102 145.25 116.436 142.25C122.936 139.25 130.686 137.75 139.686 137.75Z" fill="white"/>
</svg>
