<svg width="283" height="405" viewBox="0 0 283 405" fill="none" xmlns="http://www.w3.org/2000/svg">
<circle cx="141.5" cy="218.5" r="141.5" fill="#74936F"/>
<path d="M142.854 137.75C149.854 137.75 156.02 138.917 161.354 141.25C166.854 143.417 171.104 146.667 174.104 151C177.27 155.167 178.854 160.25 178.854 166.25C178.854 172.75 177.02 178.75 173.354 184.25C169.854 189.583 165.27 194.25 159.604 198.25C153.937 202.083 147.937 205.167 141.604 207.5C149.437 207.667 156.854 209.167 163.854 212C170.854 214.667 176.604 218.75 181.104 224.25C185.604 229.75 187.854 236.833 187.854 245.5C187.854 253.167 186.02 260.25 182.354 266.75C178.854 273.083 173.937 278.75 167.604 283.75C161.437 288.917 154.354 293.25 146.354 296.75C138.354 300.417 129.937 303.167 121.104 305C112.437 306.833 103.854 307.75 95.3535 307.75V303.25C103.854 303.083 112.187 301.667 120.354 299C128.52 296.5 135.854 292.833 142.354 288C149.02 283.167 154.27 277.167 158.104 270C162.104 262.833 164.104 254.667 164.104 245.5C164.104 235.667 161.687 227.583 156.854 221.25C152.187 214.75 145.77 211.167 137.604 210.5C135.104 211.5 132.854 212.417 130.854 213.25C129.02 213.917 127.354 214.25 125.854 214.25C124.52 214.25 123.52 214 122.854 213.5C122.187 212.833 121.854 212 121.854 211C121.854 209.5 122.52 208.333 123.854 207.5C125.187 206.667 126.687 206.25 128.354 206.25C129.687 206.25 131.02 206.417 132.354 206.75C133.854 206.917 135.437 207.083 137.104 207.25C143.937 202.083 148.854 196.417 151.854 190.25C154.854 183.917 156.354 177.583 156.354 171.25C156.354 163.417 154.354 157.75 150.354 154.25C146.52 150.583 141.27 148.75 134.604 148.75C127.77 148.75 121.437 150.583 115.604 154.25C109.937 157.917 105.187 163.5 101.354 171L97.1035 169C99.6035 163.5 102.854 158.417 106.854 153.75C110.854 148.917 115.77 145.083 121.604 142.25C127.604 139.25 134.687 137.75 142.854 137.75Z" fill="white"/>
</svg>
