<svg width="400" height="320" viewBox="0 0 400 320" fill="none" xmlns="http://www.w3.org/2000/svg">
<rect width="400" height="320" fill="#F0E9DC"/>
<path d="M96.4721 81L261 277L123.518 254.153L39 277L96.4721 81Z" fill="#A3BD9F"/>
<path d="M192.79 226.174L258.217 115.979L346.885 265.102L286.917 245.169L286.888 245.16L286.858 245.154L192.79 226.174Z" stroke="black"/>
<rect x="182" y="141" width="89" height="38" fill="#F0E9DC"/>
<path d="M117.735 149.016C118.407 149.048 119.287 149.08 120.375 149.112C121.463 149.144 122.535 149.16 123.591 149.16C125.095 149.16 126.535 149.144 127.911 149.112C129.287 149.08 130.263 149.064 130.839 149.064C134.199 149.064 136.727 149.768 138.423 151.176C140.119 152.584 140.967 154.392 140.967 156.6C140.967 157.72 140.727 158.824 140.247 159.912C139.799 160.968 139.031 161.944 137.943 162.84C136.887 163.704 135.463 164.408 133.671 164.952V165.048C136.199 165.368 138.167 165.976 139.575 166.872C141.015 167.736 142.023 168.76 142.599 169.944C143.175 171.128 143.463 172.376 143.463 173.688C143.463 175.512 142.999 177.128 142.071 178.536C141.175 179.912 139.863 181 138.135 181.8C136.407 182.6 134.343 183 131.943 183C131.239 183 130.183 182.984 128.775 182.952C127.367 182.888 125.671 182.856 123.687 182.856C122.567 182.856 121.463 182.872 120.375 182.904C119.287 182.904 118.407 182.936 117.735 183V182.04C118.823 181.976 119.639 181.848 120.183 181.656C120.759 181.464 121.143 181.08 121.335 180.504C121.527 179.928 121.623 179.064 121.623 177.912V154.104C121.623 152.92 121.527 152.056 121.335 151.512C121.143 150.936 120.759 150.552 120.183 150.36C119.639 150.136 118.823 150.008 117.735 149.976V149.016ZM129.639 149.976C128.167 149.976 127.207 150.248 126.759 150.792C126.311 151.336 126.087 152.44 126.087 154.104V177.912C126.087 179.032 126.183 179.88 126.375 180.456C126.567 181.032 126.919 181.416 127.431 181.608C127.943 181.8 128.695 181.896 129.687 181.896C132.823 181.896 135.095 181.176 136.503 179.736C137.943 178.264 138.663 176.184 138.663 173.496C138.663 171.032 137.991 169.128 136.647 167.784C135.335 166.44 133.159 165.768 130.119 165.768H125.175C125.175 165.768 125.175 165.64 125.175 165.384C125.175 165.096 125.175 164.952 125.175 164.952H129.303C131.191 164.952 132.647 164.6 133.671 163.896C134.695 163.16 135.399 162.2 135.783 161.016C136.167 159.8 136.359 158.504 136.359 157.128C136.359 154.76 135.831 152.984 134.775 151.8C133.751 150.584 132.039 149.976 129.639 149.976ZM152.255 146.28C153.087 146.28 153.807 146.584 154.415 147.192C155.023 147.8 155.327 148.52 155.327 149.352C155.327 150.184 155.023 150.904 154.415 151.512C153.807 152.12 153.087 152.424 152.255 152.424C151.423 152.424 150.703 152.12 150.095 151.512C149.487 150.904 149.183 150.184 149.183 149.352C149.183 148.52 149.487 147.8 150.095 147.192C150.703 146.584 151.423 146.28 152.255 146.28ZM154.751 157.752V178.536C154.751 179.88 155.023 180.792 155.567 181.272C156.143 181.752 157.087 181.992 158.399 181.992V183C157.855 182.968 157.023 182.936 155.903 182.904C154.815 182.84 153.711 182.808 152.591 182.808C151.503 182.808 150.399 182.84 149.279 182.904C148.159 182.936 147.327 182.968 146.783 183V181.992C148.095 181.992 149.023 181.752 149.567 181.272C150.143 180.792 150.431 179.88 150.431 178.536V163.512C150.431 162.072 150.175 161.016 149.663 160.344C149.151 159.64 148.191 159.288 146.783 159.288V158.28C147.807 158.376 148.799 158.424 149.759 158.424C150.687 158.424 151.567 158.376 152.399 158.28C153.263 158.152 154.047 157.976 154.751 157.752ZM168.477 145.368V178.536C168.477 179.88 168.749 180.792 169.293 181.272C169.869 181.752 170.813 181.992 172.125 181.992V183C171.581 182.968 170.749 182.936 169.629 182.904C168.541 182.84 167.437 182.808 166.317 182.808C165.229 182.808 164.125 182.84 163.005 182.904C161.885 182.936 161.053 182.968 160.509 183V181.992C161.821 181.992 162.749 181.752 163.293 181.272C163.869 180.792 164.157 179.88 164.157 178.536V151.128C164.157 149.688 163.901 148.632 163.389 147.96C162.877 147.256 161.917 146.904 160.509 146.904V145.896C161.533 145.992 162.525 146.04 163.485 146.04C164.413 146.04 165.293 145.992 166.125 145.896C166.989 145.768 167.773 145.592 168.477 145.368ZM182.212 145.368V178.536C182.212 179.88 182.484 180.792 183.028 181.272C183.604 181.752 184.548 181.992 185.859 181.992V183C185.316 182.968 184.484 182.936 183.364 182.904C182.276 182.84 181.172 182.808 180.052 182.808C178.964 182.808 177.86 182.84 176.74 182.904C175.62 182.936 174.788 182.968 174.244 183V181.992C175.556 181.992 176.484 181.752 177.028 181.272C177.604 180.792 177.892 179.88 177.892 178.536V151.128C177.892 149.688 177.636 148.632 177.124 147.96C176.612 147.256 175.652 146.904 174.244 146.904V145.896C175.268 145.992 176.26 146.04 177.22 146.04C178.148 146.04 179.028 145.992 179.86 145.896C180.724 145.768 181.508 145.592 182.212 145.368ZM199.509 157.608C202.325 157.608 204.517 158.472 206.085 160.2C207.685 161.896 208.485 164.552 208.485 168.168H191.541L191.493 167.256H203.877C203.941 165.688 203.813 164.248 203.493 162.936C203.173 161.592 202.661 160.52 201.957 159.72C201.285 158.92 200.405 158.52 199.317 158.52C197.845 158.52 196.533 159.256 195.381 160.728C194.261 162.2 193.589 164.536 193.365 167.736L193.509 167.928C193.445 168.408 193.397 168.936 193.365 169.512C193.333 170.088 193.317 170.664 193.317 171.24C193.317 173.416 193.669 175.288 194.373 176.856C195.077 178.424 195.989 179.624 197.109 180.456C198.261 181.256 199.445 181.656 200.661 181.656C201.621 181.656 202.533 181.512 203.397 181.224C204.261 180.904 205.061 180.392 205.797 179.688C206.533 178.984 207.173 178.04 207.717 176.856L208.677 177.24C208.325 178.296 207.749 179.32 206.949 180.312C206.149 181.304 205.141 182.12 203.925 182.76C202.709 183.368 201.301 183.672 199.701 183.672C197.397 183.672 195.413 183.144 193.749 182.088C192.117 181.032 190.853 179.576 189.957 177.72C189.093 175.832 188.661 173.672 188.661 171.24C188.661 168.424 189.109 166.008 190.005 163.992C190.901 161.944 192.165 160.376 193.797 159.288C195.429 158.168 197.333 157.608 199.509 157.608ZM233.966 145.368V177.768C233.966 179.208 234.222 180.28 234.734 180.984C235.278 181.656 236.238 181.992 237.614 181.992V183C236.622 182.904 235.63 182.856 234.638 182.856C233.71 182.856 232.814 182.904 231.95 183C231.118 183.096 230.35 183.272 229.646 183.528V151.128C229.646 149.688 229.39 148.632 228.878 147.96C228.366 147.256 227.406 146.904 225.998 146.904V145.896C227.022 145.992 228.014 146.04 228.974 146.04C229.902 146.04 230.782 145.992 231.614 145.896C232.478 145.768 233.262 145.592 233.966 145.368ZM223.886 157.608C225.294 157.608 226.606 157.944 227.822 158.616C229.07 159.288 229.902 160.44 230.318 162.072L229.694 162.552C229.246 161.208 228.542 160.232 227.582 159.624C226.654 159.016 225.55 158.712 224.27 158.712C222.382 158.712 220.798 159.688 219.518 161.64C218.27 163.592 217.662 166.6 217.694 170.664C217.694 173.256 217.934 175.416 218.414 177.144C218.926 178.84 219.662 180.12 220.622 180.984C221.614 181.816 222.814 182.232 224.222 182.232C225.566 182.232 226.782 181.656 227.87 180.504C228.958 179.352 229.614 177.656 229.838 175.416L230.414 176.088C230.158 178.52 229.374 180.392 228.062 181.704C226.782 183.016 225.038 183.672 222.83 183.672C220.846 183.672 219.102 183.192 217.598 182.232C216.126 181.272 214.99 179.832 214.19 177.912C213.422 175.992 213.038 173.576 213.038 170.664C213.038 167.752 213.534 165.336 214.526 163.416C215.55 161.464 216.878 160.008 218.51 159.048C220.174 158.088 221.966 157.608 223.886 157.608ZM251.681 157.608C254.497 157.608 256.689 158.472 258.257 160.2C259.857 161.896 260.657 164.552 260.657 168.168H243.713L243.665 167.256H256.049C256.113 165.688 255.985 164.248 255.665 162.936C255.345 161.592 254.833 160.52 254.129 159.72C253.457 158.92 252.577 158.52 251.489 158.52C250.017 158.52 248.705 159.256 247.553 160.728C246.433 162.2 245.761 164.536 245.537 167.736L245.681 167.928C245.617 168.408 245.569 168.936 245.537 169.512C245.505 170.088 245.489 170.664 245.489 171.24C245.489 173.416 245.841 175.288 246.545 176.856C247.249 178.424 248.161 179.624 249.281 180.456C250.433 181.256 251.617 181.656 252.833 181.656C253.793 181.656 254.705 181.512 255.569 181.224C256.433 180.904 257.233 180.392 257.969 179.688C258.705 178.984 259.345 178.04 259.889 176.856L260.849 177.24C260.497 178.296 259.921 179.32 259.121 180.312C258.321 181.304 257.313 182.12 256.097 182.76C254.881 183.368 253.473 183.672 251.873 183.672C249.569 183.672 247.585 183.144 245.921 182.088C244.289 181.032 243.025 179.576 242.129 177.72C241.265 175.832 240.833 173.672 240.833 171.24C240.833 168.424 241.281 166.008 242.177 163.992C243.073 161.944 244.337 160.376 245.969 159.288C247.601 158.168 249.505 157.608 251.681 157.608ZM279.226 157.608C280.09 157.608 280.842 157.784 281.482 158.136C282.154 158.488 282.666 158.952 283.018 159.528C283.402 160.072 283.594 160.696 283.594 161.4C283.594 162.2 283.338 162.904 282.826 163.512C282.346 164.12 281.69 164.424 280.858 164.424C280.186 164.424 279.594 164.216 279.082 163.8C278.57 163.352 278.314 162.728 278.314 161.928C278.314 161.32 278.474 160.808 278.794 160.392C279.146 159.944 279.53 159.592 279.946 159.336C279.722 159.016 279.386 158.856 278.938 158.856C277.946 158.856 277.034 159.16 276.202 159.768C275.37 160.344 274.666 161.096 274.09 162.024C273.514 162.952 273.066 163.944 272.746 165C272.426 166.024 272.266 166.984 272.266 167.88V178.056C272.266 179.624 272.714 180.68 273.61 181.224C274.538 181.736 275.786 181.992 277.354 181.992V183C276.618 182.968 275.578 182.936 274.234 182.904C272.89 182.84 271.466 182.808 269.962 182.808C268.874 182.808 267.786 182.84 266.698 182.904C265.642 182.936 264.842 182.968 264.298 183V181.992C265.61 181.992 266.538 181.752 267.082 181.272C267.658 180.792 267.946 179.88 267.946 178.536V163.512C267.946 162.072 267.69 161.016 267.178 160.344C266.666 159.64 265.706 159.288 264.298 159.288V158.28C265.322 158.376 266.314 158.424 267.274 158.424C268.202 158.424 269.082 158.376 269.914 158.28C270.778 158.152 271.562 157.976 272.266 157.752V163.752C272.618 162.824 273.114 161.896 273.754 160.968C274.426 160.008 275.226 159.208 276.154 158.568C277.082 157.928 278.106 157.608 279.226 157.608Z" fill="black"/>
<circle cx="43" cy="40" r="24.5" stroke="black"/>
<path d="M89 21H375V218.5L353 174.5V43.5H146.5L89 21Z" fill="#74936F"/>
<path d="M37 284L352.264 284L369.942 305.5L15.5 305.5L15.5 150.097L36.5 191.619V283.5V284H37Z" stroke="black"/>
</svg>
