<svg width="2547" height="263" viewBox="0 0 2547 263" fill="none" xmlns="http://www.w3.org/2000/svg">
<path d="M2468.32 207.787C2472.2 207.64 2476.07 207.475 2479.96 207.493C2481.29 207.497 2482.89 207.756 2484.16 207.274C2485.79 206.659 2487.2 205.977 2488.94 205.705C2490.56 205.45 2492.21 205.379 2493.84 205.321C2494.64 205.294 2495.43 205.268 2496.22 205.227C2497.24 205.174 2498.08 204.777 2499.04 204.474C2502.55 203.364 2506.34 203.172 2509.7 201.562C2512.52 200.211 2515.26 198.499 2516.25 195.355C2517.32 191.921 2519.77 189.09 2521.12 185.781C2521.44 185.014 2521.79 184.27 2521.94 183.449C2522.09 182.633 2522.14 181.79 2522.39 180.992C2522.92 179.271 2523.3 177.563 2523.5 175.771C2523.7 174.054 2524.3 173.06 2525.3 171.686C2525.64 171.209 2525.92 170.536 2526.39 170.166C2526.87 169.778 2527.47 170.117 2527.35 170.714C2527.02 172.293 2526.83 173.421 2527.22 175.004C2527.65 176.756 2528.46 176.975 2529.96 177.648C2531.59 178.379 2531.65 176.101 2532.13 175.088C2532.47 174.366 2532.89 173.67 2533.42 173.073C2533.72 172.725 2534.82 171.512 2535.38 171.815C2535.99 172.15 2535.65 173.22 2535.52 173.688C2535.28 174.509 2535.31 175.405 2535.27 176.248C2535.23 176.97 2535.16 177.688 2534.96 178.384C2534.66 179.378 2534.85 179.458 2535.72 179.993C2536.83 180.671 2538.55 181.291 2539.33 182.379C2539.69 182.883 2539.65 183.405 2539.82 183.958C2540.02 184.595 2541.4 184.733 2541.94 184.903C2542.82 185.179 2543.71 185.456 2544.59 185.737C2545.15 185.911 2545.97 185.982 2546.4 186.41C2546.9 186.896 2547.24 187.525 2546.79 188.171C2546.28 188.907 2546.26 189.821 2546.12 190.695C2545.89 192.122 2546.07 194.004 2544.63 194.695C2543.26 195.351 2541.8 194.985 2540.32 195.212C2538.63 195.471 2536.79 195.4 2535.08 195.426C2534.45 195.435 2533.56 195.181 2533.04 195.654C2532.32 196.305 2531.97 197.005 2531.6 197.892C2531.24 198.726 2530.88 199.56 2530.44 200.349C2530.03 201.085 2529.42 201.74 2529.12 202.534C2528.58 203.957 2528.42 206.008 2528.4 207.528C2528.37 209.2 2528.99 210.89 2529.41 212.491C2529.94 214.507 2530.07 216.54 2530.08 218.614C2530.08 220.549 2530.03 222.448 2529.78 224.37C2529.67 225.226 2529.46 226.025 2529.16 226.832C2528.87 227.585 2528.31 228.433 2528.55 229.208C2529.08 230.925 2528.5 232.785 2528.48 234.524C2528.46 236.383 2528.28 238.251 2528.15 240.111C2528.03 241.975 2528.05 243.785 2528.14 245.645C2528.22 247.393 2528.14 249.172 2528.52 250.893C2528.83 252.324 2529.64 254.112 2530.94 254.884C2531.58 255.267 2532.04 255.664 2532.45 256.311C2532.76 256.801 2533.46 257.479 2533.27 258.072C2533.12 258.514 2532.8 258.518 2532.59 259.009C2532.41 259.441 2531.05 259.749 2530.62 259.816C2529.8 259.94 2528.93 259.731 2528.12 259.628C2527.48 259.548 2526.59 259.668 2526 259.379C2524.52 258.656 2524.38 255.673 2524.22 254.291C2524.11 253.368 2524.04 252.445 2523.97 251.522C2523.95 251.241 2523.93 250.96 2523.9 250.679C2523.84 250.246 2522.88 250.26 2522.59 250.055C2522.08 249.68 2523.11 247.326 2523.14 246.746C2523.25 244.757 2522.55 242.751 2522.33 240.784C2521.94 237.19 2520.59 234.105 2518.88 230.952C2518.62 230.466 2518.4 229.958 2518.13 229.472C2517.79 228.847 2517.55 229.164 2517.17 229.623C2516.15 230.854 2515.71 232.468 2515.45 234.02C2514.83 237.667 2514.84 241.368 2513.88 244.962C2513.43 246.693 2513.49 248.151 2513.49 249.912C2513.49 250.724 2513.58 251.45 2513.75 252.244C2513.94 253.176 2513.85 254.112 2514.21 255.009C2514.5 255.758 2514.96 256.431 2515.46 257.06C2515.91 257.644 2516.56 258.036 2516.9 258.714C2517.17 259.272 2517.54 260.275 2517.25 260.89C2517.04 261.354 2516.69 262.157 2516.32 262.482C2515.35 263.329 2513.69 262.866 2512.54 262.933C2511.01 263.022 2510 261.037 2509.97 259.74C2509.93 258.09 2510.26 256.115 2509.88 254.514C2509.75 253.921 2509.54 253.247 2509.26 252.703C2509.17 252.538 2509.05 252.422 2508.88 252.347C2508.25 252.043 2508.41 252.066 2508.6 251.343C2509.62 247.696 2508.73 244.222 2508.72 240.521C2508.72 238.845 2508.26 237.27 2508.34 235.58C2508.41 233.975 2507.24 232.129 2506.63 230.689C2506.13 229.503 2507.46 229.289 2507.58 228.219C2507.67 227.416 2505.38 227.287 2504.83 227.122C2503.15 226.609 2501.54 225.628 2499.96 224.879C2499.32 224.575 2499.3 225.258 2499.15 225.748C2498.84 226.756 2498.55 227.773 2498.21 228.776C2497.69 230.314 2497.05 231.759 2496.07 233.057C2495.63 233.641 2495.22 233.855 2494.64 234.265C2493.81 234.867 2493.09 235.625 2492.38 236.374C2491.49 237.32 2490.07 238.251 2489.8 239.616C2489.64 240.432 2489.42 241.123 2489.49 241.97C2489.58 243.005 2489.62 243.981 2489.49 245.016C2489.37 245.868 2489.31 246.568 2489.81 247.312C2490.22 247.919 2490.61 248.418 2490.94 249.078C2491.43 250.055 2493.69 251.218 2493.13 252.561C2492.71 253.56 2491.36 254.046 2490.37 253.965C2489.63 253.907 2488.92 253.693 2488.19 253.604C2487.52 253.524 2487.18 253.631 2486.8 252.971C2485.73 251.116 2486 248.378 2485.74 246.305C2485.44 243.923 2484.89 241.618 2485.01 239.197C2485.06 238.336 2485.59 236.963 2485.22 236.165C2484.89 235.469 2486.08 234.903 2486.5 234.452C2488.03 232.811 2488.87 230.742 2488.19 228.54C2487.62 229.966 2486.63 230.992 2485.68 232.16C2485.21 232.744 2484.79 233.382 2484.26 233.913C2483.65 234.519 2482.84 234.854 2482.12 235.308C2480.87 236.093 2479.68 237.025 2478.76 238.198C2477.68 239.58 2477.33 241.226 2477.01 242.92C2476.7 244.588 2476.53 246.318 2476.83 247.999C2477.12 249.68 2478.07 250.755 2478.87 252.186C2479.51 253.337 2479.45 254.451 2478.5 255.415C2478.07 255.847 2477.1 256.101 2476.52 255.909C2475.88 255.7 2475.41 255.869 2474.77 255.802C2473.42 255.66 2473.37 253.011 2473.44 252.057C2473.51 251.254 2473.61 250.456 2473.55 249.649C2473.48 248.646 2473.07 247.678 2473.17 246.661C2473.34 244.829 2473.56 243.027 2473.46 241.181C2473.41 240.276 2473.35 239.371 2473.3 238.47C2473.27 238.006 2473.01 236.976 2473.31 236.548C2473.56 236.196 2474.14 236.004 2474.49 235.772C2475.05 235.402 2475.59 234.97 2476 234.426C2476.46 233.792 2476.51 232.981 2476.66 232.232C2476.87 231.193 2477.1 230.154 2477.22 229.106C2477.66 225.525 2476.87 221.624 2478.31 218.226C2479.46 215.532 2480.72 212.879 2481.88 210.195C2479.06 210.244 2476.23 209.918 2473.43 209.642C2472.11 209.513 2470.79 209.361 2469.46 209.227C2468.49 209.129 2467.46 208.839 2468.33 207.809C2471 207.707 2468.11 208.072 2468.33 207.809L2468.32 207.787Z" fill="black"/>
<path d="M1416.61 85.7165C1418.37 86.4097 1420.09 87.1931 1421.86 87.8598C1428.18 89.4445 1436.28 91.9578 1442.03 94.9145C1450.23 99.0201 1449.03 100.281 1470.16 132.055C1470.79 132.953 1474.73 138.877 1474.73 138.877C1478.81 144.384 1478.3 143.509 1478.35 148.922C1478.3 149.495 1478.52 150.061 1478.4 150.633C1478.34 150.928 1478.23 153.886 1478.22 153.993C1477.95 155.633 1478.29 156.871 1479.91 157.221C1483.73 158.079 1493.48 157.48 1493.58 157.491C1495.85 157.978 1488.5 162.759 1480.01 163.666C1479.55 163.768 1477.5 163.568 1477.04 165.299C1477.04 165.299 1475.67 174.573 1474.01 181.211C1471.37 191.279 1460.28 213.735 1476.38 239.945C1476.51 240.169 1476.67 240.458 1476.52 240.716C1475.82 241.923 1474.48 242.219 1473.63 241.603C1473.25 241.38 1473 240.959 1472.57 240.824C1471.41 240.801 1471.15 240.502 1469.25 242.793C1469 243.078 1468.81 243.422 1468.5 243.646C1467.76 243.778 1467.75 243.485 1467.51 242.769C1463.95 230.624 1457.1 228.144 1455.49 205.029C1455.51 195.038 1456.01 199.226 1457.72 185.352C1458.14 182.091 1458.5 178.82 1458.65 175.537C1459.05 172.649 1458.88 160.884 1456.91 158.706C1455.75 157.361 1439.85 152.151 1433.95 151.837C1428.83 152.498 1423.42 150.377 1422.18 150.43C1420.91 150.374 1419.11 152.143 1418.54 152.621C1417.15 153.784 1413.27 157.319 1411.96 158.782C1407.1 164.127 1406.14 159.728 1421.76 214.608C1425.38 227.508 1429.5 238.104 1429.63 238.56C1431.43 243.025 1430.89 242.586 1442.55 259.125C1443.03 259.867 1444.06 260.833 1442.87 261.061C1436.25 262.606 1419.28 264.565 1413.54 260.954C1412.8 260.569 1413.88 258.633 1414.23 252.836C1414.26 252.65 1414.7 248.703 1413.76 246.977C1411.22 242.333 1388.56 205.747 1379.33 189.824C1379 189.294 1378.71 188.7 1378.17 188.356C1376.19 187.992 1377.33 189.801 1366.14 211.729C1357.67 228.392 1351.36 234.151 1350.86 240.962C1351.1 245.284 1353.88 247.719 1357.17 252.422C1361.13 258.29 1358.06 256.776 1355.78 256.878C1348.63 256.644 1336.04 255.826 1329.29 253.443C1328.29 252.983 1328.42 253.221 1328.88 250.107C1331.92 234.123 1336.14 234.104 1341.41 207.286C1342.27 202.875 1343.02 198.437 1343.47 193.964C1343.41 192.983 1344.1 190.992 1342.53 190.515C1340.65 190.192 1322.78 195.589 1309.2 192.435C1307.95 192.246 1306.6 191.264 1305.33 193.429C1299.92 202.753 1294.63 205.316 1292.43 206.892C1290.75 208.124 1291.21 210.504 1291.04 211.31C1290.78 212.704 1290.26 228.983 1292.45 238.667C1293.07 241.388 1293.01 241.664 1294.99 243.193C1301.09 247.573 1302.88 251.897 1302.65 252.689C1302.39 253.344 1283.99 259.673 1271.49 252.967C1270.67 252.449 1270.9 253.916 1270.88 240.274C1270.87 239.801 1270.57 223.077 1270.21 221.707C1270.01 220.907 1269.31 220.519 1268.04 221.521C1265.77 223.39 1262.13 226.725 1261.43 227.446C1255.99 232.857 1257.08 232.765 1254.41 240.006C1253.88 241.127 1253.12 243.256 1252.11 243.863C1251.13 243.914 1238.01 235.905 1233.73 224.507C1233.64 224.224 1233.5 223.939 1233.52 223.635C1233.52 223.635 1249.53 211.502 1256.54 204.845C1258.04 203.638 1261.76 199.695 1261.87 199.594C1264.4 197.041 1262.7 197.554 1258.2 183.148C1254.48 171.256 1252.37 159.56 1251.92 153.241C1251.86 152.745 1251.72 150.966 1250.92 150.917C1248.55 150.608 1240.69 174.096 1236.4 193.198C1236.02 194.88 1237.27 196.933 1237.15 201.01C1237.34 208.505 1231.38 211.624 1224.19 209.433C1223.25 209.072 1223.79 208.457 1223.22 208.116C1222.73 207.791 1220.2 206.92 1219.04 203.913C1218.91 203.62 1219.11 203.203 1219.44 203.192C1220.76 203.124 1222.95 203.761 1226.64 200.649C1228.61 199.032 1231.3 194.814 1231.36 193.688C1234.13 163.638 1238.68 150.935 1250.3 128.63C1250.64 127.992 1253.8 121.883 1254.34 121.287C1257.45 118.189 1275.04 102.429 1286.41 96.8709C1295.18 92.4459 1306.24 92.5109 1313.61 95.317C1335.1 105.938 1339.94 104.378 1352.44 102.904C1355.74 102.504 1373.97 100.267 1375.38 97.2361C1378.01 91.4554 1382.62 82.2676 1387.52 78.2778C1389.5 76.5922 1389.59 74.7537 1416.61 85.7153L1416.61 85.7165Z" fill="black"/>
<path d="M57.5388 262.188C57.5388 261.74 56.2507 261.554 54.6767 261.775C52.7094 262.05 51.2076 261.536 49.8721 260.13C47.5457 257.68 45.5804 257.535 43.3613 259.65C42.289 260.671 40.7263 261.026 38.8633 260.671C37.1148 260.338 35.8123 260.589 35.5016 261.318C35.223 261.973 34.9577 260.246 34.9133 257.479C34.8514 253.671 35.3953 251.766 37.1541 249.638C39.2586 247.089 39.4939 245.651 39.6663 234.245C39.8542 221.86 39.9202 221.532 43.9466 213.076C46.1945 208.353 48.5809 202.836 49.2487 200.816C49.9453 198.707 52.1892 195.735 54.5167 193.837C56.7461 192.019 58.5709 189.832 58.5709 188.976C58.5709 188.047 56.2754 186.421 52.8609 184.932C49.7211 183.562 44.4966 180.069 41.2493 177.169C38.0032 174.269 31.4989 169.094 26.7963 165.67C12.4651 155.235 4.10469 143.087 0.791443 127.88C-1.00241 119.646 -0.380016 117.096 9.42317 92.4807C13.208 82.9772 12.9995 77.2938 8.40034 64.6043C3.81252 51.9448 3.81147 44.8083 8.39722 35.1937C11.439 28.8151 17.2848 22.2855 17.2848 25.266C17.2848 26.1462 16.7739 27.1679 16.1495 27.5347C15.5251 27.9025 13.6682 30.9157 12.022 34.2309C6.93459 44.4762 8.25158 52.9814 17.1703 67.4999C19.3966 71.1237 21.7086 75.5492 22.3062 77.3337C24.0525 82.5409 24.3354 91.85 22.943 98.2508C19.3821 114.625 19.9085 118.707 26.3315 124.493C32.3273 129.894 35.913 131.873 42.056 133.169C46.8792 134.187 48.7368 134.118 54.4169 132.711C58.0933 131.8 62.0413 130.589 63.1898 130.02C65.6597 128.796 83.0117 112.012 84.4438 109.463C84.9887 108.494 87.8003 101.377 90.6932 93.6483C95.5235 80.7411 97.812 75.9666 104.483 64.8701C110.326 55.1523 117.329 34.5239 117.383 26.8749C117.393 25.4637 119.623 20.1632 122.338 15.0977C129.056 2.56704 132.817 -0.0498152 144.048 0.000711791C149.867 0.0272718 152.939 0.538635 155.59 1.92329C157.577 2.96076 160.319 3.91272 161.682 4.03954C163.046 4.16643 165.631 5.62675 167.427 7.28481C169.223 8.94287 170.988 10.0177 171.35 9.67252C171.711 9.32832 173.224 9.33618 174.712 9.69217C176.593 10.1426 178.004 11.598 179.354 14.4813C180.42 16.7599 184.035 21.1354 187.385 24.2042C193.091 29.4291 197.908 36.7971 197.908 40.2979C197.908 43.2913 194.833 47.4283 191.011 49.577C188.618 50.9214 186.992 51.3462 186.762 50.6864C186.493 49.9202 185.781 49.9262 184.25 50.707C182.466 51.6167 182.215 51.5429 182.732 50.2576C183.183 49.1384 182.898 48.8848 181.688 49.3273C180.578 49.7325 180.272 49.5515 180.769 48.7854C181.76 47.2562 180.098 47.3113 178.387 48.8641C177.284 49.8652 177.155 49.7069 177.692 48.0066C178.281 46.1459 178.001 45.9591 175.12 46.2787C172.638 46.5541 172.021 46.3082 172.46 45.2186C172.84 44.2735 172.533 43.9834 171.536 44.3482C170.713 44.6492 170.04 44.3787 170.04 43.7484C170.04 43.118 169.581 42.8721 169.02 43.2025C168.434 43.5467 168.261 43.1524 168.614 42.2772C168.952 41.4354 168.688 40.7509 168.026 40.7509C167.363 40.7509 167.078 40.3546 167.393 39.8708C167.707 39.386 167.191 38.7074 166.246 38.3622C163.669 37.4201 162.754 39.801 164.707 42.3657C165.654 43.6068 166.761 44.6364 167.169 44.653C167.577 44.6708 167.645 45.3444 167.32 46.1508C166.963 47.0359 167.489 47.8875 168.643 48.2956C173.231 49.9202 175.474 54.7519 172.879 57.4165C171.822 58.5013 171.936 58.6242 173.509 58.0941C174.946 57.6093 175.279 57.8207 174.831 58.933C174.502 59.7502 174.71 60.4189 175.291 60.4189C176.742 60.4189 173.034 66.2789 170.881 67.3905C169.139 68.2883 165.936 67.5479 160.849 65.0697C159.485 64.4049 155.861 60.1595 152.797 55.635C149.733 51.1103 146.986 47.6379 146.692 47.9171C146.399 48.1964 146.655 50.9844 147.262 54.1114C147.869 57.2386 148.366 61.8343 148.366 64.3251C148.366 66.9124 149.25 70.5077 150.43 72.7114C151.565 74.8336 152.494 77.4987 152.494 78.6353C152.494 79.7721 153.876 81.9641 155.567 83.5071C158.62 86.2941 158.676 86.3039 164.327 85.0117C169.281 83.8798 170.518 83.9142 173.898 85.2772C176.034 86.1387 179.523 87.3493 181.652 87.9668C185.855 89.1863 186.843 90.9043 183.343 90.9043C181.434 90.9043 181.243 91.3085 181.807 94.1702C182.161 95.9668 182.176 97.6977 181.843 98.0153C181.508 98.334 179.123 96.6661 176.542 94.3089C170.738 89.0113 167.113 88.0807 162.554 90.7205C160.032 92.1809 158.591 92.4375 156.73 91.7609C155.371 91.2663 154.128 90.986 153.969 91.1374C153.811 91.2889 154.335 94.0641 155.135 97.3045C156.023 100.902 156.596 108.65 156.606 117.197L156.622 131.195L162.557 134.106C165.821 135.706 170.492 138.307 172.938 139.886C179.534 144.141 191.655 155.731 192.377 158.473C193.396 162.343 190.795 174.855 186.461 186.923C184.241 193.104 182.425 198.802 182.425 199.581C182.425 201.53 192.646 209.083 194.132 208.231C194.789 207.854 197.138 206.304 199.352 204.788C203.683 201.82 207.309 201.265 209.081 203.299C209.92 204.262 209.674 204.605 208.059 204.721C205.325 204.917 204.734 205.523 205.478 207.369C205.985 208.63 206.876 208.466 211.233 206.313C216.983 203.471 225.096 202.155 226.217 203.883C226.608 204.486 226.308 204.979 225.549 204.979C224.79 204.979 223.156 205.655 221.919 206.481C218.563 208.721 220.036 210.88 224.92 210.88C229.289 210.88 233 212.277 233 213.922C233 214.476 232.531 214.653 231.959 214.316C230.371 213.382 226.807 214.768 226.807 216.32C226.807 218.394 223.367 219.73 218.027 219.73C214.78 219.73 211.821 220.523 208.826 222.196C204.941 224.364 203.465 224.619 196.549 224.307C189.185 223.976 188.424 223.726 184.521 220.367C182.229 218.394 179.496 216.78 178.448 216.78C175.413 216.78 169.629 218.955 168.369 220.572C167.365 221.859 167.076 221.804 166.143 220.143C165.553 219.093 165.319 216.996 165.622 215.484C166.024 213.485 165.575 212.203 163.978 210.785C161.245 208.359 161.218 205.906 163.851 199.305C165.629 194.844 165.825 192.758 165.246 184.34C164.832 178.318 164.182 174.788 163.556 175.157C160.7 176.838 137.744 181.373 132.075 181.375C125.418 181.378 124.542 181.708 102.756 192.433C100.662 193.465 96.714 194.608 93.9833 194.977C89.1932 195.623 88.9021 195.852 85.7769 201.456C82.2583 207.763 79.2778 210.46 74.7617 211.425C70.7694 212.279 55.534 223.383 54.3772 226.282C53.6578 228.084 54.0428 229.844 56.0017 233.713C58.5408 238.728 59.7143 244.574 57.5375 241.365C56.7108 240.146 56.5343 240.236 56.5209 241.883C56.5044 243.888 59.0538 248.117 61.0902 249.464C61.6898 249.861 63.2328 250.192 64.5179 250.201C69.1821 250.231 75.0839 254.483 75.0839 257.814C75.0839 260.077 74.9972 260.108 73.2777 258.469C71.6407 256.91 71.4405 256.899 71.1464 258.352C70.7056 260.534 67.6835 261.295 64.3155 260.074C60.3697 258.645 59.6018 258.802 59.6018 261.033C59.6018 262.115 59.1373 263 58.5696 263C58.002 263 57.5375 262.634 57.5375 262.187L57.5388 262.188Z" fill="black"/>
</svg>
